<svg width="25" height="25" viewBox="0 0 25 25" fill="none" xmlns="http://www.w3.org/2000/svg">
<path fill-rule="evenodd" clip-rule="evenodd" d="M12.0222 14.2388H9.02222C8.47022 14.2388 8.02222 13.7908 8.02222 13.2388C8.02222 12.6868 8.47022 12.2388 9.02222 12.2388H12.0222C12.5742 12.2388 13.0222 12.6868 13.0222 13.2388C13.0222 13.7908 12.5742 14.2388 12.0222 14.2388ZM8.02222 17.2388C8.02222 16.6868 8.47022 16.2388 9.02222 16.2388H15.0222C15.5752 16.2388 16.0222 16.6868 16.0222 17.2388C16.0222 17.7908 15.5752 18.2388 15.0222 18.2388H9.02222C8.47022 18.2388 8.02222 17.7908 8.02222 17.2388ZM17.4665 20.2388H6.57746C6.27146 20.2388 6.02246 20.0148 6.02246 19.7388V4.73877C6.02246 4.46277 6.27146 4.23877 6.57746 4.23877H12.0225V7.38877C12.0225 8.96077 13.2395 10.2388 14.7365 10.2388H18.0225V19.7388C18.0225 20.0148 17.7735 20.2388 17.4665 20.2388ZM14.0225 5.2168L16.7645 8.2388H14.7365C14.3425 8.2388 14.0225 7.8578 14.0225 7.3888V5.2168ZM19.7625 8.56677L14.3185 2.56677C14.1285 2.35777 13.8605 2.23877 13.5775 2.23877H6.57746C5.16846 2.23877 4.02246 3.36077 4.02246 4.73877V19.7388C4.02246 21.1168 5.16846 22.2388 6.57746 22.2388H17.4665C18.8755 22.2388 20.0225 21.1168 20.0225 19.7388V9.23877C20.0225 8.98977 19.9295 8.75077 19.7625 8.56677Z" fill="#231F20"/>
<mask id="mask0_2128_6147" style="mask-type:luminance" maskUnits="userSpaceOnUse" x="4" y="2" width="17" height="21">
<path fill-rule="evenodd" clip-rule="evenodd" d="M12.0222 14.2388H9.02222C8.47022 14.2388 8.02222 13.7908 8.02222 13.2388C8.02222 12.6868 8.47022 12.2388 9.02222 12.2388H12.0222C12.5742 12.2388 13.0222 12.6868 13.0222 13.2388C13.0222 13.7908 12.5742 14.2388 12.0222 14.2388ZM8.02222 17.2388C8.02222 16.6868 8.47022 16.2388 9.02222 16.2388H15.0222C15.5752 16.2388 16.0222 16.6868 16.0222 17.2388C16.0222 17.7908 15.5752 18.2388 15.0222 18.2388H9.02222C8.47022 18.2388 8.02222 17.7908 8.02222 17.2388ZM17.4665 20.2388H6.57746C6.27146 20.2388 6.02246 20.0148 6.02246 19.7388V4.73877C6.02246 4.46277 6.27146 4.23877 6.57746 4.23877H12.0225V7.38877C12.0225 8.96077 13.2395 10.2388 14.7365 10.2388H18.0225V19.7388C18.0225 20.0148 17.7735 20.2388 17.4665 20.2388ZM14.0225 5.2168L16.7645 8.2388H14.7365C14.3425 8.2388 14.0225 7.8578 14.0225 7.3888V5.2168ZM19.7625 8.56677L14.3185 2.56677C14.1285 2.35777 13.8605 2.23877 13.5775 2.23877H6.57746C5.16846 2.23877 4.02246 3.36077 4.02246 4.73877V19.7388C4.02246 21.1168 5.16846 22.2388 6.57746 22.2388H17.4665C18.8755 22.2388 20.0225 21.1168 20.0225 19.7388V9.23877C20.0225 8.98977 19.9295 8.75077 19.7625 8.56677Z" fill="white"/>
</mask>
<g mask="url(#mask0_2128_6147)">
<rect x="0.0224609" y="0.23877" width="24" height="24" fill="#77797E"/>
</g>
</svg>
