<svg width="11" height="13" viewBox="0 0 11 13" fill="none" xmlns="http://www.w3.org/2000/svg">
<path d="M0.118164 12.4304V12.0473L0.408632 11.9561C0.662792 11.8588 0.832232 11.7311 0.916952 11.573C1.01377 11.4149 1.06219 11.2021 1.06219 10.9345C1.07429 10.2413 1.08034 9.54807 1.08034 8.85486C1.08034 8.14948 1.08034 7.4441 1.08034 6.73872V6.08199C1.08034 5.37661 1.07429 4.67731 1.06219 3.9841C1.06219 3.27872 1.06219 2.57334 1.06219 1.86796C1.06219 1.57608 1.01983 1.35717 0.935106 1.21123C0.850386 1.05313 0.674895 0.931508 0.408632 0.846376L0.118164 0.755163V0.37207H5.23767C6.69001 0.37207 7.74296 0.645708 8.39651 1.19298C9.05006 1.7281 9.37684 2.40915 9.37684 3.23615C9.37684 3.86856 9.14689 4.44016 8.68698 4.95095C8.22707 5.44958 7.42223 5.80835 6.27246 6.02726C7.60377 6.1732 8.56595 6.51981 9.15899 7.06709C9.75203 7.61436 10.0485 8.28326 10.0485 9.07377C10.0485 9.46294 9.96383 9.8582 9.79439 10.2595C9.62495 10.6487 9.33448 11.0075 8.92298 11.3358C8.52359 11.6642 7.97896 11.9318 7.2891 12.1385C6.59924 12.3331 5.72783 12.4304 4.67488 12.4304H0.118164ZM3.65825 5.89956H4.5115C5.33449 5.89956 5.92753 5.71714 6.29061 5.35229C6.6658 4.97527 6.8534 4.33678 6.8534 3.43682C6.8534 2.50037 6.68396 1.84364 6.34508 1.46662C6.0062 1.08961 5.47367 0.901104 4.7475 0.901104H3.65825V5.89956ZM3.65825 11.9014H4.65673C5.56444 11.9014 6.2422 11.6764 6.69001 11.2264C7.13781 10.7764 7.36172 10.0528 7.36172 9.05552C7.36172 8.09475 7.14387 7.41978 6.70816 7.0306C6.28456 6.62926 5.5826 6.4286 4.60227 6.4286H3.65825V11.9014Z" fill="#A5A5A5"/>
</svg>
