<svg width="48" height="49" viewBox="0 0 48 49" fill="none" xmlns="http://www.w3.org/2000/svg">
<g filter="url(#filter0_d_2463_7688)">
<rect x="9.19727" y="6.37598" width="29.146" height="29.146" rx="3.64325" fill="white" shape-rendering="crispEdges"/>
<path fill-rule="evenodd" clip-rule="evenodd" d="M19.5561 13.1699C18.8741 13.1699 18.3054 13.1699 17.854 13.2306C17.3775 13.2946 16.9473 13.4356 16.6016 13.7813C16.2559 14.127 16.115 14.5572 16.0509 15.0337C15.9902 15.4851 15.9902 16.0538 15.9902 16.7357V16.8147C15.9902 17.4966 15.9902 18.0653 16.0509 18.5168C16.115 18.9933 16.2559 19.4235 16.6016 19.7692C16.9473 20.1149 17.3775 20.2558 17.854 20.3199C18.3054 20.3806 18.8741 20.3805 19.556 20.3805H19.635C20.3169 20.3805 20.8856 20.3806 21.3371 20.3199C21.8136 20.2558 22.2438 20.1149 22.5895 19.7692C22.9352 19.4235 23.0761 18.9933 23.1402 18.5168C23.2009 18.0653 23.2009 17.4967 23.2008 16.8147V16.7358C23.2009 16.0538 23.2009 15.4851 23.1402 15.0337C23.0761 14.5572 22.9352 14.127 22.5895 13.7813C22.2438 13.4356 21.8136 13.2946 21.3371 13.2306C20.8856 13.1699 20.317 13.1699 19.635 13.1699H19.5561ZM17.4066 14.5863C17.5056 14.4874 17.6555 14.406 18.0057 14.3589C18.3723 14.3096 18.8638 14.3084 19.5955 14.3084C20.3272 14.3084 20.8187 14.3096 21.1854 14.3589C21.5356 14.406 21.6855 14.4874 21.7844 14.5863C21.8833 14.6852 21.9647 14.8351 22.0118 15.1854C22.0611 15.552 22.0623 16.0435 22.0623 16.7752C22.0623 17.5069 22.0611 17.9984 22.0118 18.3651C21.9647 18.7153 21.8833 18.8652 21.7844 18.9641C21.6855 19.063 21.5356 19.1444 21.1854 19.1915C20.8187 19.2408 20.3272 19.242 19.5955 19.242C18.8638 19.242 18.3723 19.2408 18.0057 19.1915C17.6555 19.1444 17.5056 19.063 17.4066 18.9641C17.3077 18.8652 17.2263 18.7153 17.1793 18.3651C17.13 17.9984 17.1288 17.5069 17.1288 16.7752C17.1288 16.0435 17.13 15.552 17.1793 15.1854C17.2263 14.8351 17.3077 14.6852 17.4066 14.5863Z" fill="#0A58D0"/>
<path fill-rule="evenodd" clip-rule="evenodd" d="M27.9052 21.519C27.2232 21.519 26.6546 21.519 26.2031 21.5797C25.7266 21.6438 25.2964 21.7847 24.9507 22.1304C24.605 22.4761 24.4641 22.9063 24.4 23.3828C24.3393 23.8343 24.3393 24.4029 24.3394 25.0849V25.1638C24.3393 25.8458 24.3393 26.4144 24.4 26.8659C24.4641 27.3424 24.605 27.7726 24.9507 28.1183C25.2964 28.464 25.7266 28.6049 26.2031 28.669C26.6546 28.7297 27.2232 28.7297 27.9051 28.7296H27.9841C28.666 28.7297 29.2348 28.7297 29.6862 28.669C30.1627 28.6049 30.5929 28.464 30.9386 28.1183C31.2843 27.7726 31.4252 27.3424 31.4893 26.8659C31.55 26.4144 31.55 25.8458 31.55 25.1639V25.0849C31.55 24.403 31.55 23.8342 31.4893 23.3828C31.4252 22.9063 31.2843 22.4761 30.9386 22.1304C30.5929 21.7847 30.1627 21.6438 29.6862 21.5797C29.2347 21.519 28.6661 21.519 27.9841 21.519H27.9052ZM25.7558 22.9354C25.8547 22.8365 26.0046 22.7551 26.3548 22.7081C26.7215 22.6588 27.213 22.6576 27.9447 22.6576C28.6764 22.6576 29.1679 22.6588 29.5345 22.7081C29.8847 22.7551 30.0346 22.8365 30.1336 22.9354C30.2325 23.0344 30.3138 23.1843 30.3609 23.5345C30.4102 23.9011 30.4114 24.3926 30.4114 25.1243C30.4114 25.856 30.4102 26.3475 30.3609 26.7142C30.3138 27.0644 30.2325 27.2143 30.1336 27.3132C30.0346 27.4122 29.8847 27.4935 29.5345 27.5406C29.1679 27.5899 28.6764 27.5911 27.9447 27.5911C27.213 27.5911 26.7215 27.5899 26.3548 27.5406C26.0046 27.4935 25.8547 27.4122 25.7558 27.3132C25.6568 27.2143 25.5755 27.0644 25.5284 26.7142C25.4791 26.3475 25.4779 25.856 25.4779 25.1243C25.4779 24.3926 25.4791 23.9011 25.5284 23.5345C25.5755 23.1843 25.6568 23.0344 25.7558 22.9354Z" fill="#0A58D0"/>
<path fill-rule="evenodd" clip-rule="evenodd" d="M19.5561 21.519H19.635C20.317 21.519 20.8856 21.519 21.3371 21.5797C21.8136 21.6438 22.2438 21.7847 22.5895 22.1304C22.9352 22.4761 23.0761 22.9063 23.1402 23.3828C23.2009 23.8342 23.2009 24.4029 23.2008 25.0849V25.1638C23.2009 25.8458 23.2009 26.4144 23.1402 26.8659C23.0761 27.3424 22.9352 27.7726 22.5895 28.1183C22.2438 28.464 21.8136 28.6049 21.3371 28.669C20.8856 28.7297 20.317 28.7297 19.635 28.7296H19.5561C18.8741 28.7297 18.3054 28.7297 17.854 28.669C17.3775 28.6049 16.9473 28.464 16.6016 28.1183C16.2559 27.7726 16.115 27.3424 16.0509 26.8659C15.9902 26.4144 15.9902 25.8458 15.9902 25.1638V25.0849C15.9902 24.4029 15.9902 23.8342 16.0509 23.3828C16.115 22.9063 16.2559 22.4761 16.6016 22.1304C16.9473 21.7847 17.3775 21.6438 17.854 21.5797C18.3054 21.519 18.8741 21.519 19.5561 21.519ZM18.0057 22.7081C17.6555 22.7551 17.5056 22.8365 17.4066 22.9354C17.3077 23.0344 17.2263 23.1843 17.1793 23.5345C17.13 23.9011 17.1288 24.3926 17.1288 25.1243C17.1288 25.856 17.13 26.3475 17.1793 26.7142C17.2263 27.0644 17.3077 27.2143 17.4066 27.3132C17.5056 27.4122 17.6555 27.4935 18.0057 27.5406C18.3723 27.5899 18.8638 27.5911 19.5955 27.5911C20.3272 27.5911 20.8187 27.5899 21.1854 27.5406C21.5356 27.4935 21.6855 27.4122 21.7844 27.3132C21.8833 27.2143 21.9647 27.0644 22.0118 26.7142C22.0611 26.3475 22.0623 25.856 22.0623 25.1243C22.0623 24.3926 22.0611 23.9011 22.0118 23.5345C21.9647 23.1843 21.8833 23.0344 21.7844 22.9354C21.6855 22.8365 21.5356 22.7551 21.1854 22.7081C20.8187 22.6588 20.3272 22.6576 19.5955 22.6576C18.8638 22.6576 18.3723 22.6588 18.0057 22.7081Z" fill="#0A58D0"/>
<path fill-rule="evenodd" clip-rule="evenodd" d="M27.9052 13.1699C27.2232 13.1699 26.6546 13.1699 26.2031 13.2306C25.7266 13.2946 25.2964 13.4356 24.9507 13.7813C24.605 14.127 24.4641 14.5572 24.4 15.0337C24.3393 15.4851 24.3393 16.0538 24.3394 16.7358V16.8147C24.3393 17.4966 24.3393 18.0653 24.4 18.5168C24.4641 18.9933 24.605 19.4235 24.9507 19.7692C25.2964 20.1149 25.7266 20.2558 26.2031 20.3199C26.6546 20.3806 27.2232 20.3805 27.9052 20.3805H27.9841C28.6661 20.3805 29.2347 20.3806 29.6862 20.3199C30.1627 20.2558 30.5929 20.1149 30.9386 19.7692C31.2843 19.4235 31.4252 18.9933 31.4893 18.5168C31.55 18.0653 31.55 17.4967 31.55 16.8147V16.7358C31.55 16.0538 31.55 15.4851 31.4893 15.0337C31.4252 14.5572 31.2843 14.127 30.9386 13.7813C30.5929 13.4356 30.1627 13.2946 29.6862 13.2306C29.2347 13.1699 28.6661 13.1699 27.9841 13.1699H27.9052ZM25.7558 14.5863C25.8547 14.4874 26.0046 14.406 26.3548 14.3589C26.7215 14.3096 27.213 14.3084 27.9447 14.3084C28.6764 14.3084 29.1679 14.3096 29.5345 14.3589C29.8847 14.406 30.0346 14.4874 30.1336 14.5863C30.2325 14.6852 30.3138 14.8351 30.3609 15.1854C30.4102 15.552 30.4114 16.0435 30.4114 16.7752C30.4114 17.5069 30.4102 17.9984 30.3609 18.3651C30.3138 18.7153 30.2325 18.8652 30.1336 18.9641C30.0346 19.063 29.8847 19.1444 29.5345 19.1915C29.1679 19.2408 28.6764 19.242 27.9447 19.242C27.213 19.242 26.7215 19.2408 26.3548 19.1915C26.0046 19.1444 25.8547 19.063 25.7558 18.9641C25.6568 18.8652 25.5755 18.7153 25.5284 18.3651C25.4791 17.9984 25.4779 17.5069 25.4779 16.7752C25.4779 16.0435 25.4791 15.552 25.5284 15.1854C25.5755 14.8351 25.6568 14.6852 25.7558 14.5863Z" fill="#0A58D0"/>
</g>
<defs>
<filter id="filter0_d_2463_7688" x="0.0891371" y="0.911099" width="47.3627" height="47.3627" filterUnits="userSpaceOnUse" color-interpolation-filters="sRGB">
<feFlood flood-opacity="0" result="BackgroundImageFix"/>
<feColorMatrix in="SourceAlpha" type="matrix" values="0 0 0 0 0 0 0 0 0 0 0 0 0 0 0 0 0 0 127 0" result="hardAlpha"/>
<feOffset dy="3.64325"/>
<feGaussianBlur stdDeviation="4.55406"/>
<feComposite in2="hardAlpha" operator="out"/>
<feColorMatrix type="matrix" values="0 0 0 0 0.843137 0 0 0 0 0.843137 0 0 0 0 0.843137 0 0 0 0.25 0"/>
<feBlend mode="normal" in2="BackgroundImageFix" result="effect1_dropShadow_2463_7688"/>
<feBlend mode="normal" in="SourceGraphic" in2="effect1_dropShadow_2463_7688" result="shape"/>
</filter>
</defs>
</svg>
