<svg width="18" height="18" viewBox="0 0 18 18" fill="none" xmlns="http://www.w3.org/2000/svg">
<path fill-rule="evenodd" clip-rule="evenodd" d="M5.43933 1.94336C4.79614 1.94334 4.25979 1.94332 3.834 2.00057C3.38459 2.06099 2.97883 2.19391 2.65278 2.51996C2.32672 2.84602 2.1938 3.25177 2.13338 3.70119C2.07614 4.12697 2.07615 4.66331 2.07617 5.30649V5.38096C2.07615 6.02415 2.07614 6.5605 2.13338 6.98628C2.1938 7.4357 2.32672 7.84146 2.65278 8.16751C2.97883 8.49357 3.38459 8.62649 3.834 8.68691C4.25979 8.74415 4.79612 8.74414 5.43931 8.74412H5.51377C6.15696 8.74414 6.69332 8.74415 7.1191 8.68691C7.56851 8.62649 7.97427 8.49357 8.30033 8.16751C8.62638 7.84146 8.7593 7.4357 8.81972 6.98628C8.87697 6.5605 8.87695 6.02417 8.87693 5.38098V5.30652C8.87695 4.66333 8.87697 4.12697 8.81972 3.70119C8.7593 3.25177 8.62638 2.84602 8.30033 2.51996C7.97427 2.19391 7.56851 2.06099 7.1191 2.00057C6.69332 1.94332 6.15698 1.94334 5.5138 1.94336H5.43933ZM3.41207 3.27926C3.50536 3.18597 3.64674 3.10921 3.97709 3.0648C4.32288 3.01831 4.78645 3.01716 5.47655 3.01716C6.16666 3.01716 6.63022 3.01831 6.97602 3.0648C7.30636 3.10921 7.44774 3.18597 7.54103 3.27926C7.63432 3.37255 7.71108 3.51393 7.75549 3.84427C7.80198 4.19006 7.80312 4.65363 7.80312 5.34374C7.80312 6.03384 7.80198 6.49741 7.75549 6.8432C7.71108 7.17355 7.63432 7.31493 7.54103 7.40822C7.44774 7.50151 7.30636 7.57827 6.97602 7.62268C6.63022 7.66917 6.16666 7.67031 5.47655 7.67031C4.78645 7.67031 4.32288 7.66917 3.97709 7.62268C3.64674 7.57827 3.50536 7.50151 3.41207 7.40822C3.31878 7.31493 3.24202 7.17355 3.19761 6.8432C3.15112 6.49741 3.14998 6.03384 3.14998 5.34374C3.14998 4.65363 3.15112 4.19006 3.19761 3.84427C3.24202 3.51393 3.31878 3.37255 3.41207 3.27926Z" fill="#ABACB0"/>
<path fill-rule="evenodd" clip-rule="evenodd" d="M13.3139 9.81792C12.6707 9.8179 12.1343 9.81788 11.7086 9.87512C11.2591 9.93555 10.8534 10.0685 10.5273 10.3945C10.2013 10.7206 10.0684 11.1263 10.0079 11.5757C9.95069 12.0015 9.95071 12.5379 9.95073 13.1811V13.2555C9.95071 13.8987 9.95069 14.4351 10.0079 14.8608C10.0684 15.3103 10.2013 15.716 10.5273 16.0421C10.8534 16.3681 11.2591 16.501 11.7086 16.5615C12.1343 16.6187 12.6707 16.6187 13.3138 16.6187H13.3883C14.0315 16.6187 14.5679 16.6187 14.9937 16.5615C15.4431 16.501 15.8488 16.3681 16.1749 16.0421C16.5009 15.716 16.6339 15.3103 16.6943 14.8608C16.7515 14.4351 16.7515 13.8988 16.7515 13.2556V13.1811C16.7515 12.5379 16.7515 12.0015 16.6943 11.5757C16.6339 11.1263 16.5009 10.7206 16.1749 10.3945C15.8488 10.0685 15.4431 9.93555 14.9937 9.87512C14.5679 9.81788 14.0315 9.8179 13.3883 9.81792H13.3139ZM11.2866 11.1538C11.3799 11.0605 11.5213 10.9838 11.8516 10.9394C12.1974 10.8929 12.661 10.8917 13.3511 10.8917C14.0412 10.8917 14.5048 10.8929 14.8506 10.9394C15.1809 10.9838 15.3223 11.0605 15.4156 11.1538C15.5089 11.2471 15.5856 11.3885 15.6301 11.7188C15.6765 12.0646 15.6777 12.5282 15.6777 13.2183C15.6777 13.9084 15.6765 14.372 15.6301 14.7178C15.5856 15.0481 15.5089 15.1895 15.4156 15.2828C15.3223 15.3761 15.1809 15.4528 14.8506 15.4972C14.5048 15.5437 14.0412 15.5449 13.3511 15.5449C12.661 15.5449 12.1974 15.5437 11.8516 15.4972C11.5213 15.4528 11.3799 15.3761 11.2866 15.2828C11.1933 15.1895 11.1166 15.0481 11.0722 14.7178C11.0257 14.372 11.0245 13.9084 11.0245 13.2183C11.0245 12.5282 11.0257 12.0646 11.0722 11.7188C11.1166 11.3885 11.1933 11.2471 11.2866 11.1538Z" fill="#ABACB0"/>
<path fill-rule="evenodd" clip-rule="evenodd" d="M5.43933 9.81792H5.51378C6.15697 9.8179 6.69331 9.81788 7.1191 9.87512C7.56851 9.93555 7.97427 10.0685 8.30033 10.3945C8.62638 10.7206 8.7593 11.1263 8.81972 11.5757C8.87697 12.0015 8.87695 12.5379 8.87693 13.1811V13.2555C8.87695 13.8987 8.87697 14.4351 8.81972 14.8608C8.7593 15.3103 8.62638 15.716 8.30033 16.0421C7.97427 16.3681 7.56851 16.501 7.1191 16.5615C6.69332 16.6187 6.15699 16.6187 5.51382 16.6187H5.43933C4.79615 16.6187 4.25978 16.6187 3.834 16.5615C3.38459 16.501 2.97883 16.3681 2.65278 16.0421C2.32672 15.716 2.1938 15.3103 2.13338 14.8608C2.07614 14.4351 2.07615 13.8987 2.07617 13.2555V13.1811C2.07615 12.5379 2.07614 12.0015 2.13338 11.5757C2.1938 11.1263 2.32672 10.7206 2.65278 10.3945C2.97883 10.0685 3.38459 9.93555 3.834 9.87512C4.25979 9.81788 4.79613 9.8179 5.43933 9.81792ZM3.97709 10.9394C3.64674 10.9838 3.50536 11.0605 3.41207 11.1538C3.31878 11.2471 3.24202 11.3885 3.19761 11.7188C3.15112 12.0646 3.14998 12.5282 3.14998 13.2183C3.14998 13.9084 3.15112 14.372 3.19761 14.7178C3.24202 15.0481 3.31878 15.1895 3.41207 15.2828C3.50536 15.3761 3.64674 15.4528 3.97709 15.4972C4.32288 15.5437 4.78645 15.5449 5.47655 15.5449C6.16666 15.5449 6.63022 15.5437 6.97602 15.4972C7.30636 15.4528 7.44774 15.3761 7.54103 15.2828C7.63432 15.1895 7.71108 15.0481 7.75549 14.7178C7.80198 14.372 7.80312 13.9084 7.80312 13.2183C7.80312 12.5282 7.80198 12.0646 7.75549 11.7188C7.71108 11.3885 7.63432 11.2471 7.54103 11.1538C7.44774 11.0605 7.30636 10.9838 6.97602 10.9394C6.63022 10.8929 6.16666 10.8917 5.47655 10.8917C4.78645 10.8917 4.32288 10.8929 3.97709 10.9394Z" fill="#ABACB0"/>
<path fill-rule="evenodd" clip-rule="evenodd" d="M13.3139 1.94336C12.6707 1.94334 12.1343 1.94332 11.7086 2.00057C11.2591 2.06099 10.8534 2.19391 10.5273 2.51996C10.2013 2.84602 10.0684 3.25177 10.0079 3.70119C9.95069 4.12698 9.95071 4.66332 9.95073 5.30651V5.38096C9.95071 6.02416 9.95069 6.5605 10.0079 6.98628C10.0684 7.4357 10.2013 7.84146 10.5273 8.16751C10.8534 8.49357 11.2591 8.62649 11.7086 8.68691C12.1343 8.74415 12.6707 8.74414 13.3139 8.74412H13.3883C14.0315 8.74414 14.5679 8.74415 14.9937 8.68691C15.4431 8.62649 15.8488 8.49357 16.1749 8.16751C16.5009 7.84146 16.6339 7.4357 16.6943 6.98628C16.7515 6.5605 16.7515 6.02417 16.7515 5.38098V5.30652C16.7515 4.66333 16.7515 4.12697 16.6943 3.70119C16.6339 3.25177 16.5009 2.84602 16.1749 2.51996C15.8488 2.19391 15.4431 2.06099 14.9937 2.00057C14.5679 1.94332 14.0315 1.94334 13.3884 1.94336H13.3139ZM11.2866 3.27926C11.3799 3.18597 11.5213 3.10921 11.8516 3.0648C12.1974 3.01831 12.661 3.01716 13.3511 3.01716C14.0412 3.01716 14.5048 3.01831 14.8506 3.0648C15.1809 3.10921 15.3223 3.18597 15.4156 3.27926C15.5089 3.37255 15.5856 3.51393 15.6301 3.84427C15.6765 4.19006 15.6777 4.65363 15.6777 5.34374C15.6777 6.03384 15.6765 6.49741 15.6301 6.8432C15.5856 7.17355 15.5089 7.31493 15.4156 7.40822C15.3223 7.50151 15.1809 7.57827 14.8506 7.62268C14.5048 7.66917 14.0412 7.67031 13.3511 7.67031C12.661 7.67031 12.1974 7.66917 11.8516 7.62268C11.5213 7.57827 11.3799 7.50151 11.2866 7.40822C11.1933 7.31493 11.1166 7.17355 11.0722 6.8432C11.0257 6.49741 11.0245 6.03384 11.0245 5.34374C11.0245 4.65363 11.0257 4.19006 11.0722 3.84427C11.1166 3.51393 11.1933 3.37255 11.2866 3.27926Z" fill="#ABACB0"/>
</svg>
