<svg width="28" height="29" viewBox="0 0 28 29" fill="none" xmlns="http://www.w3.org/2000/svg">
<path d="M20.5103 12.791C20.6489 12.3753 20.7875 11.9595 20.7875 11.4052C20.7875 8.35633 18.293 5.86182 15.2442 5.86182C13.1654 5.86182 11.2252 7.10907 10.3937 8.91067C9.97795 8.77208 9.42362 8.6335 9.00787 8.6335C7.06769 8.6335 5.54326 10.1579 5.54326 12.0981C5.54326 12.3753 5.54326 12.6524 5.68185 12.791C3.18734 13.2068 1.38574 15.1469 1.38574 17.6415C1.38574 20.2746 3.60309 22.4919 6.23619 22.4919H20.0946C22.7277 22.4919 24.945 20.2746 24.945 17.6415C24.945 15.1469 23.0049 13.0682 20.5103 12.791ZM11.7795 20.9675L7.34486 16.5328L9.28503 14.5926L11.7795 17.0871L17.0457 11.8209L18.9859 13.7611L11.7795 20.9675Z" fill="#034AA6"/>
</svg>
