<svg width="18" height="18" viewBox="0 0 18 18" fill="none" xmlns="http://www.w3.org/2000/svg">
<g clip-path="url(#clip0_2128_6202)">
<path fill-rule="evenodd" clip-rule="evenodd" d="M5.35015 1.46485C5.37075 1.46485 5.39162 1.46486 5.41279 1.46486L5.43839 1.46485C5.68169 1.46484 5.83825 1.46483 5.99132 1.47914C6.6499 1.54073 7.2746 1.79949 7.78383 2.22162C7.90219 2.31974 8.01289 2.43045 8.18492 2.60251L8.58396 3.00155C9.16945 3.58704 9.39456 3.8056 9.65456 3.95026C9.80549 4.03424 9.96559 4.10055 10.1317 4.1479C10.4178 4.22946 10.7316 4.23409 11.5596 4.23409L11.8535 4.23409C12.7348 4.23407 13.4452 4.23406 14.0073 4.30473C14.5898 4.37797 15.0848 4.53425 15.4914 4.89997C15.5595 4.96122 15.6243 5.02603 15.6855 5.09413C16.0513 5.50076 16.2075 5.99571 16.2808 6.57824C16.3514 7.14031 16.3514 7.85074 16.3514 8.732V10.3308C16.3514 11.6031 16.3514 12.6109 16.2454 13.3996C16.1363 14.2112 15.9064 14.8682 15.3883 15.3863C14.8702 15.9044 14.2132 16.1343 13.4015 16.2435C12.6128 16.3495 11.6051 16.3495 10.3328 16.3495H7.48545C6.21315 16.3495 5.2054 16.3495 4.41672 16.2435C3.60504 16.1343 2.94807 15.9044 2.42998 15.3863C1.91188 14.8682 1.68195 14.2112 1.57282 13.3996C1.46679 12.6109 1.4668 11.6031 1.46681 10.3308L1.46681 5.41083C1.46681 5.38967 1.46681 5.36879 1.4668 5.3482C1.46672 4.79718 1.46668 4.44651 1.52382 4.14362C1.77481 2.81338 2.81533 1.77285 4.14558 1.52187C4.44846 1.46472 4.79914 1.46477 5.35015 1.46485ZM5.41279 2.50332C4.77819 2.50332 4.53284 2.50559 4.33811 2.54233C3.42794 2.71405 2.716 3.42599 2.54428 4.33616C2.50754 4.53089 2.50527 4.77624 2.50527 5.41083V10.2918C2.50527 11.6119 2.50637 12.5497 2.60203 13.2612C2.69567 13.9577 2.87129 14.359 3.16428 14.652C3.45727 14.945 3.85856 15.1206 4.55509 15.2143C5.26655 15.3099 6.20439 15.311 7.5245 15.311H10.2937C11.6138 15.311 12.5517 15.3099 13.2631 15.2143C13.9597 15.1206 14.361 14.945 14.654 14.652C14.9469 14.359 15.1226 13.9577 15.2162 13.2612C15.3119 12.5497 15.313 11.6119 15.313 10.2918V8.76725C15.313 7.84243 15.312 7.1975 15.2504 6.70778C15.1905 6.23102 15.0804 5.97423 14.9134 5.78858C14.8767 5.74772 14.8378 5.70883 14.7969 5.67208C14.6113 5.50509 14.3545 5.39502 13.8777 5.33508C13.388 5.27351 12.7431 5.27255 11.8183 5.27255H11.5596C11.5338 5.27255 11.5084 5.27255 11.4832 5.27256C10.7577 5.27271 10.2898 5.2728 9.84703 5.14658C9.60426 5.07738 9.37027 4.98046 9.14968 4.85773C8.74731 4.63386 8.41654 4.30296 7.90363 3.78984C7.88586 3.77206 7.86787 3.75407 7.84966 3.73585L7.46871 3.35491C7.2726 3.15879 7.19757 3.0845 7.12109 3.02111C6.77267 2.73227 6.34524 2.55523 5.89463 2.51309C5.79572 2.50384 5.69014 2.50332 5.41279 2.50332ZM9.08219 7.52255C9.08219 7.23578 9.31466 7.00332 9.60142 7.00332H13.063C13.3497 7.00332 13.5822 7.23578 13.5822 7.52255C13.5822 7.80931 13.3497 8.04178 13.063 8.04178H9.60142C9.31466 8.04178 9.08219 7.80931 9.08219 7.52255Z" fill="white"/>
</g>
<defs>
<clipPath id="clip0_2128_6202">
<rect width="16.6154" height="16.6154" fill="white" transform="translate(0.600586 0.599609)"/>
</clipPath>
</defs>
</svg>
