<svg width="15" height="14" viewBox="0 0 15 14" fill="none" xmlns="http://www.w3.org/2000/svg">
<g clip-path="url(#clip0_1630_4913)">
<path d="M3.59096 8.58589H3.02076C2.71831 8.58589 2.42825 8.46574 2.21438 8.25188C2.00052 8.03801 1.88037 7.74795 1.88037 7.4455V2.31373C1.88037 2.01128 2.00052 1.72122 2.21438 1.50735C2.42825 1.29349 2.71831 1.17334 3.02076 1.17334H8.15253C8.45498 1.17334 8.74504 1.29349 8.95891 1.50735C9.17277 1.72122 9.29292 2.01128 9.29292 2.31373V2.88393M7.01214 5.16471H12.1439C12.7737 5.16471 13.2843 5.67528 13.2843 6.3051V11.4369C13.2843 12.0667 12.7737 12.5773 12.1439 12.5773H7.01214C6.38231 12.5773 5.87174 12.0667 5.87174 11.4369V6.3051C5.87174 5.67528 6.38231 5.16471 7.01214 5.16471Z" stroke="#034AA6" stroke-width="1.36847" stroke-linecap="round" stroke-linejoin="round"/>
</g>
<defs>
<clipPath id="clip0_1630_4913">
<rect width="13.6847" height="13.6847" fill="white" transform="translate(0.740234 0.0332031)"/>
</clipPath>
</defs>
</svg>
