<svg width="24" height="22" viewBox="0 0 24 22" fill="none" xmlns="http://www.w3.org/2000/svg">
<path d="M0 3.4375C0 2.52582 0.395088 1.65148 1.09835 1.00682C1.80161 0.362164 2.75544 0 3.75 0H17.25C18.2446 0 19.1984 0.362164 19.9016 1.00682C20.6049 1.65148 21 2.52582 21 3.4375V9.075C20.2912 8.74222 19.5332 8.50598 18.75 8.37375V3.4375C18.75 3.07283 18.592 2.72309 18.3107 2.46523C18.0294 2.20737 17.6478 2.0625 17.25 2.0625H3.75C3.35218 2.0625 2.97064 2.20737 2.68934 2.46523C2.40804 2.72309 2.25 3.07283 2.25 3.4375V15.8125C2.25 16.1772 2.40804 16.5269 2.68934 16.7848C2.97064 17.0426 3.35218 17.1875 3.75 17.1875H9.135C9.27925 17.9054 9.53696 18.6003 9.9 19.25H3.75C2.75544 19.25 1.80161 18.8878 1.09835 18.2432C0.395088 17.5985 0 16.7242 0 15.8125V3.4375ZM24 15.8125C24 17.4535 23.2888 19.0273 22.023 20.1877C20.7571 21.3481 19.0402 22 17.25 22C15.4598 22 13.7429 21.3481 12.477 20.1877C11.2112 19.0273 10.5 17.4535 10.5 15.8125C10.5 14.1715 11.2112 12.5977 12.477 11.4373C13.7429 10.2769 15.4598 9.625 17.25 9.625C19.0402 9.625 20.7571 10.2769 22.023 11.4373C23.2888 12.5977 24 14.1715 24 15.8125ZM18 13.0625C18 12.8802 17.921 12.7053 17.7803 12.5764C17.6397 12.4474 17.4489 12.375 17.25 12.375C17.0511 12.375 16.8603 12.4474 16.7197 12.5764C16.579 12.7053 16.5 12.8802 16.5 13.0625V15.125H14.25C14.0511 15.125 13.8603 15.1974 13.7197 15.3264C13.579 15.4553 13.5 15.6302 13.5 15.8125C13.5 15.9948 13.579 16.1697 13.7197 16.2986C13.8603 16.4276 14.0511 16.5 14.25 16.5H16.5V18.5625C16.5 18.7448 16.579 18.9197 16.7197 19.0486C16.8603 19.1776 17.0511 19.25 17.25 19.25C17.4489 19.25 17.6397 19.1776 17.7803 19.0486C17.921 18.9197 18 18.7448 18 18.5625V16.5H20.25C20.4489 16.5 20.6397 16.4276 20.7803 16.2986C20.921 16.1697 21 15.9948 21 15.8125C21 15.6302 20.921 15.4553 20.7803 15.3264C20.6397 15.1974 20.4489 15.125 20.25 15.125H18V13.0625Z" fill="white"/>
</svg>
