<svg width="14" height="14" viewBox="0 0 14 14" fill="none" xmlns="http://www.w3.org/2000/svg">
<g clip-path="url(#clip0_2128_6208)">
<path d="M7.00065 10.033C7.2314 10.033 7.45696 9.96462 7.64882 9.83642C7.84067 9.70823 7.99021 9.52602 8.07851 9.31284C8.16681 9.09966 8.18992 8.86508 8.1449 8.63877C8.09989 8.41246 7.98877 8.20458 7.82561 8.04142C7.66245 7.87825 7.45457 7.76714 7.22826 7.72212C7.00195 7.67711 6.76737 7.70021 6.55419 7.78851C6.34101 7.87682 6.1588 8.02635 6.0306 8.21821C5.90241 8.41007 5.83399 8.63563 5.83399 8.86637C5.83399 9.17579 5.9569 9.47254 6.17569 9.69133C6.39449 9.91012 6.69123 10.033 7.00065 10.033ZM7.00065 11.783C6.76991 11.783 6.54434 11.8515 6.35249 11.9797C6.16063 12.1079 6.01109 12.2901 5.92279 12.5032C5.83449 12.7164 5.81139 12.951 5.8564 13.1773C5.90142 13.4036 6.01253 13.6115 6.17569 13.7747C6.33886 13.9378 6.54674 14.0489 6.77305 14.094C6.99936 14.139 7.23394 14.1159 7.44712 14.0276C7.6603 13.9393 7.84251 13.7897 7.9707 13.5979C8.0989 13.406 8.16732 13.1805 8.16732 12.9497C8.16732 12.6403 8.0444 12.3435 7.82561 12.1248C7.60682 11.906 7.31007 11.783 7.00065 11.783Z" fill="#888888"/>
<path d="M7.00065 5.83333C7.2314 5.83333 7.45696 5.76491 7.64882 5.63672C7.84067 5.50852 7.99021 5.32631 8.07851 5.11313C8.16681 4.89995 8.18992 4.66537 8.1449 4.43906C8.09989 4.21275 7.98877 4.00487 7.82561 3.84171C7.66245 3.67855 7.45457 3.56743 7.22826 3.52242C7.00195 3.4774 6.76737 3.50051 6.55419 3.58881C6.34101 3.67711 6.1588 3.82664 6.0306 4.0185C5.90241 4.21036 5.83399 4.43592 5.83399 4.66667C5.83399 4.97609 5.9569 5.27283 6.17569 5.49163C6.39449 5.71042 6.69123 5.83333 7.00065 5.83333ZM7.00065 7.58333C6.76991 7.58333 6.54434 7.65176 6.35249 7.77995C6.16063 7.90815 6.01109 8.09036 5.92279 8.30354C5.83449 8.51672 5.81139 8.7513 5.8564 8.97761C5.90142 9.20392 6.01253 9.4118 6.17569 9.57496C6.33886 9.73812 6.54674 9.84923 6.77305 9.89425C6.99936 9.93927 7.23394 9.91616 7.44712 9.82786C7.6603 9.73956 7.84251 9.59002 7.9707 9.39817C8.0989 9.20631 8.16732 8.98075 8.16732 8.75C8.16732 8.44058 8.0444 8.14384 7.82561 7.92504C7.60682 7.70625 7.31007 7.58333 7.00065 7.58333Z" fill="#888888"/>
</g>
<defs>
<clipPath id="clip0_2128_6208">
<rect width="14" height="14" fill="white"/>
</clipPath>
</defs>
</svg>
