<svg width="21" height="21" viewBox="0 0 21 21" fill="none" xmlns="http://www.w3.org/2000/svg">
<rect x="0.788086" y="0.475098" width="19.7103" height="19.7103" rx="4.38007" fill="url(#paint0_linear_2128_6325)"/>
<path d="M15.0727 14.1123L13.38 12.4333C14.037 11.614 14.3552 10.5742 14.2691 9.5275C14.183 8.48085 13.6992 7.50696 12.9171 6.80608C12.135 6.10521 11.1141 5.73062 10.0643 5.75935C9.01452 5.78808 8.01562 6.21793 7.27303 6.96053C6.53043 7.70312 6.10058 8.70202 6.07185 9.75181C6.04312 10.8016 6.41771 11.8225 7.11858 12.6046C7.81946 13.3867 8.79335 13.8705 9.84 13.9566C10.8867 14.0427 11.9265 13.7245 12.7458 13.0675L14.4248 14.7465C14.4672 14.7893 14.5177 14.8232 14.5733 14.8464C14.6289 14.8695 14.6885 14.8815 14.7487 14.8815C14.809 14.8815 14.8686 14.8695 14.9242 14.8464C14.9798 14.8232 15.0303 14.7893 15.0727 14.7465C15.1549 14.6614 15.2009 14.5477 15.2009 14.4294C15.2009 14.3111 15.1549 14.1974 15.0727 14.1123ZM10.1862 13.0675C9.55449 13.0675 8.937 12.8802 8.41179 12.5292C7.88657 12.1783 7.47721 11.6795 7.23548 11.0959C6.99375 10.5123 6.9305 9.87013 7.05373 9.25059C7.17697 8.63105 7.48115 8.06197 7.92781 7.61531C8.37447 7.16865 8.94355 6.86447 9.56309 6.74123C10.1826 6.618 10.8248 6.68125 11.4084 6.92298C11.992 7.16471 12.4908 7.57407 12.8417 8.09929C13.1927 8.6245 13.38 9.24199 13.38 9.87367C13.38 10.7207 13.0435 11.5331 12.4445 12.132C11.8456 12.731 11.0332 13.0675 10.1862 13.0675Z" fill="white"/>
<defs>
<linearGradient id="paint0_linear_2128_6325" x1="10.6433" y1="0.475098" x2="10.6433" y2="20.1854" gradientUnits="userSpaceOnUse">
<stop stop-color="#00CCFF"/>
<stop offset="1" stop-color="#034AA6"/>
</linearGradient>
</defs>
</svg>
