<svg width="22" height="22" viewBox="0 0 22 22" fill="none" xmlns="http://www.w3.org/2000/svg">
<rect x="0.886719" y="0.830078" width="21" height="21" rx="4" fill="#034AA6"/>
<path fill-rule="evenodd" clip-rule="evenodd" d="M6.76977 7.22656H10.3603C10.6424 7.22656 10.8732 7.45738 10.8732 7.73949C10.8732 8.02161 10.6424 8.25242 10.3603 8.25242H6.76977C6.48765 8.25242 6.25684 8.02161 6.25684 7.73949C6.25684 7.45738 6.48765 7.22656 6.76977 7.22656ZM8.30856 10.8171H10.3603C10.6424 10.8171 10.8732 11.0479 10.8732 11.33C10.8732 11.6121 10.6424 11.8429 10.3603 11.8429H8.30856C8.02645 11.8429 7.79563 11.6121 7.79563 11.33C7.79563 11.0479 8.02645 10.8171 8.30856 10.8171ZM10.3603 14.4076H9.33442C9.05231 14.4076 8.82149 14.6384 8.82149 14.9205C8.82149 15.2026 9.05231 15.4335 9.33442 15.4335H10.3603C10.6424 15.4335 10.8732 15.2026 10.8732 14.9205C10.8732 14.6384 10.6424 14.4076 10.3603 14.4076ZM14.9768 13.712L15.6461 13.0657C15.8503 12.8692 16.175 12.8749 16.3714 13.0785C16.5684 13.2826 16.5627 13.6073 16.3591 13.8038L14.8203 15.2897C14.7203 15.3851 14.5921 15.4334 14.4638 15.4334C14.3325 15.4334 14.2012 15.3836 14.1012 15.2831L12.5624 13.7443C12.3618 13.5442 12.3618 13.2195 12.5624 13.019C12.7624 12.8189 13.0871 12.8189 13.2877 13.019L13.9509 13.6822V8.94837L13.2815 9.59415C13.0779 9.79112 12.7532 9.78496 12.5562 9.58133C12.3593 9.37769 12.3649 9.05301 12.5686 8.85604L14.1073 7.37008C14.3094 7.17722 14.629 7.17824 14.8265 7.37675L16.3653 8.91554C16.5653 9.1161 16.5653 9.44078 16.3653 9.64083C16.2652 9.74136 16.1339 9.79112 16.0026 9.79112C15.8713 9.79112 15.74 9.74136 15.64 9.64083L14.9768 8.97761V13.712Z" fill="white"/>
<mask id="mask0_2142_6093" style="mask-type:luminance" maskUnits="userSpaceOnUse" x="6" y="7" width="11" height="9">
<path fill-rule="evenodd" clip-rule="evenodd" d="M6.76977 7.22656H10.3603C10.6424 7.22656 10.8732 7.45738 10.8732 7.73949C10.8732 8.02161 10.6424 8.25242 10.3603 8.25242H6.76977C6.48765 8.25242 6.25684 8.02161 6.25684 7.73949C6.25684 7.45738 6.48765 7.22656 6.76977 7.22656ZM8.30856 10.8171H10.3603C10.6424 10.8171 10.8732 11.0479 10.8732 11.33C10.8732 11.6121 10.6424 11.8429 10.3603 11.8429H8.30856C8.02645 11.8429 7.79563 11.6121 7.79563 11.33C7.79563 11.0479 8.02645 10.8171 8.30856 10.8171ZM10.3603 14.4076H9.33442C9.05231 14.4076 8.82149 14.6384 8.82149 14.9205C8.82149 15.2026 9.05231 15.4335 9.33442 15.4335H10.3603C10.6424 15.4335 10.8732 15.2026 10.8732 14.9205C10.8732 14.6384 10.6424 14.4076 10.3603 14.4076ZM14.9768 13.712L15.6461 13.0657C15.8503 12.8692 16.175 12.8749 16.3714 13.0785C16.5684 13.2826 16.5627 13.6073 16.3591 13.8038L14.8203 15.2897C14.7203 15.3851 14.5921 15.4334 14.4638 15.4334C14.3325 15.4334 14.2012 15.3836 14.1012 15.2831L12.5624 13.7443C12.3618 13.5442 12.3618 13.2195 12.5624 13.019C12.7624 12.8189 13.0871 12.8189 13.2877 13.019L13.9509 13.6822V8.94837L13.2815 9.59415C13.0779 9.79112 12.7532 9.78496 12.5562 9.58133C12.3593 9.37769 12.3649 9.05301 12.5686 8.85604L14.1073 7.37008C14.3094 7.17722 14.629 7.17824 14.8265 7.37675L16.3653 8.91554C16.5653 9.1161 16.5653 9.44078 16.3653 9.64083C16.2652 9.74136 16.1339 9.79112 16.0026 9.79112C15.8713 9.79112 15.74 9.74136 15.64 9.64083L14.9768 8.97761V13.712Z" fill="white"/>
</mask>
<g mask="url(#mask0_2142_6093)">
<rect x="5.23145" y="5.1748" width="12.3103" height="8.05833" fill="white"/>
</g>
</svg>
