<svg width="23" height="23" viewBox="0 0 23 23" fill="none" xmlns="http://www.w3.org/2000/svg">
<path fill-rule="evenodd" clip-rule="evenodd" d="M5.05187 2.428C5.05187 2.42798 5.05188 2.42803 5.05187 2.428C5.00919 2.21262 4.81981 2.05737 4.60021 2.05811C4.38056 2.05885 4.19226 2.21517 4.15109 2.43092L4.15078 2.43249L4.14903 2.44129C4.14737 2.44951 4.14472 2.46237 4.14108 2.47934C4.13379 2.51332 4.12254 2.56364 4.10722 2.62628C4.07648 2.75202 4.02994 2.92505 3.96698 3.11396C3.83421 3.51238 3.65332 3.90321 3.4457 4.11224C3.23808 4.32126 2.84848 4.50479 2.45096 4.64025C2.26248 4.70448 2.08978 4.75219 1.96424 4.78378C1.90171 4.79952 1.85147 4.81111 1.81754 4.81863C1.80059 4.82239 1.78775 4.82512 1.77954 4.82684L1.77076 4.82865L1.76931 4.82894C1.55385 4.87157 1.39867 5.06095 1.39942 5.2806C1.40016 5.50025 1.55648 5.68856 1.77222 5.72973L1.7738 5.73004L1.78259 5.73179C1.79082 5.73345 1.80367 5.73609 1.82065 5.73974C1.85463 5.74703 1.90494 5.75828 1.96759 5.77359C2.09333 5.80434 2.26635 5.85088 2.45526 5.91383C2.85369 6.04661 3.24452 6.2275 3.45354 6.43512C3.66257 6.64274 3.8461 7.03233 3.98156 7.42985C4.04579 7.61833 4.0935 7.79104 4.12509 7.91657C4.14083 7.97911 4.15242 8.02935 4.15994 8.06328C4.1637 8.08023 4.16643 8.09306 4.16815 8.10128L4.16996 8.11006L4.17025 8.1115C4.21287 8.32697 4.40226 8.48214 4.62191 8.4814C4.84156 8.48066 5.02987 8.32434 5.07104 8.10859L5.07134 8.10701L5.0731 8.09822C5.07476 8.08999 5.0774 8.07714 5.08105 8.06017C5.08834 8.02619 5.09959 7.97587 5.1149 7.91323C5.14564 7.78748 5.19219 7.61446 5.25514 7.42555C5.38791 7.02713 5.56881 6.6363 5.77643 6.42727C5.98405 6.21824 6.37364 6.03471 6.77116 5.89925C6.95964 5.83503 7.13235 5.78731 7.25788 5.75572C7.32042 5.73998 7.37066 5.72839 7.40459 5.72087C7.42154 5.71712 7.43437 5.71439 7.44259 5.71267L7.45137 5.71086L7.45281 5.71056C7.45276 5.71057 7.45286 5.71055 7.45281 5.71056C7.66817 5.66786 7.82345 5.47849 7.82271 5.2589C7.82196 5.03925 7.66565 4.85095 7.4499 4.80978L7.44832 4.80947L7.43953 4.80772C7.4313 4.80606 7.41845 4.80341 7.40148 4.79977C7.3675 4.79248 7.31718 4.78123 7.25454 4.76591C7.12879 4.73517 6.95577 4.68863 6.76686 4.62567C6.36843 4.4929 5.97761 4.31201 5.76858 4.10439C5.55955 3.89677 5.37602 3.50717 5.24056 3.10965C5.17633 2.92117 5.12862 2.74847 5.09703 2.62293C5.08129 2.5604 5.0697 2.51016 5.06218 2.47623C5.05843 2.45928 5.05569 2.44644 5.05398 2.43823L5.05217 2.42945L5.05187 2.428ZM5.89218 5.26543C5.61433 5.13489 5.33523 4.96729 5.12192 4.75543C4.90862 4.54356 4.73914 4.2656 4.60673 3.98864C4.4762 4.26649 4.3086 4.54559 4.09674 4.75889C3.88487 4.97219 3.60691 5.14168 3.32995 5.27408C3.6078 5.40461 3.8869 5.57221 4.1002 5.78408C4.3135 5.99595 4.48298 6.27391 4.61539 6.55087C4.74592 6.27302 4.91352 5.99392 5.12539 5.78062C5.33725 5.56731 5.61522 5.39783 5.89218 5.26543Z" fill="#77797E"/>
<path fill-rule="evenodd" clip-rule="evenodd" d="M17.4577 3.66393C17.8377 3.66393 18.1459 3.97205 18.1459 4.35214V4.58154H18.3753C18.7554 4.58154 19.0635 4.88967 19.0635 5.26975C19.0635 5.64984 18.7554 5.95796 18.3753 5.95796H18.1459V6.18737C18.1459 6.56745 17.8377 6.87558 17.4577 6.87558C17.0776 6.87558 16.7694 6.56745 16.7694 6.18737V5.95796H16.54C16.16 5.95796 15.8518 5.64984 15.8518 5.26975C15.8518 4.88967 16.16 4.58154 16.54 4.58154H16.7694V4.35214C16.7694 3.97205 17.0776 3.66393 17.4577 3.66393ZM11.0229 6.35279C10.7215 6.74639 10.379 7.35702 9.87383 8.26328L9.61824 8.72179C9.60175 8.75138 9.58542 8.78079 9.5692 8.81C9.33872 9.22519 9.13032 9.60057 8.79326 9.85645C8.45214 10.1154 8.03713 10.2085 7.5877 10.3093C7.55609 10.3164 7.52432 10.3235 7.49238 10.3307L6.99605 10.443C6.01343 10.6653 5.35675 10.8159 4.90968 10.9921C4.47558 11.1632 4.41741 11.2904 4.3954 11.3611C4.37106 11.4394 4.35096 11.5921 4.61142 12.0058C4.87657 12.427 5.32617 12.9555 5.9949 13.7375L6.33327 14.1332C6.35439 14.1579 6.3754 14.1824 6.39626 14.2067C6.70566 14.5673 6.98167 14.889 7.10849 15.2968C7.23445 15.7019 7.19266 16.1264 7.14525 16.608C7.14206 16.6405 7.13884 16.6732 7.13564 16.7062L7.08448 17.2341C6.98347 18.2765 6.91669 18.9832 6.93924 19.4895C6.96174 19.9946 7.06757 20.0969 7.11648 20.134C7.15415 20.1626 7.25526 20.2368 7.70719 20.1073C8.16796 19.9753 8.78432 19.6936 9.70441 19.27L10.1691 19.056C10.1996 19.042 10.23 19.0279 10.2602 19.014C10.6779 18.8206 11.0672 18.6404 11.4932 18.6404C11.9191 18.6404 12.3084 18.8206 12.7262 19.014C12.7563 19.0279 12.7867 19.042 12.8172 19.056L13.2819 19.27C14.202 19.6936 14.8184 19.9753 15.2791 20.1073C15.7311 20.2368 15.8322 20.1626 15.8699 20.134C15.9188 20.0969 16.0246 19.9946 16.0471 19.4895C16.0696 18.9832 16.0029 18.2765 15.9018 17.2341L15.8507 16.7062C15.8475 16.6732 15.8443 16.6405 15.8411 16.608C15.7937 16.1264 15.7519 15.7019 15.8778 15.2968C16.0047 14.889 16.2807 14.5673 16.5901 14.2067C16.6109 14.1824 16.6319 14.1579 16.6531 14.1332L16.9914 13.7375C17.6602 12.9555 18.1098 12.427 18.3749 12.0058C18.6354 11.5921 18.6153 11.4394 18.5909 11.3611C18.5689 11.2904 18.5107 11.1632 18.0766 10.9921C17.6296 10.8159 16.9729 10.6653 15.9903 10.443L15.4939 10.3307C15.462 10.3235 15.4302 10.3164 15.3986 10.3093C14.9492 10.2085 14.5342 10.1154 14.1931 9.85645C13.856 9.60057 13.6476 9.22519 13.4171 8.81C13.4009 8.78079 13.3846 8.75137 13.3681 8.72179L13.1125 8.26328C12.6073 7.35702 12.2649 6.74639 11.9635 6.35279C11.6624 5.95964 11.5324 5.95796 11.4932 5.95796C11.4539 5.95796 11.3239 5.95964 11.0229 6.35279ZM9.93007 5.51593C10.3076 5.02294 10.7939 4.58154 11.4932 4.58154C12.1925 4.58154 12.6787 5.02294 13.0563 5.51593C13.4262 5.99903 13.8167 6.69958 14.2871 7.54343L14.5703 8.05161C14.881 8.6089 14.9484 8.70172 15.0253 8.76014C15.0979 8.81527 15.1934 8.85149 15.7977 8.98823L16.351 9.11341C17.2616 9.31942 18.0237 9.4918 18.5813 9.71156C19.1635 9.94099 19.6991 10.2893 19.9053 10.9524C20.1091 11.608 19.8762 12.2047 19.5397 12.7391C19.2143 13.256 18.6969 13.8611 18.0739 14.5895L17.6991 15.0277C17.2903 15.5058 17.224 15.6032 17.1922 15.7056C17.1594 15.8109 17.1589 15.9362 17.2207 16.5735L17.2772 17.1563C17.3715 18.1298 17.4496 18.9349 17.4221 19.5507C17.3941 20.1792 17.2507 20.8139 16.7021 21.2303C16.1423 21.6553 15.4956 21.6011 14.9 21.4305C14.3253 21.2658 13.6122 20.9375 12.7598 20.5449L12.2415 20.3063C11.6734 20.0447 11.5775 20.0168 11.4932 20.0168C11.4088 20.0168 11.313 20.0447 10.7448 20.3063L10.2265 20.5449C9.37408 20.9375 8.66106 21.2658 8.08632 21.4305C7.49074 21.6011 6.84404 21.6553 6.28423 21.2303C5.73566 20.8139 5.59218 20.1792 5.56418 19.5507C5.53675 18.9349 5.61479 18.1298 5.70915 17.1563L5.76563 16.5735C5.82739 15.9362 5.8269 15.8109 5.79415 15.7056C5.76232 15.6032 5.69601 15.5058 5.28719 15.0277L4.91238 14.5894C4.28947 13.8611 3.77201 13.256 3.44659 12.7391C3.11016 12.2047 2.87719 11.608 3.08107 10.9524C3.28728 10.2893 3.82283 9.94099 4.40503 9.71156C4.96266 9.4918 5.72468 9.31942 6.63534 9.11341L7.18863 8.98823C7.79296 8.85149 7.88838 8.81527 7.96101 8.76014C8.03796 8.70172 8.10534 8.6089 8.416 8.05161L8.69928 7.54343C9.16964 6.69958 9.56012 5.99903 9.93007 5.51593Z" fill="#77797E"/>
</svg>
