<svg width="14" height="13" viewBox="0 0 14 13" fill="none" xmlns="http://www.w3.org/2000/svg">
<path d="M2.99609 3.85352H11.2701" stroke="#333333" stroke-width="0.93083" stroke-linecap="round" stroke-linejoin="round"/>
<path d="M6.09863 5.92188V9.02464" stroke="#333333" stroke-width="0.93083" stroke-linecap="round" stroke-linejoin="round"/>
<path d="M8.16699 5.92188V9.02464" stroke="#333333" stroke-width="0.93083" stroke-linecap="round" stroke-linejoin="round"/>
<path d="M3.5127 3.85352L4.02982 10.059C4.02982 10.3334 4.13879 10.5964 4.33275 10.7904C4.52671 10.9843 4.78978 11.0933 5.06408 11.0933H9.2011C9.4754 11.0933 9.73847 10.9843 9.93243 10.7904C10.1264 10.5964 10.2354 10.3334 10.2354 10.059L10.7525 3.85352" stroke="#333333" stroke-width="0.93083" stroke-linecap="round" stroke-linejoin="round"/>
<path d="M5.58203 3.85367V2.30228C5.58203 2.16513 5.63651 2.0336 5.73349 1.93662C5.83047 1.83964 5.96201 1.78516 6.09916 1.78516H8.16767C8.30482 1.78516 8.43635 1.83964 8.53333 1.93662C8.63032 2.0336 8.6848 2.16513 8.6848 2.30228V3.85367" stroke="#333333" stroke-width="0.93083" stroke-linecap="round" stroke-linejoin="round"/>
</svg>
