<svg width="8" height="13" viewBox="0 0 8 13" fill="none" xmlns="http://www.w3.org/2000/svg">
<path d="M0.909668 12.4304L0.981802 12.0473L1.43264 11.8831C1.60095 11.8345 1.73319 11.7493 1.82937 11.6277C1.93757 11.4939 2.0097 11.348 2.04577 11.1899L3.00154 6.02726C3.12176 5.35837 3.248 4.64083 3.38024 3.87464C3.52451 3.09629 3.65074 2.35443 3.75894 1.64905C3.79501 1.47878 3.76495 1.32068 3.66878 1.17474C3.58462 1.01664 3.45839 0.913266 3.29008 0.864619L2.96547 0.755163L3.05564 0.37207H7.29349L7.20332 0.755163L6.77052 0.901104C6.42187 0.998398 6.21749 1.22947 6.15738 1.59432L5.18358 6.77521C5.06336 7.4441 4.93712 8.16164 4.80488 8.92783C4.67263 9.69401 4.54039 10.4237 4.40815 11.1169C4.3841 11.2994 4.41416 11.4635 4.49831 11.6095C4.58247 11.7554 4.70269 11.8588 4.85898 11.9196L5.23768 12.0473L5.14751 12.4304H0.909668Z" fill="#A5A5A5"/>
</svg>
