<svg width="23" height="23" viewBox="0 0 23 23" fill="none" xmlns="http://www.w3.org/2000/svg">
<path fill-rule="evenodd" clip-rule="evenodd" d="M10.6005 3.64605C12.6028 1.63923 15.8337 1.27677 18.0653 3.02207C20.7383 5.1124 20.9136 9.00767 18.5911 11.3357L17.2854 12.6433C16.9247 13.0048 16.3411 13.0048 15.9805 12.6433C15.6199 12.2826 15.6199 11.6963 15.9805 11.3357L17.2854 10.0271C18.804 8.50665 18.7214 5.97862 17.0358 4.56733C15.5428 3.31663 13.302 3.55521 11.9265 4.93346L10.7584 6.10342C10.3987 6.46496 9.81323 6.46496 9.45353 6.10342C9.0929 5.7428 9.08923 5.16011 9.61594 4.63248L10.6005 3.64605ZM12.2203 8.59522L8.54989 12.2657C8.1911 12.6245 8.1911 13.2044 8.54989 13.5632C8.72882 13.7421 8.96373 13.832 9.19864 13.832C9.43355 13.832 9.66846 13.7421 9.84739 13.5632L13.5178 9.89272C13.8766 9.53394 13.8766 8.954 13.5178 8.59522C13.1591 8.23643 12.5791 8.23643 12.2203 8.59522ZM11.2914 16.0306L10.1224 17.1969C8.74503 18.5706 6.49963 18.8073 5.00575 17.5621C3.31826 16.1564 3.23476 13.6366 4.75525 12.1198L6.06284 10.8168C6.42347 10.4571 6.42347 9.87345 6.06284 9.51283C5.70222 9.15404 5.11679 9.15404 4.75525 9.51283L3.58529 10.681C1.59223 12.6685 1.24262 15.8655 2.9659 18.0898C5.0498 20.7811 8.95883 20.9628 11.2914 18.6376L12.599 17.3346C12.9596 16.9739 12.9596 16.3913 12.599 16.0306C12.2375 15.67 11.6529 15.67 11.2914 16.0306Z" fill="#666666"/>
<mask id="mask0_2128_6138" style="mask-type:luminance" maskUnits="userSpaceOnUse" x="1" y="1" width="20" height="20">
<path fill-rule="evenodd" clip-rule="evenodd" d="M10.6005 3.64605C12.6028 1.63923 15.8337 1.27677 18.0653 3.02207C20.7383 5.1124 20.9136 9.00767 18.5911 11.3357L17.2854 12.6433C16.9247 13.0048 16.3411 13.0048 15.9805 12.6433C15.6199 12.2826 15.6199 11.6963 15.9805 11.3357L17.2854 10.0271C18.804 8.50665 18.7214 5.97862 17.0358 4.56733C15.5428 3.31663 13.302 3.55521 11.9265 4.93346L10.7584 6.10342C10.3987 6.46496 9.81323 6.46496 9.45353 6.10342C9.0929 5.7428 9.08923 5.16011 9.61594 4.63248L10.6005 3.64605ZM12.2203 8.59522L8.54989 12.2657C8.1911 12.6245 8.1911 13.2044 8.54989 13.5632C8.72882 13.7421 8.96373 13.832 9.19864 13.832C9.43355 13.832 9.66846 13.7421 9.84739 13.5632L13.5178 9.89272C13.8766 9.53394 13.8766 8.954 13.5178 8.59522C13.1591 8.23643 12.5791 8.23643 12.2203 8.59522ZM11.2914 16.0306L10.1224 17.1969C8.74503 18.5706 6.49963 18.8073 5.00575 17.5621C3.31826 16.1564 3.23476 13.6366 4.75525 12.1198L6.06284 10.8168C6.42347 10.4571 6.42347 9.87345 6.06284 9.51283C5.70222 9.15404 5.11679 9.15404 4.75525 9.51283L3.58529 10.681C1.59223 12.6685 1.24262 15.8655 2.9659 18.0898C5.0498 20.7811 8.95883 20.9628 11.2914 18.6376L12.599 17.3346C12.9596 16.9739 12.9596 16.3913 12.599 16.0306C12.2375 15.67 11.6529 15.67 11.2914 16.0306Z" fill="white"/>
</mask>
<g mask="url(#mask0_2128_6138)">
<rect x="0.0224609" y="0.0678711" width="22.0227" height="22.0227" fill="#77797E"/>
</g>
</svg>
