<svg width="33" height="33" viewBox="0 0 33 33" fill="none" xmlns="http://www.w3.org/2000/svg">
<g filter="url(#filter0_d_2133_5562)">
<rect x="6.4541" y="3.89355" width="19.8577" height="19.8577" rx="2.48221" fill="white" shape-rendering="crispEdges"/>
<path fill-rule="evenodd" clip-rule="evenodd" d="M10.0215 17.2741V17.2096C10.0215 16.652 10.0215 16.1871 10.0711 15.818C10.1235 15.4284 10.2387 15.0767 10.5213 14.794C10.804 14.5114 11.1557 14.3962 11.5453 14.3438C11.9144 14.2942 12.3793 14.2942 12.9368 14.2942H19.8275C20.385 14.2942 20.85 14.2942 21.219 14.3438C21.6086 14.3962 21.9604 14.5114 22.243 14.794C22.5256 15.0767 22.6409 15.4284 22.6932 15.818C22.7429 16.1871 22.7428 16.652 22.7428 17.2096V17.2741C22.7428 17.8316 22.7429 18.2966 22.6932 18.6657C22.6409 19.0552 22.5256 19.407 22.243 19.6896C21.9604 19.9723 21.6086 20.0875 21.219 20.1399C20.85 20.1895 20.385 20.1895 19.8275 20.1895H12.9368C12.3793 20.1895 11.9144 20.1895 11.5453 20.1399C11.1557 20.0875 10.804 19.9723 10.5213 19.6896C10.2387 19.407 10.1235 19.0552 10.0711 18.6657C10.0215 18.2966 10.0215 17.8316 10.0215 17.2741ZM10.9936 18.5416C11.0321 18.828 11.0986 18.9506 11.1795 19.0314C11.2604 19.1123 11.3829 19.1788 11.6693 19.2173C11.969 19.2576 12.3709 19.2586 12.9691 19.2586H19.7952C20.3934 19.2586 20.7953 19.2576 21.095 19.2173C21.3814 19.1788 21.5039 19.1123 21.5848 19.0314C21.6657 18.9506 21.7322 18.828 21.7707 18.5416C21.811 18.2419 21.812 17.84 21.812 17.2418C21.812 16.6436 21.811 16.2418 21.7707 15.942C21.7322 15.6556 21.6657 15.5331 21.5848 15.4522C21.5039 15.3714 21.3814 15.3048 21.095 15.2663C20.7953 15.226 20.3934 15.225 19.7952 15.225H12.9691C12.3709 15.225 11.969 15.226 11.6693 15.2663C11.3829 15.3048 11.2604 15.3714 11.1795 15.4522C11.0986 15.5331 11.0321 15.6556 10.9936 15.942C10.9533 16.2418 10.9523 16.6436 10.9523 17.2418C10.9523 17.84 10.9533 18.2419 10.9936 18.5416Z" fill="#034AA6"/>
<path fill-rule="evenodd" clip-rule="evenodd" d="M10.0215 10.4356V10.371C10.0215 9.81349 10.0215 9.34855 10.0711 8.97946C10.1235 8.58988 10.2387 8.23815 10.5213 7.9555C10.804 7.67286 11.1557 7.55764 11.5453 7.50527C11.9144 7.45564 12.3793 7.45566 12.9368 7.45567H19.8275C20.385 7.45566 20.85 7.45564 21.219 7.50527C21.6086 7.55764 21.9604 7.67286 22.243 7.9555C22.5256 8.23815 22.6409 8.58988 22.6932 8.97946C22.7429 9.34855 22.7428 9.81348 22.7428 10.371V10.4356C22.7428 10.9931 22.7429 11.4581 22.6932 11.8271C22.6409 12.2167 22.5256 12.5685 22.243 12.8511C21.9604 13.1337 21.6086 13.249 21.219 13.3013C20.85 13.351 20.385 13.3509 19.8275 13.3509H12.9368C12.3793 13.3509 11.9144 13.351 11.5453 13.3013C11.1557 13.249 10.804 13.1337 10.5213 12.8511C10.2387 12.5685 10.1235 12.2167 10.0711 11.8271C10.0215 11.4581 10.0215 10.9931 10.0215 10.4356ZM10.9936 11.7031C11.0321 11.9895 11.0986 12.112 11.1795 12.1929C11.2604 12.2738 11.3829 12.3403 11.6693 12.3788C11.969 12.4191 12.3709 12.4201 12.9691 12.4201H19.7952C20.3934 12.4201 20.7953 12.4191 21.095 12.3788C21.3814 12.3403 21.5039 12.2738 21.5848 12.1929C21.6657 12.112 21.7322 11.9895 21.7707 11.7031C21.811 11.4034 21.812 11.0015 21.812 10.4033C21.812 9.80508 21.811 9.40324 21.7707 9.10349C21.7322 8.81713 21.6657 8.69457 21.5848 8.6137C21.5039 8.53283 21.3814 8.46629 21.095 8.42779C20.7953 8.38749 20.3934 8.38651 19.7952 8.38651H12.9691C12.3709 8.38651 11.969 8.38749 11.6693 8.42779C11.3829 8.46629 11.2604 8.53283 11.1795 8.6137C11.0986 8.69457 11.0321 8.81713 10.9936 9.10349C10.9533 9.40324 10.9523 9.80508 10.9523 10.4033C10.9523 11.0015 10.9533 11.4034 10.9936 11.7031Z" fill="#034AA6"/>
</g>
<defs>
<filter id="filter0_d_2133_5562" x="0.248568" y="0.170235" width="32.2685" height="32.269" filterUnits="userSpaceOnUse" color-interpolation-filters="sRGB">
<feFlood flood-opacity="0" result="BackgroundImageFix"/>
<feColorMatrix in="SourceAlpha" type="matrix" values="0 0 0 0 0 0 0 0 0 0 0 0 0 0 0 0 0 0 127 0" result="hardAlpha"/>
<feOffset dy="2.48221"/>
<feGaussianBlur stdDeviation="3.10277"/>
<feComposite in2="hardAlpha" operator="out"/>
<feColorMatrix type="matrix" values="0 0 0 0 0.843137 0 0 0 0 0.843137 0 0 0 0 0.843137 0 0 0 0.25 0"/>
<feBlend mode="normal" in2="BackgroundImageFix" result="effect1_dropShadow_2133_5562"/>
<feBlend mode="normal" in="SourceGraphic" in2="effect1_dropShadow_2133_5562" result="shape"/>
</filter>
</defs>
</svg>
