<svg width="45" height="46" viewBox="0 0 45 46" fill="none" xmlns="http://www.w3.org/2000/svg">
<g filter="url(#filter0_d_2400_12662)">
<rect x="8.5957" y="5.53613" width="27.4894" height="27.4894" rx="3.43617" fill="white" shape-rendering="crispEdges"/>
<path fill-rule="evenodd" clip-rule="evenodd" d="M13.5313 24.0589V23.9696C13.5312 23.1978 13.5312 22.5542 13.5999 22.0432C13.6724 21.5039 13.8319 21.017 14.2232 20.6257C14.6144 20.2345 15.1013 20.075 15.6406 20.0025C16.1516 19.9338 16.7952 19.9338 17.567 19.9338H27.1058C27.8777 19.9338 28.5213 19.9338 29.0322 20.0025C29.5715 20.075 30.0584 20.2345 30.4497 20.6257C30.841 21.017 31.0005 21.5039 31.073 22.0432C31.1417 22.5542 31.1417 23.1978 31.1416 23.9696V24.0589C31.1417 24.8308 31.1417 25.4744 31.073 25.9853C31.0005 26.5246 30.841 27.0115 30.4497 27.4028C30.0584 27.7941 29.5715 27.9536 29.0322 28.0261C28.5213 28.0948 27.8777 28.0948 27.1059 28.0947H17.567C16.7952 28.0948 16.1516 28.0948 15.6406 28.0261C15.1013 27.9536 14.6144 27.7941 14.2232 27.4028C13.8319 27.0115 13.6724 26.5246 13.5999 25.9853C13.5312 25.4744 13.5312 24.8308 13.5313 24.0589ZM14.877 25.8136C14.9303 26.21 15.0224 26.3797 15.1343 26.4917C15.2463 26.6036 15.4159 26.6957 15.8123 26.749C16.2273 26.8048 16.7836 26.8062 17.6117 26.8062H27.0612C27.8893 26.8062 28.4456 26.8048 28.8605 26.749C29.2569 26.6957 29.4266 26.6036 29.5386 26.4917C29.6505 26.3797 29.7426 26.21 29.7959 25.8136C29.8517 25.3987 29.8531 24.8424 29.8531 24.0143C29.8531 23.1861 29.8517 22.6299 29.7959 22.2149C29.7426 21.8185 29.6505 21.6488 29.5386 21.5369C29.4266 21.4249 29.2569 21.3328 28.8605 21.2795C28.4456 21.2238 27.8893 21.2224 27.0612 21.2224H17.6117C16.7836 21.2224 16.2273 21.2238 15.8123 21.2795C15.4159 21.3328 15.2463 21.4249 15.1343 21.5369C15.0224 21.6488 14.9303 21.8185 14.877 22.2149C14.8212 22.6299 14.8198 23.1861 14.8198 24.0143C14.8198 24.8424 14.8212 25.3987 14.877 25.8136Z" fill="#034AA6"/>
<path fill-rule="evenodd" clip-rule="evenodd" d="M13.5313 14.5923V14.5029C13.5312 13.7311 13.5312 13.0875 13.5999 12.5765C13.6724 12.0372 13.8319 11.5503 14.2232 11.1591C14.6144 10.7678 15.1013 10.6083 15.6406 10.5358C16.1516 10.4671 16.7952 10.4671 17.567 10.4671H27.1058C27.8777 10.4671 28.5213 10.4671 29.0322 10.5358C29.5715 10.6083 30.0584 10.7678 30.4497 11.1591C30.841 11.5503 31.0005 12.0372 31.073 12.5765C31.1417 13.0875 31.1417 13.7311 31.1416 14.5029V14.5923C31.1417 15.3641 31.1417 16.0077 31.073 16.5186C31.0005 17.058 30.841 17.5449 30.4497 17.9361C30.0584 18.3274 29.5715 18.4869 29.0322 18.5594C28.5213 18.6281 27.8777 18.6281 27.1059 18.628H17.567C16.7952 18.6281 16.1516 18.6281 15.6406 18.5594C15.1013 18.4869 14.6144 18.3274 14.2232 17.9361C13.8319 17.5449 13.6724 17.058 13.5999 16.5186C13.5312 16.0077 13.5312 15.3641 13.5313 14.5923ZM14.877 16.3469C14.9303 16.7434 15.0224 16.913 15.1343 17.025C15.2463 17.1369 15.4159 17.229 15.8123 17.2823C16.2273 17.3381 16.7836 17.3395 17.6117 17.3395H27.0612C27.8893 17.3395 28.4456 17.3381 28.8605 17.2823C29.2569 17.229 29.4266 17.1369 29.5386 17.025C29.6505 16.913 29.7426 16.7434 29.7959 16.3469C29.8517 15.932 29.8531 15.3757 29.8531 14.5476C29.8531 13.7195 29.8517 13.1632 29.7959 12.7482C29.7426 12.3518 29.6505 12.1822 29.5386 12.0702C29.4266 11.9583 29.2569 11.8662 28.8605 11.8129C28.4456 11.7571 27.8893 11.7557 27.0612 11.7557H17.6117C16.7836 11.7557 16.2273 11.7571 15.8123 11.8129C15.4159 11.8662 15.2463 11.9583 15.1343 12.0702C15.0224 12.1822 14.9303 12.3518 14.877 12.7482C14.8212 13.1632 14.8198 13.7195 14.8198 14.5476C14.8198 15.3757 14.8212 15.932 14.877 16.3469Z" fill="#034AA6"/>
</g>
<defs>
<filter id="filter0_d_2400_12662" x="0.00527859" y="0.381878" width="44.6711" height="44.6701" filterUnits="userSpaceOnUse" color-interpolation-filters="sRGB">
<feFlood flood-opacity="0" result="BackgroundImageFix"/>
<feColorMatrix in="SourceAlpha" type="matrix" values="0 0 0 0 0 0 0 0 0 0 0 0 0 0 0 0 0 0 127 0" result="hardAlpha"/>
<feOffset dy="3.43617"/>
<feGaussianBlur stdDeviation="4.29521"/>
<feComposite in2="hardAlpha" operator="out"/>
<feColorMatrix type="matrix" values="0 0 0 0 0.843137 0 0 0 0 0.843137 0 0 0 0 0.843137 0 0 0 0.25 0"/>
<feBlend mode="normal" in2="BackgroundImageFix" result="effect1_dropShadow_2400_12662"/>
<feBlend mode="normal" in="SourceGraphic" in2="effect1_dropShadow_2400_12662" result="shape"/>
</filter>
</defs>
</svg>
