<svg width="41" height="41" viewBox="0 0 41 41" fill="none" xmlns="http://www.w3.org/2000/svg">
<g filter="url(#filter0_d_2463_7691)">
<path fill-rule="evenodd" clip-rule="evenodd" d="M11.2207 22.0149V21.9202C11.2207 21.1019 11.2207 20.4195 11.2935 19.8777C11.3704 19.3059 11.5395 18.7897 11.9543 18.3748C12.3692 17.96 12.8854 17.7909 13.4572 17.714C13.999 17.6412 14.6813 17.6412 15.4997 17.6412H25.6134C26.4317 17.6412 27.1141 17.6412 27.6558 17.714C28.2277 17.7909 28.7439 17.96 29.1587 18.3748C29.5736 18.7897 29.7427 19.3059 29.8196 19.8777C29.8924 20.4195 29.8924 21.1019 29.8924 21.9202V22.0149C29.8924 22.8333 29.8924 23.5157 29.8196 24.0574C29.7427 24.6292 29.5736 25.1455 29.1587 25.5603C28.7439 25.9752 28.2277 26.1443 27.6558 26.2212C27.1141 26.294 26.4317 26.294 25.6134 26.2939H15.4997C14.6814 26.294 13.999 26.294 13.4572 26.2212C12.8854 26.1443 12.3692 25.9752 11.9543 25.5603C11.5395 25.1455 11.3704 24.6292 11.2935 24.0574C11.2207 23.5157 11.2207 22.8333 11.2207 22.0149ZM12.6475 23.8754C12.704 24.2957 12.8017 24.4756 12.9204 24.5943C13.0391 24.713 13.219 24.8106 13.6393 24.8671C14.0792 24.9263 14.669 24.9277 15.5471 24.9277H25.566C26.444 24.9277 27.0338 24.9263 27.4738 24.8671C27.8941 24.8106 28.074 24.713 28.1927 24.5943C28.3114 24.4756 28.409 24.2957 28.4655 23.8754C28.5247 23.4354 28.5261 22.8456 28.5261 21.9676C28.5261 21.0895 28.5247 20.4997 28.4655 20.0598C28.409 19.6395 28.3114 19.4596 28.1927 19.3409C28.074 19.2222 27.8941 19.1246 27.4738 19.068C27.0338 19.0089 26.444 19.0074 25.566 19.0074H15.5471C14.669 19.0074 14.0792 19.0089 13.6393 19.068C13.219 19.1246 13.0391 19.2222 12.9204 19.3409C12.8017 19.4596 12.704 19.6395 12.6475 20.0598C12.5884 20.4997 12.5869 21.0895 12.5869 21.9676C12.5869 22.8456 12.5884 23.4354 12.6475 23.8754Z" fill="#ABACB0"/>
<path fill-rule="evenodd" clip-rule="evenodd" d="M11.2207 11.9778V11.883C11.2207 11.0647 11.2207 10.3823 11.2935 9.84055C11.3704 9.26875 11.5395 8.7525 11.9543 8.33765C12.3692 7.9228 12.8854 7.75369 13.4572 7.67682C13.999 7.60398 14.6813 7.604 15.4997 7.60403H25.6134C26.4317 7.604 27.1141 7.60398 27.6558 7.67682C28.2277 7.75369 28.7439 7.9228 29.1587 8.33765C29.5736 8.7525 29.7427 9.26875 29.8196 9.84055C29.8924 10.3823 29.8924 11.0647 29.8924 11.883V11.9777C29.8924 12.7961 29.8924 13.4785 29.8196 14.0202C29.7427 14.592 29.5736 15.1083 29.1587 15.5231C28.7439 15.938 28.2277 16.1071 27.6558 16.184C27.1141 16.2568 26.4317 16.2568 25.6134 16.2568H15.4997C14.6814 16.2568 13.999 16.2568 13.4572 16.184C12.8854 16.1071 12.3692 15.938 11.9543 15.5231C11.5395 15.1083 11.3704 14.592 11.2935 14.0202C11.2207 13.4785 11.2207 12.7961 11.2207 11.9778ZM12.6475 13.8382C12.704 14.2585 12.8017 14.4384 12.9204 14.5571C13.0391 14.6758 13.219 14.7734 13.6393 14.8299C14.0792 14.8891 14.669 14.8905 15.5471 14.8905H25.566C26.444 14.8905 27.0338 14.8891 27.4738 14.8299C27.8941 14.7734 28.074 14.6758 28.1927 14.5571C28.3114 14.4384 28.409 14.2585 28.4655 13.8382C28.5247 13.3982 28.5261 12.8084 28.5261 11.9304C28.5261 11.0524 28.5247 10.4626 28.4655 10.0226C28.409 9.60229 28.3114 9.42241 28.1927 9.30371C28.074 9.18502 27.8941 9.08736 27.4738 9.03085C27.0338 8.9717 26.444 8.97025 25.566 8.97025H15.5471C14.669 8.97025 14.0792 8.9717 13.6393 9.03085C13.219 9.08736 13.0391 9.18502 12.9204 9.30371C12.8017 9.42241 12.704 9.60229 12.6475 10.0226C12.5884 10.4626 12.5869 11.0524 12.5869 11.9304C12.5869 12.8084 12.5884 13.3982 12.6475 13.8382Z" fill="#ABACB0"/>
</g>
<defs>
<filter id="filter0_d_2463_7691" x="-3.1218" y="-3.0889" width="47.3627" height="47.3627" filterUnits="userSpaceOnUse" color-interpolation-filters="sRGB">
<feFlood flood-opacity="0" result="BackgroundImageFix"/>
<feColorMatrix in="SourceAlpha" type="matrix" values="0 0 0 0 0 0 0 0 0 0 0 0 0 0 0 0 0 0 127 0" result="hardAlpha"/>
<feOffset dy="3.64325"/>
<feGaussianBlur stdDeviation="4.55406"/>
<feComposite in2="hardAlpha" operator="out"/>
<feColorMatrix type="matrix" values="0 0 0 0 0.843137 0 0 0 0 0.843137 0 0 0 0 0.843137 0 0 0 0.25 0"/>
<feBlend mode="normal" in2="BackgroundImageFix" result="effect1_dropShadow_2463_7691"/>
<feBlend mode="normal" in="SourceGraphic" in2="effect1_dropShadow_2463_7691" result="shape"/>
</filter>
</defs>
</svg>
