<svg width="28" height="29" viewBox="0 0 28 29" fill="none" xmlns="http://www.w3.org/2000/svg">
<path d="M23.3865 23.02L21.6542 21.2877V19.0479H19.9219V22.0049L22.1617 24.2448L23.3865 23.02Z" fill="#034AA6"/>
<path d="M20.7877 27.7092C17.4443 27.7092 14.7246 24.9895 14.7246 21.6462C14.7246 18.3028 17.4443 15.5831 20.7877 15.5831C24.131 15.5831 26.8507 18.3028 26.8507 21.6462C26.8507 24.9895 24.131 27.7092 20.7877 27.7092ZM20.7877 17.3154C18.3997 17.3154 16.4569 19.2582 16.4569 21.6462C16.4569 24.0342 18.3997 25.9769 20.7877 25.9769C23.1756 25.9769 25.1184 24.0342 25.1184 21.6462C25.1184 19.2582 23.1756 17.3154 20.7877 17.3154ZM24.2523 13.8508H25.9846V5.18933C25.9846 4.23397 25.2076 3.45703 24.2523 3.45703H21.6538V5.18933H24.2523V13.8508Z" fill="#034AA6"/>
<path d="M7.79578 13.8508C8.7525 13.8508 9.52808 13.0753 9.52808 12.1185C9.52808 11.1618 8.7525 10.3862 7.79578 10.3862C6.83905 10.3862 6.06348 11.1618 6.06348 12.1185C6.06348 13.0753 6.83905 13.8508 7.79578 13.8508Z" fill="#034AA6"/>
<path d="M13.8583 13.8508C14.815 13.8508 15.5906 13.0753 15.5906 12.1185C15.5906 11.1618 14.815 10.3862 13.8583 10.3862C12.9016 10.3862 12.126 11.1618 12.126 12.1185C12.126 13.0753 12.9016 13.8508 13.8583 13.8508Z" fill="#034AA6"/>
<path d="M19.9218 13.8508C20.8785 13.8508 21.6541 13.0753 21.6541 12.1185C21.6541 11.1618 20.8785 10.3862 19.9218 10.3862C18.965 10.3862 18.1895 11.1618 18.1895 12.1185C18.1895 13.0753 18.965 13.8508 19.9218 13.8508Z" fill="#034AA6"/>
<path d="M6.06317 20.78H3.46472C2.50936 20.78 1.73242 20.0031 1.73242 19.0477V5.18933C1.73242 4.23397 2.50936 3.45703 3.46472 3.45703H6.06317V5.18933H3.46472V19.0477H6.06317V20.78Z" fill="#034AA6"/>
</svg>
