<svg width="15" height="13" viewBox="0 0 15 13" fill="none" xmlns="http://www.w3.org/2000/svg">
<path d="M6.11359 3.10801C6.43867 3.06886 7.25948 3.08169 7.61733 3.08169V1.66307C7.61747 1.53759 7.65087 1.4144 7.71412 1.30603C7.77738 1.19767 7.86824 1.10801 7.97743 1.0462C8.08662 0.984386 8.21025 0.952625 8.33572 0.954154C8.46118 0.955683 8.584 0.990447 8.69166 1.0549L14.3662 4.45961C14.471 4.52273 14.5578 4.6119 14.6181 4.71846C14.6783 4.82503 14.71 4.94536 14.71 5.06777C14.71 5.19018 14.6783 5.31051 14.6181 5.41708C14.5578 5.52364 14.471 5.61282 14.3662 5.67594L8.69166 9.08064C8.584 9.1451 8.46118 9.17986 8.33572 9.18139C8.21025 9.18292 8.08662 9.15116 7.97743 9.08934C7.86824 9.02753 7.77738 8.93787 7.71412 8.82951C7.65087 8.72115 7.61747 8.59795 7.61733 8.47248V7.33757H6.1987C4.82973 7.33757 2.65923 8.54149 2.65923 11.7708C2.65888 11.9265 2.60729 12.0778 2.51244 12.2014C2.41758 12.3249 2.28472 12.4138 2.13434 12.4544C1.98396 12.495 1.82441 12.4849 1.6803 12.4259C1.53618 12.3668 1.4155 12.2619 1.33686 12.1275C0.825809 11.2443 0.547655 10.2456 0.528525 9.22536C0.509396 8.2051 0.749917 7.19673 1.2275 6.29495C1.70508 5.39318 2.40405 4.6276 3.25874 4.07013C4.11344 3.51265 5.09581 3.18158 6.11359 3.10801Z" fill="#A5A5A5"/>
</svg>
