<svg width="13" height="14" viewBox="0 0 13 14" fill="none" xmlns="http://www.w3.org/2000/svg">
<g clip-path="url(#clip0_1630_4914)">
<path d="M12.1756 2.77026V5.84932M12.1756 5.84932H9.09657M12.1756 5.84932L9.79449 3.61187C9.24295 3.06006 8.56062 2.65696 7.81116 2.44017C7.06169 2.22339 6.26953 2.2 5.50858 2.37217C4.74763 2.54434 4.0427 2.90648 3.45956 3.42478C2.87642 3.94308 2.43408 4.60065 2.17382 5.33615M0.885742 10.9811V7.90203M0.885742 7.90203H3.9648M0.885742 7.90203L3.26688 10.1395C3.81842 10.6913 4.50075 11.0944 5.25021 11.3112C5.99967 11.528 6.79183 11.5514 7.55278 11.3792C8.31373 11.207 9.01866 10.8449 9.6018 10.3266C10.1849 9.80827 10.6273 9.1507 10.8876 8.4152" stroke="#034AA6" stroke-width="1.28294" stroke-linecap="round" stroke-linejoin="round"/>
</g>
<defs>
<clipPath id="clip0_1630_4914">
<rect width="12.3162" height="12.3162" fill="white" transform="translate(0.372559 0.717285)"/>
</clipPath>
</defs>
</svg>
