<svg width="14" height="13" viewBox="0 0 14 13" fill="none" xmlns="http://www.w3.org/2000/svg">
<path d="M5.58173 4.03125H4.03035C3.75605 4.03125 3.49298 4.14022 3.29902 4.33418C3.10506 4.52814 2.99609 4.7912 2.99609 5.06551V9.71966C2.99609 9.99396 3.10506 10.257 3.29902 10.451C3.49298 10.6449 3.75605 10.7539 4.03035 10.7539H8.6845C8.9588 10.7539 9.22187 10.6449 9.41583 10.451C9.60979 10.257 9.71875 9.99396 9.71875 9.71966V8.16827" stroke="#333333" stroke-width="0.93083" stroke-linecap="round" stroke-linejoin="round"/>
<path d="M5.58203 8.16817H7.13341L11.529 3.77259C11.7347 3.56686 11.8503 3.28784 11.8503 2.9969C11.8503 2.70596 11.7347 2.42693 11.529 2.2212C11.3233 2.01548 11.0443 1.8999 10.7533 1.8999C10.4624 1.8999 10.1833 2.01548 9.97762 2.2212L5.58203 6.61679V8.16817Z" stroke="#333333" stroke-width="0.93083" stroke-linecap="round" stroke-linejoin="round"/>
<path d="M9.20117 2.99707L10.7526 4.54845" stroke="#333333" stroke-width="0.93083" stroke-linecap="round" stroke-linejoin="round"/>
</svg>
