<svg width="28" height="29" viewBox="0 0 28 29" fill="none" xmlns="http://www.w3.org/2000/svg">
<path d="M2.77148 6.93531C2.77148 6.01644 3.1365 5.1352 3.78624 4.48546C4.43598 3.83572 5.31722 3.4707 6.23609 3.4707H8.31485V6.93531C8.31485 7.48663 8.53386 8.01537 8.9237 8.40521C9.31355 8.79505 9.84229 9.01407 10.3936 9.01407H20.7874V18.022C20.7874 18.9409 20.4224 19.8221 19.7727 20.4719C19.1229 21.1216 18.2417 21.4866 17.3228 21.4866H6.23609C5.31722 21.4866 4.43598 21.1216 3.78624 20.4719C3.1365 19.8221 2.77148 18.9409 2.77148 18.022V6.93531ZM9.70069 6.93531V3.4707H17.3228C18.2417 3.4707 19.1229 3.83572 19.7727 4.48546C20.4224 5.1352 20.7874 6.01644 20.7874 6.93531V7.62823H10.3936C10.2098 7.62823 10.0336 7.55522 9.90364 7.42527C9.77369 7.29533 9.70069 7.11908 9.70069 6.93531ZM10.3936 25.6442C9.59491 25.6443 8.82069 25.3685 8.20197 24.8634C7.58325 24.3584 7.15804 23.655 6.9983 22.8725H17.3228C18.6092 22.8725 19.843 22.3614 20.7526 21.4518C21.6622 20.5422 22.1733 19.3084 22.1733 18.022V7.69752C22.9558 7.85726 23.6592 8.28247 24.1642 8.90119C24.6693 9.51991 24.9451 10.2941 24.9449 11.0928V20.1008C24.9449 21.571 24.3609 22.981 23.3213 24.0205C22.2817 25.0601 20.8718 25.6442 19.4016 25.6442H10.3936Z" fill="#034AA6"/>
</svg>
