<svg width="20" height="24" viewBox="0 0 20 24" fill="none" xmlns="http://www.w3.org/2000/svg">
<path d="M12.1678 0.0883789H2.92888C1.64697 0.0883789 0.619141 1.11621 0.619141 2.39811V20.876C0.619141 22.1579 1.64697 23.1857 2.92888 23.1857H16.7873C18.0692 23.1857 19.097 22.1579 19.097 20.876V7.01758L12.1678 0.0883789ZM8.70321 20.876H7.54834C5.68901 20.876 2.92888 19.6518 2.92888 16.2565C2.92888 12.8728 5.68901 11.6371 7.54834 11.6371H8.70321V13.9468H7.54834C7.01711 13.9468 5.23861 14.1431 5.23861 16.2565C5.23861 18.4508 7.16724 18.5663 7.54834 18.5663H8.70321V20.876ZM13.3227 15.1017V17.4114H6.39348V15.1017H13.3227ZM12.1678 20.876H11.0129V18.5663H12.1678C12.6991 18.5663 14.4775 18.3699 14.4775 16.2565C14.4775 14.0623 12.5489 13.9468 12.1678 13.9468H11.0129V11.6371H12.1678C14.0272 11.6371 16.7873 12.8728 16.7873 16.2565C16.7873 19.6518 14.0272 20.876 12.1678 20.876ZM11.0129 8.17245V1.82068L17.3647 8.17245H11.0129Z" fill="#034AA6"/>
</svg>
