<svg width="23" height="24" viewBox="0 0 23 24" fill="none" xmlns="http://www.w3.org/2000/svg">
<path fill-rule="evenodd" clip-rule="evenodd" d="M8.28143 2.13574C5.8742 2.13574 3.92276 4.08718 3.92276 6.49441C3.92276 8.90163 5.8742 10.8531 8.28143 10.8531C10.6887 10.8531 12.6401 8.90163 12.6401 6.49441C12.6401 4.08718 10.6887 2.13574 8.28143 2.13574ZM5.29918 6.49441C5.29918 4.84736 6.63438 3.51216 8.28143 3.51216C9.92848 3.51216 11.2637 4.84736 11.2637 6.49441C11.2637 8.14145 9.92848 9.47665 8.28143 9.47665C6.63438 9.47665 5.29918 8.14145 5.29918 6.49441Z" fill="white"/>
<path d="M13.7871 3.05336C13.407 3.05336 13.0989 3.36148 13.0989 3.74157C13.0989 4.12165 13.407 4.42978 13.7871 4.42978C14.9274 4.42978 15.8517 5.35414 15.8517 6.49441C15.8517 7.63467 14.9274 8.55904 13.7871 8.55904C13.407 8.55904 13.0989 8.86716 13.0989 9.24725C13.0989 9.62734 13.407 9.93546 13.7871 9.93546C15.6875 9.93546 17.2282 8.39485 17.2282 6.49441C17.2282 4.59397 15.6875 3.05336 13.7871 3.05336Z" fill="white"/>
<path fill-rule="evenodd" clip-rule="evenodd" d="M3.39802 13.3952C4.6821 12.6615 6.41011 12.2295 8.28143 12.2295C10.1527 12.2295 11.8808 12.6615 13.1648 13.3952C14.4294 14.1179 15.3929 15.221 15.3929 16.5882C15.3929 17.9553 14.4294 19.0585 13.1648 19.7811C11.8808 20.5149 10.1527 20.9468 8.28143 20.9468C6.41011 20.9468 4.6821 20.5149 3.39802 19.7811C2.13341 19.0585 1.16992 17.9553 1.16992 16.5882C1.16992 15.221 2.13341 14.1179 3.39802 13.3952ZM4.08092 14.5903C3.02075 15.1961 2.54634 15.9281 2.54634 16.5882C2.54634 17.2482 3.02075 17.9802 4.08092 18.586C5.12162 19.1807 6.60526 19.5704 8.28143 19.5704C9.95759 19.5704 11.4412 19.1807 12.4819 18.586C13.5421 17.9802 14.0165 17.2482 14.0165 16.5882C14.0165 15.9281 13.5421 15.1961 12.4819 14.5903C11.4412 13.9956 9.95759 13.6059 8.28143 13.6059C6.60526 13.6059 5.12162 13.9956 4.08092 14.5903Z" fill="white"/>
<path d="M16.6874 13.1631C16.3161 13.0817 15.9491 13.3166 15.8677 13.6879C15.7863 14.0592 16.0213 14.4261 16.3925 14.5076C17.1196 14.667 17.7007 14.9409 18.0842 15.2547C18.4682 15.5689 18.6046 15.8758 18.6046 16.1293C18.6046 16.3594 18.4939 16.6295 18.1888 16.9129C17.8815 17.1984 17.4094 17.4621 16.8003 17.6455C16.4364 17.7551 16.2302 18.139 16.3398 18.5029C16.4494 18.8669 16.8332 19.0731 17.1972 18.9635C17.952 18.7362 18.6268 18.3847 19.1256 17.9214C19.6266 17.456 19.981 16.8438 19.981 16.1293C19.981 15.3358 19.5458 14.6722 18.9558 14.1894C18.3654 13.7063 17.57 13.3566 16.6874 13.1631Z" fill="white"/>
</svg>
