<svg width="22" height="20" viewBox="0 0 22 20" fill="none" xmlns="http://www.w3.org/2000/svg">
<path d="M4.52941 0C3.67136 0 2.84845 0.309873 2.24171 0.861451C1.63498 1.41303 1.29412 2.16113 1.29412 2.94118V9.71412C1.69331 9.41448 2.12725 9.15531 2.58824 8.94118V2.94118C2.58824 2.47315 2.79275 2.02429 3.15679 1.69334C3.52083 1.36239 4.01458 1.17647 4.52941 1.17647H6.47059V2.94118C6.47059 3.40921 6.6751 3.85807 7.03915 4.18901C7.40319 4.51996 7.89693 4.70588 8.41177 4.70588H16.8235V12.3529C16.8235 12.821 16.619 13.2698 16.255 13.6008C15.8909 13.9317 15.3972 14.1176 14.8824 14.1176H12.9127C12.9514 14.509 12.9514 14.9028 12.9127 15.2941H14.8824C15.7404 15.2941 16.5633 14.9842 17.1701 14.4327C17.7768 13.8811 18.1176 13.133 18.1176 12.3529V2.94118C18.1176 2.16113 17.7768 1.41303 17.1701 0.861451C16.5633 0.309873 15.7404 0 14.8824 0H4.52941ZM16.8235 18.8235H11.3145C11.6419 18.4624 11.9279 18.0682 12.1647 17.6471H16.8235C17.8532 17.6471 18.8407 17.2752 19.5688 16.6133C20.2969 15.9514 20.7059 15.0537 20.7059 14.1176V6.47059C20.7061 6.1055 20.5817 5.74934 20.35 5.45119C20.1182 5.15304 19.7904 4.92758 19.4118 4.80588V3.58824C20.1425 3.72384 20.7993 4.08481 21.271 4.61006C21.7426 5.1353 22.0002 5.79256 22 6.47059V14.1176C22 15.3657 21.4546 16.5627 20.4838 17.4452C19.5131 18.3277 18.1964 18.8235 16.8235 18.8235ZM16.8235 2.94118V3.52941H8.41177C8.24015 3.52941 8.07557 3.46744 7.95423 3.35712C7.83288 3.24681 7.76471 3.09719 7.76471 2.94118V1.17647H14.8824C15.3972 1.17647 15.8909 1.36239 16.255 1.69334C16.619 2.02429 16.8235 2.47315 16.8235 2.94118ZM11.6471 14.7059C11.6471 16.11 11.0335 17.4565 9.94139 18.4494C8.84926 19.4422 7.36803 20 5.82353 20C4.27903 20 2.7978 19.4422 1.70567 18.4494C0.613549 17.4565 0 16.11 0 14.7059C0 13.3018 0.613549 11.9552 1.70567 10.9624C2.7978 9.96954 4.27903 9.41177 5.82353 9.41177C7.36803 9.41177 8.84926 9.96954 9.94139 10.9624C11.0335 11.9552 11.6471 13.3018 11.6471 14.7059ZM6.47059 12.3529C6.47059 12.1969 6.40242 12.0473 6.28107 11.937C6.15972 11.8267 5.99514 11.7647 5.82353 11.7647C5.65192 11.7647 5.48734 11.8267 5.36599 11.937C5.24464 12.0473 5.17647 12.1969 5.17647 12.3529V14.1176H3.23529C3.06368 14.1176 2.8991 14.1796 2.77775 14.2899C2.65641 14.4003 2.58824 14.5499 2.58824 14.7059C2.58824 14.8619 2.65641 15.0115 2.77775 15.1218C2.8991 15.2321 3.06368 15.2941 3.23529 15.2941H5.17647V17.0588C5.17647 17.2148 5.24464 17.3645 5.36599 17.4748C5.48734 17.5851 5.65192 17.6471 5.82353 17.6471C5.99514 17.6471 6.15972 17.5851 6.28107 17.4748C6.40242 17.3645 6.47059 17.2148 6.47059 17.0588V15.2941H8.41177C8.58338 15.2941 8.74796 15.2321 8.8693 15.1218C8.99065 15.0115 9.05882 14.8619 9.05882 14.7059C9.05882 14.5499 8.99065 14.4003 8.8693 14.2899C8.74796 14.1796 8.58338 14.1176 8.41177 14.1176H6.47059V12.3529Z" fill="url(#paint0_linear_1601_5734)"/>
<defs>
<linearGradient id="paint0_linear_1601_5734" x1="11" y1="0" x2="11" y2="20" gradientUnits="userSpaceOnUse">
<stop stop-color="#034AA6"/>
<stop offset="1" stop-color="#3F88DD"/>
</linearGradient>
</defs>
</svg>
