<svg width="18" height="18" viewBox="0 0 18 18" fill="none" xmlns="http://www.w3.org/2000/svg">
<path d="M10.2365 4.10801C9.91143 4.06886 9.09061 4.08169 8.73277 4.08169V2.66307C8.73263 2.53759 8.69923 2.4144 8.63597 2.30603C8.57272 2.19767 8.48186 2.10801 8.37267 2.0462C8.26347 1.98439 8.13985 1.95263 8.01438 1.95415C7.88891 1.95568 7.7661 1.99045 7.65844 2.0549L1.98393 5.45961C1.87905 5.52273 1.79228 5.6119 1.73204 5.71846C1.67179 5.82503 1.64014 5.94536 1.64014 6.06777C1.64014 6.19018 1.67179 6.31051 1.73204 6.41708C1.79228 6.52364 1.87905 6.61282 1.98393 6.67594L7.65844 10.0806C7.7661 10.1451 7.88891 10.1799 8.01438 10.1814C8.13985 10.1829 8.26347 10.1512 8.37267 10.0893C8.48186 10.0275 8.57272 9.93787 8.63597 9.82951C8.69923 9.72115 8.73263 9.59795 8.73277 9.47248V8.33757H10.1514C11.5204 8.33757 13.6909 9.54149 13.6909 12.7708C13.6912 12.9265 13.7428 13.0778 13.8377 13.2014C13.9325 13.3249 14.0654 13.4138 14.2158 13.4544C14.3661 13.495 14.5257 13.4849 14.6698 13.4259C14.8139 13.3668 14.9346 13.2619 15.0132 13.1275C15.5243 12.2443 15.8024 11.2456 15.8216 10.2254C15.8407 9.2051 15.6002 8.19673 15.1226 7.29495C14.645 6.39318 13.9461 5.6276 13.0914 5.07013C12.2367 4.51265 11.2543 4.18158 10.2365 4.10801Z" fill="#A5A5A5"/>
</svg>
