<svg width="35" height="35" viewBox="0 0 35 35" fill="none" xmlns="http://www.w3.org/2000/svg">
<path fill-rule="evenodd" clip-rule="evenodd" d="M17.5003 20.417H13.1253C12.3203 20.417 11.667 19.7637 11.667 18.9587C11.667 18.1537 12.3203 17.5003 13.1253 17.5003H17.5003C18.3053 17.5003 18.9586 18.1537 18.9586 18.9587C18.9586 19.7637 18.3053 20.417 17.5003 20.417ZM13.1253 23.3337H21.8753C22.6818 23.3337 23.3336 23.987 23.3336 24.792C23.3336 25.597 22.6818 26.2503 21.8753 26.2503H13.1253C12.3203 26.2503 11.667 25.597 11.667 24.792C11.667 23.987 12.3203 23.3337 13.1253 23.3337ZM25.4398 29.167H9.56003C9.11378 29.167 8.75065 28.8403 8.75065 28.4378V6.56283C8.75065 6.16033 9.11378 5.83366 9.56003 5.83366H17.5007V10.4274C17.5007 12.7199 19.2754 14.5837 21.4586 14.5837H26.2507V28.4378C26.2507 28.8403 25.8875 29.167 25.4398 29.167ZM20.4173 7.25995L24.4161 11.667H21.4586C20.884 11.667 20.4173 11.1114 20.4173 10.4274V7.25995ZM28.7882 12.1453L20.849 3.39533C20.5719 3.09053 20.1811 2.91699 19.7684 2.91699H9.56003C7.50523 2.91699 5.83398 4.55324 5.83398 6.56283V28.4378C5.83398 30.4474 7.50523 32.0837 9.56003 32.0837H25.4398C27.4946 32.0837 29.1673 30.4474 29.1673 28.4378V13.1253C29.1673 12.7622 29.0317 12.4137 28.7882 12.1453Z" fill="#231F20"/>
<mask id="mask0_2447_7137" style="mask-type:luminance" maskUnits="userSpaceOnUse" x="5" y="2" width="25" height="31">
<path fill-rule="evenodd" clip-rule="evenodd" d="M17.5003 20.417H13.1253C12.3203 20.417 11.667 19.7637 11.667 18.9587C11.667 18.1537 12.3203 17.5003 13.1253 17.5003H17.5003C18.3053 17.5003 18.9586 18.1537 18.9586 18.9587C18.9586 19.7637 18.3053 20.417 17.5003 20.417ZM13.1253 23.3337H21.8753C22.6818 23.3337 23.3336 23.987 23.3336 24.792C23.3336 25.597 22.6818 26.2503 21.8753 26.2503H13.1253C12.3203 26.2503 11.667 25.597 11.667 24.792C11.667 23.987 12.3203 23.3337 13.1253 23.3337ZM25.4398 29.167H9.56003C9.11378 29.167 8.75065 28.8403 8.75065 28.4378V6.56283C8.75065 6.16033 9.11378 5.83366 9.56003 5.83366H17.5007V10.4274C17.5007 12.7199 19.2754 14.5837 21.4586 14.5837H26.2507V28.4378C26.2507 28.8403 25.8875 29.167 25.4398 29.167ZM20.4173 7.25995L24.4161 11.667H21.4586C20.884 11.667 20.4173 11.1114 20.4173 10.4274V7.25995ZM28.7882 12.1453L20.849 3.39533C20.5719 3.09053 20.1811 2.91699 19.7684 2.91699H9.56003C7.50523 2.91699 5.83398 4.55324 5.83398 6.56283V28.4378C5.83398 30.4474 7.50523 32.0837 9.56003 32.0837H25.4398C27.4946 32.0837 29.1673 30.4474 29.1673 28.4378V13.1253C29.1673 12.7622 29.0317 12.4137 28.7882 12.1453Z" fill="white"/>
</mask>
<g mask="url(#mask0_2447_7137)">
<rect width="35" height="35" fill="#77797E"/>
</g>
</svg>
