<svg width="81" height="81" viewBox="0 0 81 81" fill="none" xmlns="http://www.w3.org/2000/svg">
<path fill-rule="evenodd" clip-rule="evenodd" d="M40.5 10.1246C49.2109 10.1246 56.8856 15.7305 59.6531 23.7765C67.8847 24.8936 74.25 31.9676 74.25 40.4996C74.25 44.6205 72.7515 48.5861 70.0312 51.6675C69.363 52.4201 68.4349 52.8083 67.5 52.8083C66.7069 52.8083 65.9104 52.5315 65.2657 51.9645C63.8719 50.7259 63.7369 48.5963 64.9721 47.1956C66.6022 45.3529 67.5 42.9701 67.5 40.4996C67.5 34.9174 62.9573 30.3746 57.375 30.3746H57.0375C55.431 30.3746 54.0473 29.2406 53.73 27.6645C52.4677 21.414 46.9057 16.8746 40.5 16.8746C34.0976 16.8746 28.5323 21.414 27.2734 27.6645C26.9561 29.2406 25.569 30.3746 23.9625 30.3746H23.625C18.0427 30.3746 13.5 34.9174 13.5 40.4996C13.5 42.9701 14.3977 45.3529 16.0312 47.1956C17.2631 48.5963 17.1315 50.7259 15.7343 51.9645C14.337 53.1998 12.204 53.0614 10.9721 51.6675C8.2485 48.5861 6.75 44.6205 6.75 40.4996C6.75 31.9676 13.1152 24.8936 21.3469 23.7765C24.1177 15.7305 31.7925 10.1246 40.5 10.1246ZM38.1565 38.0699C39.4862 36.8009 41.5888 36.8111 42.8882 38.1138L53.0132 48.2388C54.3328 49.5584 54.3328 51.6914 53.0132 53.0111C52.3551 53.6692 51.4911 53.9999 50.6271 53.9999C49.7631 53.9999 48.8991 53.6692 48.241 53.0111L43.8771 48.6472V67.4999C43.8771 69.3663 42.3651 70.8749 40.5021 70.8749C38.6391 70.8749 37.1271 69.3663 37.1271 67.4999V48.4514L32.7227 52.7039C31.3828 54.0033 29.2465 53.9594 27.9505 52.6196C26.6545 51.2763 26.6916 49.1433 28.0315 47.8473L38.1565 38.0699Z" fill="white"/>
<mask id="mask0_1202_4829" style="mask-type:luminance" maskUnits="userSpaceOnUse" x="6" y="10" width="69" height="61">
<path fill-rule="evenodd" clip-rule="evenodd" d="M40.5 10.1246C49.2109 10.1246 56.8856 15.7305 59.6531 23.7765C67.8847 24.8936 74.25 31.9676 74.25 40.4996C74.25 44.6205 72.7515 48.5861 70.0312 51.6675C69.363 52.4201 68.4349 52.8083 67.5 52.8083C66.7069 52.8083 65.9104 52.5315 65.2657 51.9645C63.8719 50.7259 63.7369 48.5963 64.9721 47.1956C66.6022 45.3529 67.5 42.9701 67.5 40.4996C67.5 34.9174 62.9573 30.3746 57.375 30.3746H57.0375C55.431 30.3746 54.0473 29.2406 53.73 27.6645C52.4677 21.414 46.9057 16.8746 40.5 16.8746C34.0976 16.8746 28.5323 21.414 27.2734 27.6645C26.9561 29.2406 25.569 30.3746 23.9625 30.3746H23.625C18.0427 30.3746 13.5 34.9174 13.5 40.4996C13.5 42.9701 14.3977 45.3529 16.0312 47.1956C17.2631 48.5963 17.1315 50.7259 15.7343 51.9645C14.337 53.1998 12.204 53.0614 10.9721 51.6675C8.2485 48.5861 6.75 44.6205 6.75 40.4996C6.75 31.9676 13.1152 24.8936 21.3469 23.7765C24.1177 15.7305 31.7925 10.1246 40.5 10.1246ZM38.1565 38.0699C39.4862 36.8009 41.5888 36.8111 42.8882 38.1138L53.0132 48.2388C54.3328 49.5584 54.3328 51.6914 53.0132 53.0111C52.3551 53.6692 51.4911 53.9999 50.6271 53.9999C49.7631 53.9999 48.8991 53.6692 48.241 53.0111L43.8771 48.6472V67.4999C43.8771 69.3663 42.3651 70.8749 40.5021 70.8749C38.6391 70.8749 37.1271 69.3663 37.1271 67.4999V48.4514L32.7227 52.7039C31.3828 54.0033 29.2465 53.9594 27.9505 52.6196C26.6545 51.2763 26.6916 49.1433 28.0315 47.8473L38.1565 38.0699Z" fill="white"/>
</mask>
<g mask="url(#mask0_1202_4829)">
<rect width="81" height="81" fill="#034AA6"/>
</g>
</svg>
