<svg width="35" height="35" viewBox="0 0 35 35" fill="none" xmlns="http://www.w3.org/2000/svg">
<path fill-rule="evenodd" clip-rule="evenodd" d="M13.1263 1.82324C9.30058 1.82324 6.19922 4.9246 6.19922 8.75033C6.19922 12.576 9.30058 15.6774 13.1263 15.6774C16.952 15.6774 20.0534 12.576 20.0534 8.75033C20.0534 4.9246 16.952 1.82324 13.1263 1.82324ZM8.38672 8.75033C8.38672 6.13273 10.5087 4.01074 13.1263 4.01074C15.7439 4.01074 17.8659 6.13273 17.8659 8.75033C17.8659 11.3679 15.7439 13.4899 13.1263 13.4899C10.5087 13.4899 8.38672 11.3679 8.38672 8.75033Z" fill="#77797E"/>
<path d="M21.8763 3.28158C21.2722 3.28158 20.7826 3.77126 20.7826 4.37533C20.7826 4.97939 21.2722 5.46908 21.8763 5.46908C23.6885 5.46908 25.1576 6.93814 25.1576 8.75033C25.1576 10.5625 23.6885 12.0316 21.8763 12.0316C21.2722 12.0316 20.7826 12.5213 20.7826 13.1253C20.7826 13.7294 21.2722 14.2191 21.8763 14.2191C24.8966 14.2191 27.3451 11.7706 27.3451 8.75033C27.3451 5.73002 24.8966 3.28158 21.8763 3.28158Z" fill="#77797E"/>
<path fill-rule="evenodd" clip-rule="evenodd" d="M5.36527 19.7176C7.40601 18.5514 10.1523 17.8649 13.1263 17.8649C16.1003 17.8649 18.8466 18.5514 20.8873 19.7176C22.8971 20.866 24.4284 22.6193 24.4284 24.792C24.4284 26.9647 22.8971 28.718 20.8873 29.8664C18.8466 31.0326 16.1003 31.7191 13.1263 31.7191C10.1523 31.7191 7.40601 31.0326 5.36527 29.8664C3.35546 28.718 1.82422 26.9647 1.82422 24.792C1.82422 22.6193 3.35546 20.866 5.36527 19.7176ZM6.45057 21.6168C4.76569 22.5796 4.01172 23.743 4.01172 24.792C4.01172 25.8409 4.76569 27.0043 6.45057 27.9671C8.10452 28.9123 10.4624 29.5316 13.1263 29.5316C15.7902 29.5316 18.1481 28.9123 19.802 27.9671C21.4869 27.0043 22.2409 25.8409 22.2409 24.792C22.2409 23.743 21.4869 22.5796 19.802 21.6168C18.1481 20.6717 15.7902 20.0524 13.1263 20.0524C10.4624 20.0524 8.10452 20.6717 6.45057 21.6168Z" fill="#77797E"/>
<path d="M26.4856 19.3486C25.8955 19.2192 25.3123 19.5927 25.1829 20.1827C25.0535 20.7727 25.427 21.356 26.017 21.4854C27.1725 21.7388 28.096 22.174 28.7055 22.6727C29.3158 23.1721 29.5326 23.6599 29.5326 24.0628C29.5326 24.4284 29.3567 24.8577 28.8718 25.3081C28.3834 25.7618 27.633 26.181 26.6651 26.4724C26.0867 26.6466 25.759 27.2566 25.9332 27.8351C26.1073 28.4135 26.7174 28.7412 27.2958 28.567C28.4954 28.2058 29.5679 27.6471 30.3606 26.9108C31.1568 26.1712 31.7201 25.1983 31.7201 24.0628C31.7201 22.8017 31.0284 21.747 30.0908 20.9798C29.1524 20.2119 27.8883 19.6562 26.4856 19.3486Z" fill="#77797E"/>
</svg>
