<svg width="16" height="17" viewBox="0 0 16 17" fill="none" xmlns="http://www.w3.org/2000/svg">
<path d="M4.24572 2.97768V4.50512H2.01821V14.4335H12.4133V4.50512H10.1858V2.97768H12.4133C12.8071 2.97768 13.1848 3.1386 13.4633 3.42505C13.7418 3.7115 13.8983 4.10001 13.8983 4.50512V14.4335C13.8983 14.8386 13.7418 15.2271 13.4633 15.5135C13.1848 15.8 12.8071 15.9609 12.4133 15.9609H2.01821C1.62436 15.9609 1.24664 15.8 0.968152 15.5135C0.689659 15.2271 0.533203 14.8386 0.533203 14.4335V4.50512C0.533203 4.10001 0.689659 3.7115 0.968152 3.42505C1.24664 3.1386 1.62436 2.97768 2.01821 2.97768H4.24572ZM7.21574 0.686523C7.41266 0.686523 7.60152 0.766986 7.74077 0.910211C7.88002 1.05344 7.95824 1.24769 7.95824 1.45024V9.71979L9.31554 8.32371C9.38448 8.25275 9.46633 8.19646 9.55642 8.15803C9.64651 8.11961 9.74307 8.09982 9.8406 8.09978C9.93813 8.09975 10.0347 8.11947 10.1248 8.15783C10.2149 8.19618 10.2968 8.25242 10.3658 8.32333C10.4348 8.39423 10.4895 8.47842 10.5269 8.57109C10.5642 8.66375 10.5835 8.76307 10.5835 8.86339C10.5836 8.9637 10.5644 9.06304 10.5271 9.15573C10.4898 9.24842 10.4351 9.33265 10.3662 9.40361L7.87137 11.9689C7.69734 12.1478 7.46139 12.2483 7.21537 12.2483C6.96935 12.2483 6.7334 12.1478 6.55937 11.9689L4.0653 9.40361C3.99636 9.33265 3.94168 9.24842 3.90439 9.15573C3.8671 9.06304 3.84793 8.9637 3.84796 8.86339C3.848 8.76307 3.86724 8.66375 3.90459 8.57109C3.94195 8.47842 3.99668 8.39423 4.06567 8.32333C4.13465 8.25242 4.21654 8.19618 4.30666 8.15783C4.39677 8.11947 4.49335 8.09975 4.59088 8.09978C4.68841 8.09982 4.78497 8.11961 4.87506 8.15803C4.96515 8.19646 5.047 8.25275 5.11594 8.32371L6.47324 9.71979V1.45024C6.47324 1.24769 6.55146 1.05344 6.69071 0.910211C6.82996 0.766986 7.01882 0.686523 7.21574 0.686523Z" fill="black"/>
</svg>
