<svg width="30" height="32" viewBox="0 0 30 32" fill="none" xmlns="http://www.w3.org/2000/svg">
<path fill-rule="evenodd" clip-rule="evenodd" d="M5.99223 0.775369C5.99222 0.775326 5.99224 0.775412 5.99223 0.775369C5.9244 0.433061 5.62343 0.186325 5.27443 0.187504C4.92534 0.188683 4.62607 0.437113 4.56064 0.779995L4.56015 0.782502L4.55737 0.796475C4.55473 0.809549 4.55053 0.829976 4.54474 0.856954C4.53315 0.910954 4.51527 0.990922 4.49093 1.09048C4.44207 1.29032 4.3681 1.5653 4.26805 1.86553C4.05704 2.49873 3.76955 3.11986 3.43959 3.45206C3.10963 3.78426 2.49045 4.07594 1.85869 4.29122C1.55914 4.3933 1.28467 4.46912 1.08516 4.51933C0.985775 4.54434 0.90593 4.56276 0.852009 4.57471C0.825071 4.58069 0.804673 4.58503 0.791617 4.58775L0.777662 4.59063L0.775369 4.5911C0.432936 4.65884 0.186325 4.95982 0.187504 5.30891C0.188683 5.65799 0.437113 5.95726 0.779995 6.02269L0.782501 6.02318L0.796475 6.02596C0.809549 6.0286 0.829976 6.03281 0.856954 6.0386C0.910954 6.05018 0.990922 6.06806 1.09048 6.0924C1.29032 6.14126 1.5653 6.21523 1.86553 6.31528C2.49873 6.52629 3.11986 6.81378 3.45206 7.14374C3.78426 7.47371 4.07594 8.09288 4.29122 8.72464C4.3933 9.02419 4.46912 9.29866 4.51933 9.49817C4.54434 9.59756 4.56276 9.6774 4.57471 9.73132C4.58069 9.75826 4.58503 9.77866 4.58775 9.79172L4.59063 9.80567L4.5911 9.80796C4.65884 10.1504 4.95982 10.397 5.30891 10.3958C5.65799 10.3946 5.95726 10.1462 6.02269 9.80334L6.02318 9.80083L6.02596 9.78686C6.0286 9.77378 6.03281 9.75336 6.0386 9.72638C6.05018 9.67238 6.06806 9.59241 6.0924 9.49286C6.14126 9.29301 6.21523 9.01803 6.31528 8.7178C6.52629 8.0846 6.81378 7.46347 7.14374 7.13127C7.47371 6.79907 8.09288 6.50739 8.72464 6.29211C9.02419 6.19004 9.29866 6.11421 9.49817 6.064C9.59756 6.03899 9.6774 6.02057 9.73132 6.00862C9.75826 6.00265 9.77866 5.99831 9.79172 5.99558L9.80567 5.9927L9.80796 5.99223C9.80789 5.99225 9.80804 5.99222 9.80796 5.99223C10.1502 5.92437 10.397 5.62341 10.3958 5.27443C10.3946 4.92534 10.1462 4.62607 9.80334 4.56064L9.80083 4.56016L9.78686 4.55737C9.77378 4.55473 9.75336 4.55053 9.72638 4.54474C9.67238 4.53315 9.59241 4.51527 9.49286 4.49093C9.29301 4.44207 9.01803 4.3681 8.7178 4.26805C8.0846 4.05704 7.46347 3.76955 7.13127 3.43959C6.79907 3.10963 6.50739 2.49045 6.29211 1.85869C6.19004 1.55914 6.11421 1.28467 6.064 1.08516C6.03899 0.985776 6.02057 0.90593 6.00862 0.852009C6.00265 0.825071 5.99831 0.804673 5.99558 0.791617L5.9927 0.777663L5.99223 0.775369ZM7.3277 5.28479C6.88613 5.07734 6.44256 4.81098 6.10356 4.47427C5.76457 4.13755 5.49522 3.6958 5.28479 3.25563C5.07734 3.69721 4.81098 4.14077 4.47427 4.47977C4.13755 4.81877 3.6958 5.08812 3.25563 5.29854C3.69721 5.50599 4.14077 5.77235 4.47977 6.10907C4.81877 6.44578 5.08812 6.88754 5.29854 7.3277C5.50599 6.88613 5.77235 6.44256 6.10907 6.10356C6.44578 5.76457 6.88754 5.49522 7.3277 5.28479Z" fill="#77797E"/>
<path fill-rule="evenodd" clip-rule="evenodd" d="M25.7083 2.73958C26.3124 2.73958 26.8021 3.22927 26.8021 3.83333V4.19792H27.1667C27.7707 4.19792 28.2604 4.6876 28.2604 5.29167C28.2604 5.89573 27.7707 6.38542 27.1667 6.38542H26.8021V6.75C26.8021 7.35406 26.3124 7.84375 25.7083 7.84375C25.1043 7.84375 24.6146 7.35406 24.6146 6.75V6.38542H24.25C23.6459 6.38542 23.1562 5.89573 23.1562 5.29167C23.1562 4.6876 23.6459 4.19792 24.25 4.19792H24.6146V3.83333C24.6146 3.22927 25.1043 2.73958 25.7083 2.73958ZM15.4817 7.0129C15.0027 7.63844 14.4585 8.6089 13.6556 10.0492L13.2494 10.7779C13.2232 10.8249 13.1973 10.8716 13.1715 10.9181C12.8052 11.5779 12.474 12.1745 11.9383 12.5812C11.3962 12.9927 10.7366 13.1406 10.0223 13.3008C9.97211 13.3121 9.92161 13.3234 9.87085 13.3349L9.08205 13.5134C7.5204 13.8667 6.47677 14.106 5.76625 14.386C5.07635 14.6579 4.9839 14.86 4.94893 14.9725C4.91025 15.0969 4.87829 15.3395 5.29224 15.9971C5.71363 16.6664 6.42817 17.5064 7.49095 18.7492L8.02871 19.378C8.06228 19.4173 8.09567 19.4562 8.12882 19.4948C8.62054 20.068 9.0592 20.5793 9.26075 21.2274C9.46094 21.8711 9.39452 22.5458 9.31918 23.3112C9.31409 23.3628 9.30897 23.4148 9.30389 23.4673L9.22259 24.3063C9.06206 25.9629 8.95592 27.0859 8.99176 27.8906C9.02753 28.6934 9.19571 28.8559 9.27344 28.9149C9.33331 28.9604 9.494 29.0783 10.2122 28.8725C10.9445 28.6627 11.9241 28.2151 13.3864 27.5418L14.1249 27.2017C14.1734 27.1794 14.2216 27.1571 14.2696 27.1349C14.9335 26.8276 15.5522 26.5412 16.2292 26.5412C16.9061 26.5412 17.5248 26.8276 18.1887 27.1349C18.2367 27.1571 18.2849 27.1794 18.3334 27.2017L19.072 27.5418C20.5342 28.2151 21.5138 28.6627 22.2461 28.8725C22.9643 29.0783 23.125 28.9604 23.1849 28.9149C23.2626 28.8559 23.4308 28.6934 23.4666 27.8906C23.5024 27.0859 23.3963 25.9629 23.2357 24.3063L23.1544 23.4673C23.1494 23.4148 23.1442 23.3628 23.1392 23.3112C23.0638 22.5458 22.9974 21.8711 23.1976 21.2274C23.3991 20.5793 23.8378 20.068 24.3295 19.4948C24.3627 19.4562 24.396 19.4173 24.4296 19.378L24.9674 18.7492C26.0302 17.5064 26.7447 16.6664 27.1661 15.9971C27.58 15.3395 27.5481 15.0969 27.5094 14.9725C27.4744 14.86 27.382 14.6579 26.6921 14.386C25.9816 14.106 24.9379 13.8667 23.3763 13.5134L22.5875 13.3349C22.5367 13.3234 22.4862 13.3121 22.436 13.3008C21.7217 13.1406 21.0622 12.9927 20.52 12.5812C19.9844 12.1745 19.6532 11.5779 19.2869 10.9181C19.2611 10.8716 19.2351 10.8249 19.2089 10.7779L18.8027 10.0492C17.9998 8.6089 17.4556 7.63844 16.9766 7.0129C16.4981 6.38808 16.2915 6.38542 16.2292 6.38542C16.1668 6.38542 15.9602 6.38808 15.4817 7.0129ZM13.745 5.68291C14.345 4.89941 15.1178 4.19792 16.2292 4.19792C17.3405 4.19792 18.1133 4.89941 18.7133 5.68291C19.3013 6.45069 19.9219 7.56405 20.6694 8.90514L21.1196 9.71278C21.6133 10.5985 21.7204 10.746 21.8427 10.8388C21.9581 10.9264 22.1098 10.984 23.0702 11.2013L23.9495 11.4003C25.3968 11.7277 26.6079 12.0016 27.4941 12.3509C28.4194 12.7155 29.2705 13.269 29.5982 14.3229C29.9223 15.3649 29.552 16.3131 29.0173 17.1624C28.5001 17.984 27.6778 18.9456 26.6878 20.1032L26.0921 20.7997C25.4424 21.5595 25.337 21.7143 25.2864 21.877C25.2344 22.0443 25.2336 22.2435 25.3317 23.2563L25.4215 24.1825C25.5715 25.7297 25.6955 27.0092 25.6519 27.9879C25.6074 28.9868 25.3794 29.9954 24.5076 30.6573C23.6179 31.3327 22.5901 31.2466 21.6436 30.9754C20.7301 30.7136 19.597 30.1918 18.2422 29.568L17.4185 29.1887C16.5156 28.773 16.3632 28.7287 16.2292 28.7287C16.0951 28.7287 15.9428 28.773 15.0398 29.1887L14.2162 29.568C12.8614 30.1918 11.7282 30.7136 10.8148 30.9754C9.86824 31.2466 8.84046 31.3327 7.95078 30.6573C7.07895 29.9954 6.85093 28.9868 6.80643 27.9879C6.76283 27.0092 6.88685 25.7297 7.03683 24.1826L7.12659 23.2563C7.22473 22.2435 7.22395 22.0443 7.17191 21.877C7.12132 21.7143 7.01594 21.5595 6.36621 20.7997L5.77055 20.1032C4.78057 18.9456 3.95819 17.984 3.44101 17.1624C2.90633 16.3131 2.53608 15.3649 2.8601 14.3229C3.18782 13.269 4.03896 12.7155 4.96422 12.3509C5.85046 12.0016 7.06151 11.7277 8.50879 11.4003L9.38811 11.2013C10.3486 10.984 10.5002 10.9264 10.6156 10.8388C10.7379 10.746 10.845 10.5985 11.3387 9.71278L11.7889 8.90514C12.5365 7.56404 13.157 6.45069 13.745 5.68291Z" fill="#77797E"/>
</svg>
