<svg width="36" height="35" viewBox="0 0 36 35" fill="none" xmlns="http://www.w3.org/2000/svg">
<path fill-rule="evenodd" clip-rule="evenodd" d="M8.49223 2.77537C8.49222 2.77533 8.49224 2.77541 8.49223 2.77537C8.4244 2.43306 8.12343 2.18633 7.77443 2.1875C7.42534 2.18868 7.12607 2.43711 7.06064 2.77999L7.06015 2.7825L7.05737 2.79647C7.05473 2.80955 7.05053 2.82998 7.04474 2.85695C7.03315 2.91095 7.01527 2.99092 6.99093 3.09048C6.94207 3.29032 6.8681 3.5653 6.76805 3.86553C6.55704 4.49873 6.26955 5.11986 5.93959 5.45206C5.60963 5.78426 4.99045 6.07594 4.35869 6.29122C4.05914 6.3933 3.78467 6.46912 3.58516 6.51933C3.48578 6.54434 3.40593 6.56276 3.35201 6.57471C3.32507 6.58069 3.30467 6.58503 3.29162 6.58775L3.27766 6.59063L3.27537 6.5911C2.93294 6.65884 2.68633 6.95982 2.6875 7.30891C2.68868 7.65799 2.93711 7.95726 3.27999 8.02269L3.2825 8.02318L3.29647 8.02596C3.30955 8.0286 3.32998 8.03281 3.35695 8.0386C3.41095 8.05018 3.49092 8.06806 3.59048 8.0924C3.79032 8.14126 4.0653 8.21523 4.36553 8.31528C4.99873 8.52629 5.61986 8.81378 5.95206 9.14374C6.28426 9.47371 6.57594 10.0929 6.79122 10.7246C6.8933 11.0242 6.96912 11.2987 7.01933 11.4982C7.04434 11.5976 7.06276 11.6774 7.07471 11.7313C7.08069 11.7583 7.08503 11.7787 7.08775 11.7917L7.09063 11.8057L7.0911 11.808C7.15884 12.1504 7.45982 12.397 7.80891 12.3958C8.15799 12.3946 8.45726 12.1462 8.52269 11.8033L8.52318 11.8008L8.52596 11.7869C8.5286 11.7738 8.53281 11.7534 8.5386 11.7264C8.55018 11.6724 8.56806 11.5924 8.5924 11.4929C8.64126 11.293 8.71523 11.018 8.81528 10.7178C9.02629 10.0846 9.31378 9.46347 9.64374 9.13127C9.97371 8.79907 10.5929 8.50739 11.2246 8.29211C11.5242 8.19004 11.7987 8.11421 11.9982 8.064C12.0976 8.03899 12.1774 8.02057 12.2313 8.00862C12.2583 8.00265 12.2787 7.99831 12.2917 7.99558L12.3057 7.9927L12.308 7.99223C12.3079 7.99225 12.308 7.99222 12.308 7.99223C12.6502 7.92437 12.897 7.62341 12.8958 7.27443C12.8946 6.92534 12.6462 6.62607 12.3033 6.56064L12.3008 6.56016L12.2869 6.55737C12.2738 6.55473 12.2534 6.55053 12.2264 6.54474C12.1724 6.53315 12.0924 6.51527 11.9929 6.49093C11.793 6.44207 11.518 6.3681 11.2178 6.26805C10.5846 6.05704 9.96347 5.76955 9.63127 5.43959C9.29907 5.10963 9.00739 4.49045 8.79211 3.85869C8.69004 3.55914 8.61421 3.28467 8.564 3.08516C8.53899 2.98578 8.52057 2.90593 8.50862 2.85201C8.50265 2.82507 8.49831 2.80467 8.49558 2.79162L8.4927 2.77766L8.49223 2.77537ZM9.8277 7.28479C9.38613 7.07734 8.94256 6.81098 8.60356 6.47427C8.26457 6.13755 7.99522 5.6958 7.78479 5.25563C7.57734 5.69721 7.31098 6.14077 6.97427 6.47977C6.63755 6.81877 6.1958 7.08812 5.75563 7.29854C6.19721 7.50599 6.64077 7.77235 6.97977 8.10907C7.31877 8.44578 7.58812 8.88754 7.79854 9.3277C8.00599 8.88613 8.27235 8.44256 8.60907 8.10356C8.94578 7.76457 9.38754 7.49522 9.8277 7.28479Z" fill="url(#paint0_linear_2463_9461)"/>
<path fill-rule="evenodd" clip-rule="evenodd" d="M28.2083 4.73958C28.8124 4.73958 29.3021 5.22927 29.3021 5.83333V6.19792H29.6667C30.2707 6.19792 30.7604 6.6876 30.7604 7.29167C30.7604 7.89573 30.2707 8.38542 29.6667 8.38542H29.3021V8.75C29.3021 9.35406 28.8124 9.84375 28.2083 9.84375C27.6043 9.84375 27.1146 9.35406 27.1146 8.75V8.38542H26.75C26.1459 8.38542 25.6562 7.89573 25.6562 7.29167C25.6562 6.6876 26.1459 6.19792 26.75 6.19792H27.1146V5.83333C27.1146 5.22927 27.6043 4.73958 28.2083 4.73958ZM17.9817 9.0129C17.5027 9.63844 16.9585 10.6089 16.1556 12.0492L15.7494 12.7779C15.7232 12.8249 15.6973 12.8716 15.6715 12.9181C15.3052 13.5779 14.974 14.1745 14.4383 14.5812C13.8962 14.9927 13.2366 15.1406 12.5223 15.3008C12.4721 15.3121 12.4216 15.3234 12.3709 15.3349L11.582 15.5134C10.0204 15.8667 8.97677 16.106 8.26625 16.386C7.57635 16.6579 7.4839 16.86 7.44893 16.9725C7.41025 17.0969 7.37829 17.3395 7.79224 17.9971C8.21363 18.6664 8.92817 19.5064 9.99095 20.7492L10.5287 21.378C10.5623 21.4173 10.5957 21.4562 10.6288 21.4948C11.1205 22.068 11.5592 22.5793 11.7607 23.2274C11.9609 23.8711 11.8945 24.5458 11.8192 25.3112C11.8141 25.3628 11.809 25.4148 11.8039 25.4673L11.7226 26.3063C11.5621 27.9629 11.4559 29.0859 11.4918 29.8906C11.5275 30.6934 11.6957 30.8559 11.7734 30.9149C11.8333 30.9604 11.994 31.0783 12.7122 30.8725C13.4445 30.6627 14.4241 30.2151 15.8864 29.5418L16.6249 29.2017C16.6734 29.1794 16.7216 29.1571 16.7696 29.1349C17.4335 28.8276 18.0522 28.5412 18.7292 28.5412C19.4061 28.5412 20.0248 28.8276 20.6887 29.1349C20.7367 29.1571 20.7849 29.1794 20.8334 29.2017L21.572 29.5418C23.0342 30.2151 24.0138 30.6627 24.7461 30.8725C25.4643 31.0783 25.625 30.9604 25.6849 30.9149C25.7626 30.8559 25.9308 30.6934 25.9666 29.8906C26.0024 29.0859 25.8963 27.9629 25.7357 26.3063L25.6544 25.4673C25.6494 25.4148 25.6442 25.3628 25.6392 25.3112C25.5638 24.5458 25.4974 23.8711 25.6976 23.2274C25.8991 22.5793 26.3378 22.068 26.8295 21.4948C26.8627 21.4562 26.896 21.4173 26.9296 21.378L27.4674 20.7492C28.5302 19.5064 29.2447 18.6664 29.6661 17.9971C30.08 17.3395 30.0481 17.0969 30.0094 16.9725C29.9744 16.86 29.882 16.6579 29.1921 16.386C28.4816 16.106 27.4379 15.8667 25.8763 15.5134L25.0875 15.3349C25.0367 15.3234 24.9862 15.3121 24.936 15.3008C24.2217 15.1406 23.5622 14.9927 23.02 14.5812C22.4844 14.1745 22.1532 13.5779 21.7869 12.9181C21.7611 12.8716 21.7351 12.8249 21.7089 12.7779L21.3027 12.0492C20.4998 10.6089 19.9556 9.63844 19.4766 9.0129C18.9981 8.38808 18.7915 8.38542 18.7292 8.38542C18.6668 8.38542 18.4602 8.38808 17.9817 9.0129ZM16.245 7.68291C16.845 6.89941 17.6178 6.19792 18.7292 6.19792C19.8405 6.19792 20.6133 6.89941 21.2133 7.68291C21.8013 8.45069 22.4219 9.56405 23.1694 10.9051L23.6196 11.7128C24.1133 12.5985 24.2204 12.746 24.3427 12.8388C24.4581 12.9264 24.6098 12.984 25.5702 13.2013L26.4495 13.4003C27.8968 13.7277 29.1079 14.0016 29.9941 14.3509C30.9194 14.7155 31.7705 15.269 32.0982 16.3229C32.4223 17.3649 32.052 18.3131 31.5173 19.1624C31.0001 19.984 30.1778 20.9456 29.1878 22.1032L28.5921 22.7997C27.9424 23.5595 27.837 23.7143 27.7864 23.877C27.7344 24.0443 27.7336 24.2435 27.8317 25.2563L27.9215 26.1825C28.0715 27.7297 28.1955 29.0092 28.1519 29.9879C28.1074 30.9868 27.8794 31.9954 27.0076 32.6573C26.1179 33.3327 25.0901 33.2466 24.1436 32.9754C23.2301 32.7136 22.097 32.1918 20.7422 31.568L19.9185 31.1887C19.0156 30.773 18.8632 30.7287 18.7292 30.7287C18.5951 30.7287 18.4428 30.773 17.5398 31.1887L16.7162 31.568C15.3614 32.1918 14.2282 32.7136 13.3148 32.9754C12.3682 33.2466 11.3405 33.3327 10.4508 32.6573C9.57895 31.9954 9.35093 30.9868 9.30643 29.9879C9.26283 29.0092 9.38685 27.7297 9.53683 26.1826L9.62659 25.2563C9.72473 24.2435 9.72395 24.0443 9.67191 23.877C9.62132 23.7143 9.51594 23.5595 8.86621 22.7997L8.27055 22.1032C7.28057 20.9456 6.45819 19.984 5.94101 19.1624C5.40633 18.3131 5.03608 17.3649 5.3601 16.3229C5.68782 15.269 6.53896 14.7155 7.46422 14.3509C8.35046 14.0016 9.56151 13.7277 11.0088 13.4003L11.8881 13.2013C12.8486 12.984 13.0002 12.9264 13.1156 12.8388C13.2379 12.746 13.345 12.5985 13.8387 11.7128L14.2889 10.9051C15.0365 9.56404 15.657 8.45069 16.245 7.68291Z" fill="url(#paint1_linear_2463_9461)"/>
<defs>
<linearGradient id="paint0_linear_2463_9461" x1="17.4535" y1="2.1875" x2="17.4535" y2="33.1768" gradientUnits="userSpaceOnUse">
<stop stop-color="#00CCFF"/>
<stop offset="1" stop-color="#034AA6"/>
</linearGradient>
<linearGradient id="paint1_linear_2463_9461" x1="17.4535" y1="2.1875" x2="17.4535" y2="33.1768" gradientUnits="userSpaceOnUse">
<stop stop-color="#00CCFF"/>
<stop offset="1" stop-color="#034AA6"/>
</linearGradient>
</defs>
</svg>
