<svg width="30" height="31" viewBox="0 0 30 31" fill="none" xmlns="http://www.w3.org/2000/svg">
<rect x="0.458984" y="0.744141" width="29.3202" height="29.3202" rx="5.5848" fill="#034AA6"/>
<path fill-rule="evenodd" clip-rule="evenodd" d="M8.67709 9.6748H13.6902C14.0841 9.6748 14.4063 9.99707 14.4063 10.391C14.4063 10.7848 14.0841 11.1071 13.6902 11.1071H8.67709C8.28321 11.1071 7.96094 10.7848 7.96094 10.391C7.96094 9.99707 8.28321 9.6748 8.67709 9.6748ZM10.8259 14.6883H13.6905C14.0844 14.6883 14.4067 15.0106 14.4067 15.4045C14.4067 15.7983 14.0844 16.1206 13.6905 16.1206H10.8259C10.432 16.1206 10.1098 15.7983 10.1098 15.4045C10.1098 15.0106 10.432 14.6883 10.8259 14.6883ZM13.6899 19.7004H12.2576C11.8637 19.7004 11.5414 20.0227 11.5414 20.4166C11.5414 20.8105 11.8637 21.1328 12.2576 21.1328H13.6899C14.0838 21.1328 14.406 20.8105 14.406 20.4166C14.406 20.0227 14.0838 19.7004 13.6899 19.7004ZM20.1345 18.7296L21.0691 17.8273C21.3541 17.553 21.8075 17.5608 22.0817 17.8452C22.3567 18.1302 22.3489 18.5835 22.0646 18.8578L19.9161 20.9325C19.7764 21.0657 19.5974 21.133 19.4184 21.133C19.235 21.133 19.0517 21.0636 18.912 20.9232L16.7636 18.7747C16.4836 18.4954 16.4836 18.0421 16.7636 17.7621C17.0429 17.4828 17.4962 17.4828 17.7762 17.7621L18.7022 18.6881V12.0787L17.7676 12.9803C17.4833 13.2553 17.03 13.2467 16.755 12.9624C16.48 12.6781 16.4879 12.2248 16.7722 11.9498L18.9206 9.87508C19.2028 9.60581 19.649 9.60724 19.9247 9.88439L22.0731 12.0329C22.3524 12.3129 22.3524 12.7662 22.0731 13.0455C21.9335 13.1859 21.7502 13.2553 21.5668 13.2553C21.3835 13.2553 21.2002 13.1859 21.0605 13.0455L20.1345 12.1195V18.7296Z" fill="white"/>
<mask id="mask0_2463_7705" style="mask-type:luminance" maskUnits="userSpaceOnUse" x="7" y="9" width="16" height="13">
<path fill-rule="evenodd" clip-rule="evenodd" d="M8.67709 9.6748H13.6902C14.0841 9.6748 14.4063 9.99707 14.4063 10.391C14.4063 10.7848 14.0841 11.1071 13.6902 11.1071H8.67709C8.28321 11.1071 7.96094 10.7848 7.96094 10.391C7.96094 9.99707 8.28321 9.6748 8.67709 9.6748ZM10.8259 14.6883H13.6905C14.0844 14.6883 14.4067 15.0106 14.4067 15.4045C14.4067 15.7983 14.0844 16.1206 13.6905 16.1206H10.8259C10.432 16.1206 10.1098 15.7983 10.1098 15.4045C10.1098 15.0106 10.432 14.6883 10.8259 14.6883ZM13.6899 19.7004H12.2576C11.8637 19.7004 11.5414 20.0227 11.5414 20.4166C11.5414 20.8105 11.8637 21.1328 12.2576 21.1328H13.6899C14.0838 21.1328 14.406 20.8105 14.406 20.4166C14.406 20.0227 14.0838 19.7004 13.6899 19.7004ZM20.1345 18.7296L21.0691 17.8273C21.3541 17.553 21.8075 17.5608 22.0817 17.8452C22.3567 18.1302 22.3489 18.5835 22.0646 18.8578L19.9161 20.9325C19.7764 21.0657 19.5974 21.133 19.4184 21.133C19.235 21.133 19.0517 21.0636 18.912 20.9232L16.7636 18.7747C16.4836 18.4954 16.4836 18.0421 16.7636 17.7621C17.0429 17.4828 17.4962 17.4828 17.7762 17.7621L18.7022 18.6881V12.0787L17.7676 12.9803C17.4833 13.2553 17.03 13.2467 16.755 12.9624C16.48 12.6781 16.4879 12.2248 16.7722 11.9498L18.9206 9.87508C19.2028 9.60581 19.649 9.60724 19.9247 9.88439L22.0731 12.0329C22.3524 12.3129 22.3524 12.7662 22.0731 13.0455C21.9335 13.1859 21.7502 13.2553 21.5668 13.2553C21.3835 13.2553 21.2002 13.1859 21.0605 13.0455L20.1345 12.1195V18.7296Z" fill="white"/>
</mask>
<g mask="url(#mask0_2463_7705)">
<rect x="6.5293" y="6.80957" width="17.1877" height="11.251" fill="white"/>
</g>
</svg>
