<svg width="31" height="25" viewBox="0 0 31 25" fill="none" xmlns="http://www.w3.org/2000/svg">
<path d="M27.9 3.125H15.5L13.3145 0.921875C12.7255 0.328125 11.935 0 11.1135 0H3.1C1.3795 0 0.0155 1.39062 0.0155 3.125L0 21.875C0 23.6094 1.3795 25 3.1 25H27.9C29.605 25 31 23.5938 31 21.875V6.25C31 4.53125 29.605 3.125 27.9 3.125ZM24.8 15.625H21.7V18.75C21.7 19.6094 21.0025 20.3125 20.15 20.3125C19.2975 20.3125 18.6 19.6094 18.6 18.75V15.625H15.5C14.6475 15.625 13.95 14.9219 13.95 14.0625C13.95 13.2031 14.6475 12.5 15.5 12.5H18.6V9.375C18.6 8.51562 19.2975 7.8125 20.15 7.8125C21.0025 7.8125 21.7 8.51562 21.7 9.375V12.5H24.8C25.6525 12.5 26.35 13.2031 26.35 14.0625C26.35 14.9219 25.6525 15.625 24.8 15.625Z" fill="url(#paint0_linear_1601_5751)"/>
<defs>
<linearGradient id="paint0_linear_1601_5751" x1="15.5" y1="0" x2="15.5" y2="25" gradientUnits="userSpaceOnUse">
<stop stop-color="#00CCFF"/>
<stop offset="1" stop-color="#034AA6"/>
</linearGradient>
</defs>
</svg>
