<svg width="29" height="30" viewBox="0 0 29 30" fill="none" xmlns="http://www.w3.org/2000/svg">
<path fill-rule="evenodd" clip-rule="evenodd" d="M15.4056 3.20744L24.6637 12.7376C25.1033 13.1921 25.3555 13.8256 25.3555 14.4771V24.602C25.3555 25.9353 24.3383 27.0196 23.0881 27.0196H19.3507V16.1404C19.3507 15.4732 18.8139 14.9316 18.1497 14.9316H10.944C10.2799 14.9316 9.74306 15.4732 9.74306 16.1404V27.0196H6.00689C4.75669 27.0196 3.73828 25.9353 3.73828 24.602V14.4771C3.73828 13.8256 3.99048 13.1921 4.42883 12.7388L13.6882 3.20744C14.141 2.74205 14.9528 2.74205 15.4056 3.20744ZM16.9491 25.8113H12.1453V17.3497H16.9491V25.8113Z" fill="#231F20"/>
<mask id="mask0_2400_17968" style="mask-type:luminance" maskUnits="userSpaceOnUse" x="3" y="2" width="23" height="26">
<path fill-rule="evenodd" clip-rule="evenodd" d="M15.4056 3.20744L24.6637 12.7376C25.1033 13.1921 25.3555 13.8256 25.3555 14.4771V24.602C25.3555 25.9353 24.3383 27.0196 23.0881 27.0196H19.3507V16.1404C19.3507 15.4732 18.8139 14.9316 18.1497 14.9316H10.944C10.2799 14.9316 9.74306 15.4732 9.74306 16.1404V27.0196H6.00689C4.75669 27.0196 3.73828 25.9353 3.73828 24.602V14.4771C3.73828 13.8256 3.99048 13.1921 4.42883 12.7388L13.6882 3.20744C14.141 2.74205 14.9528 2.74205 15.4056 3.20744ZM16.9491 25.8113H12.1453V17.3497H16.9491V25.8113Z" fill="white"/>
</mask>
<g mask="url(#mask0_2400_17968)">
<rect x="0.134766" y="0.426758" width="28.8229" height="29.0113" fill="#034AA6"/>
</g>
</svg>
