<svg width="30" height="30" viewBox="0 0 30 30" fill="none" xmlns="http://www.w3.org/2000/svg">
<path fill-rule="evenodd" clip-rule="evenodd" d="M20.5814 7.67442C19.6181 7.67442 18.8372 8.45532 18.8372 9.4186C18.8372 10.3819 19.6181 11.1628 20.5814 11.1628C21.5447 11.1628 22.3256 10.3819 22.3256 9.4186C22.3256 8.45532 21.5447 7.67442 20.5814 7.67442ZM16.7442 9.4186C16.7442 7.29937 18.4622 5.5814 20.5814 5.5814C22.7006 5.5814 24.4186 7.29937 24.4186 9.4186C24.4186 11.5378 22.7006 13.2558 20.5814 13.2558C18.4622 13.2558 16.7442 11.5378 16.7442 9.4186Z" fill="#77797E"/>
<path fill-rule="evenodd" clip-rule="evenodd" d="M14.9199 2.95174e-07H15.0801C18.3011 -1.76694e-05 20.8253 -3.18954e-05 22.7948 0.264763C24.8107 0.535795 26.4015 1.10139 27.65 2.34996C28.8986 3.59853 29.4642 5.18926 29.7352 7.20517C30 9.17469 30 11.6989 30 14.9199V15.0801C30 18.3011 30 20.8253 29.7352 22.7948C29.4642 24.8107 28.8986 26.4015 27.65 27.65C26.4015 28.8986 24.8107 29.4642 22.7948 29.7352C20.8253 30 18.3011 30 15.0801 30H14.9199C11.6989 30 9.17469 30 7.20517 29.7352C5.18926 29.4642 3.59853 28.8986 2.34996 27.65C1.10139 26.4015 0.535795 24.8107 0.264763 22.7948C-3.18954e-05 20.8253 -1.76694e-05 18.3011 2.95174e-07 15.0801V14.9199C-1.76694e-05 11.6989 -3.18954e-05 9.17469 0.264763 7.20517C0.535795 5.18926 1.10139 3.59853 2.34996 2.34996C3.59853 1.10139 5.18926 0.535795 7.20517 0.264763C9.17469 -3.18954e-05 11.6989 -1.76694e-05 14.9199 2.95174e-07ZM3.82995 26.17C3.03508 25.3752 2.57895 24.2998 2.33912 22.5159C2.12497 20.9231 2.09715 18.891 2.09356 16.1723L4.17971 14.3469C5.03662 13.5971 6.32811 13.6401 7.13324 14.4452L13.1189 20.4309C14.4374 21.7494 16.513 21.9292 18.0386 20.857L18.4547 20.5646C19.6521 19.7231 21.2722 19.8206 22.3601 20.7997L26.8581 24.8478C26.907 24.8919 26.959 24.9305 27.0132 24.9636C26.7877 25.4393 26.5098 25.8303 26.17 26.17C25.3752 26.9649 24.2998 27.421 22.5159 27.6609C20.702 27.9048 18.3185 27.907 15 27.907C11.6815 27.907 9.29798 27.9048 7.48406 27.6609C5.70024 27.421 4.62482 26.9649 3.82995 26.17ZM7.48406 2.33912C5.70024 2.57895 4.62482 3.03508 3.82995 3.82995C3.03508 4.62482 2.57895 5.70024 2.33912 7.48406C2.13661 8.99033 2.10073 10.8894 2.09438 13.3904L2.80146 12.7717C4.48763 11.2963 7.02894 11.381 8.61323 12.9653L14.5989 18.9509C15.1982 19.5503 16.1417 19.632 16.8351 19.1446L17.2512 18.8522C19.247 17.4496 21.9471 17.6121 23.7603 19.2439L27.6309 22.7275C27.6413 22.6581 27.6512 22.5876 27.6609 22.5159C27.9048 20.702 27.907 18.3185 27.907 15C27.907 11.6815 27.9048 9.29798 27.6609 7.48406C27.421 5.70024 26.9649 4.62482 26.17 3.82995C25.3752 3.03508 24.2998 2.57895 22.5159 2.33912C20.702 2.09525 18.3185 2.09302 15 2.09302C11.6815 2.09302 9.29798 2.09525 7.48406 2.33912Z" fill="#77797E"/>
</svg>
