<svg width="30" height="30" viewBox="0 0 30 30" fill="none" xmlns="http://www.w3.org/2000/svg">
<path fill-rule="evenodd" clip-rule="evenodd" d="M14.4077 4.8748C17.1352 2.14105 21.5365 1.6473 24.5765 4.0248C28.2177 6.8723 28.4565 12.1785 25.2927 15.3498L23.514 17.1311C23.0227 17.6236 22.2277 17.6236 21.7365 17.1311C21.2452 16.6398 21.2452 15.8411 21.7365 15.3498L23.514 13.5673C25.5827 11.496 25.4702 8.0523 23.174 6.1298C21.1402 4.42605 18.0877 4.75105 16.214 6.62855L14.6227 8.2223C14.1327 8.7148 13.3352 8.7148 12.8452 8.2223C12.354 7.73105 12.349 6.9373 13.0665 6.21855L14.4077 4.8748ZM16.6163 11.6163L11.6163 16.6163C11.1275 17.105 11.1275 17.895 11.6163 18.3838C11.86 18.6275 12.18 18.75 12.5 18.75C12.82 18.75 13.14 18.6275 13.3838 18.3838L18.3838 13.3838C18.8725 12.895 18.8725 12.105 18.3838 11.6163C17.895 11.1275 17.105 11.1275 16.6163 11.6163ZM15.3501 21.746L13.7576 23.3348C11.8813 25.206 8.82256 25.5285 6.78756 23.8323C4.48881 21.9173 4.37506 18.4848 6.44631 16.4185L8.22756 14.6435C8.71881 14.1535 8.71881 13.3585 8.22756 12.8673C7.73631 12.3785 6.93881 12.3785 6.44631 12.8673L4.85256 14.4585C2.13756 17.166 1.66131 21.521 4.00881 24.551C6.84756 28.2173 12.1726 28.4648 15.3501 25.2973L17.1313 23.5223C17.6226 23.031 17.6226 22.2373 17.1313 21.746C16.6388 21.2548 15.8426 21.2548 15.3501 21.746Z" fill="url(#paint0_linear_2463_9543)"/>
<mask id="mask0_2463_9543" style="mask-type:luminance" maskUnits="userSpaceOnUse" x="2" y="2" width="26" height="26">
<path fill-rule="evenodd" clip-rule="evenodd" d="M14.4076 4.87466C17.1351 2.14091 21.5363 1.64716 24.5763 4.02466C28.2176 6.87216 28.4563 12.1784 25.2926 15.3497L23.5138 17.1309C23.0226 17.6234 22.2276 17.6234 21.7363 17.1309C21.2451 16.6397 21.2451 15.8409 21.7363 15.3497L23.5138 13.5672C25.5826 11.4959 25.4701 8.05216 23.1738 6.12966C21.1401 4.42591 18.0876 4.75091 16.2138 6.62841L14.6226 8.22216C14.1326 8.71466 13.3351 8.71466 12.8451 8.22216C12.3538 7.73091 12.3488 6.93716 13.0663 6.21841L14.4076 4.87466ZM16.6162 11.6162L11.6162 16.6162C11.1274 17.1049 11.1274 17.8949 11.6162 18.3837C11.8599 18.6274 12.1799 18.7499 12.4999 18.7499C12.8199 18.7499 13.1399 18.6274 13.3837 18.3837L18.3837 13.3837C18.8724 12.8949 18.8724 12.1049 18.3837 11.6162C17.8949 11.1274 17.1049 11.1274 16.6162 11.6162ZM15.3499 21.7459L13.7574 23.3346C11.8812 25.2059 8.82242 25.5284 6.78742 23.8321C4.48867 21.9171 4.37492 18.4846 6.44617 16.4184L8.22742 14.6434C8.71867 14.1534 8.71867 13.3584 8.22742 12.8671C7.73617 12.3784 6.93867 12.3784 6.44617 12.8671L4.85242 14.4584C2.13742 17.1659 1.66117 21.5209 4.00867 24.5509C6.84742 28.2171 12.1724 28.4646 15.3499 25.2971L17.1312 23.5221C17.6224 23.0309 17.6224 22.2371 17.1312 21.7459C16.6387 21.2546 15.8424 21.2546 15.3499 21.7459Z" fill="white"/>
</mask>
<g mask="url(#mask0_2463_9543)">
<rect width="30" height="30" fill="url(#paint1_linear_2463_9543)"/>
</g>
<defs>
<linearGradient id="paint0_linear_2463_9543" x1="14.9994" y1="2.5" x2="14.9994" y2="27.5002" gradientUnits="userSpaceOnUse">
<stop stop-color="#00CCFF"/>
<stop offset="1" stop-color="#034AA6"/>
</linearGradient>
<linearGradient id="paint1_linear_2463_9543" x1="15" y1="0" x2="15" y2="30" gradientUnits="userSpaceOnUse">
<stop stop-color="#00CCFF"/>
<stop offset="1" stop-color="#034AA6"/>
</linearGradient>
</defs>
</svg>
