<svg width="30" height="30" viewBox="0 0 30 30" fill="none" xmlns="http://www.w3.org/2000/svg">
<path fill-rule="evenodd" clip-rule="evenodd" d="M14.4076 4.87466C17.1351 2.14091 21.5363 1.64716 24.5763 4.02466C28.2176 6.87216 28.4563 12.1784 25.2926 15.3497L23.5138 17.1309C23.0226 17.6234 22.2276 17.6234 21.7363 17.1309C21.2451 16.6397 21.2451 15.8409 21.7363 15.3497L23.5138 13.5672C25.5826 11.4959 25.4701 8.05216 23.1738 6.12966C21.1401 4.42591 18.0876 4.75091 16.2138 6.62841L14.6226 8.22216C14.1326 8.71466 13.3351 8.71466 12.8451 8.22216C12.3538 7.73091 12.3488 6.93716 13.0663 6.21841L14.4076 4.87466ZM16.6162 11.6162L11.6162 16.6162C11.1274 17.1049 11.1274 17.8949 11.6162 18.3837C11.8599 18.6274 12.1799 18.7499 12.4999 18.7499C12.8199 18.7499 13.1399 18.6274 13.3837 18.3837L18.3837 13.3837C18.8724 12.8949 18.8724 12.1049 18.3837 11.6162C17.8949 11.1274 17.1049 11.1274 16.6162 11.6162ZM15.3499 21.7459L13.7574 23.3346C11.8812 25.2059 8.82242 25.5284 6.78742 23.8321C4.48867 21.9171 4.37492 18.4846 6.44617 16.4184L8.22742 14.6434C8.71867 14.1534 8.71867 13.3584 8.22742 12.8671C7.73617 12.3784 6.93867 12.3784 6.44617 12.8671L4.85242 14.4584C2.13742 17.1659 1.66117 21.5209 4.00867 24.5509C6.84742 28.2171 12.1724 28.4646 15.3499 25.2971L17.1312 23.5221C17.6224 23.0309 17.6224 22.2371 17.1312 21.7459C16.6387 21.2546 15.8424 21.2546 15.3499 21.7459Z" fill="#666666"/>
<mask id="mask0_2447_7108" style="mask-type:luminance" maskUnits="userSpaceOnUse" x="2" y="2" width="26" height="26">
<path fill-rule="evenodd" clip-rule="evenodd" d="M14.4076 4.87466C17.1351 2.14091 21.5363 1.64716 24.5763 4.02466C28.2176 6.87216 28.4563 12.1784 25.2926 15.3497L23.5138 17.1309C23.0226 17.6234 22.2276 17.6234 21.7363 17.1309C21.2451 16.6397 21.2451 15.8409 21.7363 15.3497L23.5138 13.5672C25.5826 11.4959 25.4701 8.05216 23.1738 6.12966C21.1401 4.42591 18.0876 4.75091 16.2138 6.62841L14.6226 8.22216C14.1326 8.71466 13.3351 8.71466 12.8451 8.22216C12.3538 7.73091 12.3488 6.93716 13.0663 6.21841L14.4076 4.87466ZM16.6162 11.6162L11.6162 16.6162C11.1274 17.1049 11.1274 17.8949 11.6162 18.3837C11.8599 18.6274 12.1799 18.7499 12.4999 18.7499C12.8199 18.7499 13.1399 18.6274 13.3837 18.3837L18.3837 13.3837C18.8724 12.8949 18.8724 12.1049 18.3837 11.6162C17.8949 11.1274 17.1049 11.1274 16.6162 11.6162ZM15.3499 21.7459L13.7574 23.3346C11.8812 25.2059 8.82242 25.5284 6.78742 23.8321C4.48867 21.9171 4.37492 18.4846 6.44617 16.4184L8.22742 14.6434C8.71867 14.1534 8.71867 13.3584 8.22742 12.8671C7.73617 12.3784 6.93867 12.3784 6.44617 12.8671L4.85242 14.4584C2.13742 17.1659 1.66117 21.5209 4.00867 24.5509C6.84742 28.2171 12.1724 28.4646 15.3499 25.2971L17.1312 23.5221C17.6224 23.0309 17.6224 22.2371 17.1312 21.7459C16.6387 21.2546 15.8424 21.2546 15.3499 21.7459Z" fill="white"/>
</mask>
<g mask="url(#mask0_2447_7108)">
<rect width="30" height="30" fill="#77797E"/>
</g>
</svg>
