<svg width="49" height="49" viewBox="0 0 49 49" fill="none" xmlns="http://www.w3.org/2000/svg">
<mask id="mask0_2347_8376" style="mask-type:luminance" maskUnits="userSpaceOnUse" x="40" y="1" width="8" height="8">
<path d="M45.1932 1.07715L45.2013 3.89805H47.9475V5.96175H45.2013V8.76611H43.1127V5.96175H40.4165V3.89805H43.1127V1.07715H45.1932Z" fill="white"/>
</mask>
<g mask="url(#mask0_2347_8376)">
<path fill-rule="evenodd" clip-rule="evenodd" d="M44.3425 -0.046875L44.3649 -0.0223549L39.2336 4.66709L39.2111 4.64253L44.3425 -0.046875Z" fill="#034DA8"/>
<path fill-rule="evenodd" clip-rule="evenodd" d="M44.3546 -0.0332031L44.3848 -0.000269286L39.2534 4.68917L39.2233 4.65624L44.3546 -0.0332031Z" fill="#034EA9"/>
<path fill-rule="evenodd" clip-rule="evenodd" d="M44.375 -0.0107422L44.4051 0.0222318L39.2738 4.71163L39.2437 4.6787L44.375 -0.0107422Z" fill="#034FA9"/>
<path fill-rule="evenodd" clip-rule="evenodd" d="M44.395 0.0107422L44.4251 0.043676L39.2938 4.73312L39.2637 4.70015L44.395 0.0107422Z" fill="#034FAA"/>
<path fill-rule="evenodd" clip-rule="evenodd" d="M44.4151 0.0332031L44.4452 0.0661375L39.3139 4.75558L39.2838 4.72265L44.4151 0.0332031Z" fill="#0350AA"/>
<path fill-rule="evenodd" clip-rule="evenodd" d="M44.4352 0.0546875L44.4653 0.0876213L39.334 4.77706L39.3039 4.74413L44.4352 0.0546875Z" fill="#0351AB"/>
<path fill-rule="evenodd" clip-rule="evenodd" d="M44.4552 0.0771484L44.4853 0.110122L39.354 4.79952L39.3239 4.76659L44.4552 0.0771484Z" fill="#0353AC"/>
<path fill-rule="evenodd" clip-rule="evenodd" d="M44.4753 0.0986328L44.5054 0.131607L39.3741 4.82105L39.3439 4.78808L44.4753 0.0986328Z" fill="#0354AD"/>
<path fill-rule="evenodd" clip-rule="evenodd" d="M44.4954 0.121094L44.5255 0.154028L39.3942 4.84347L39.364 4.8105L44.4954 0.121094Z" fill="#0355AE"/>
<path fill-rule="evenodd" clip-rule="evenodd" d="M44.5154 0.142578L44.5455 0.175512L39.4142 4.86495L39.3841 4.83202L44.5154 0.142578Z" fill="#0356AE"/>
<path fill-rule="evenodd" clip-rule="evenodd" d="M44.5355 0.164062L44.5657 0.196996L39.4343 4.88644L39.4042 4.85351L44.5355 0.164062Z" fill="#0358AF"/>
<path fill-rule="evenodd" clip-rule="evenodd" d="M44.5556 0.186523L44.5857 0.219498L39.4544 4.90894L39.4243 4.87597L44.5556 0.186523Z" fill="#0359B0"/>
<path fill-rule="evenodd" clip-rule="evenodd" d="M44.5757 0.208008L44.6058 0.240942L39.4744 4.93039L39.4443 4.89741L44.5757 0.208008Z" fill="#035BB1"/>
<path fill-rule="evenodd" clip-rule="evenodd" d="M44.5957 0.230469L44.6259 0.263403L39.4946 4.95285L39.4645 4.91991L44.5957 0.230469Z" fill="#035CB2"/>
<path fill-rule="evenodd" clip-rule="evenodd" d="M44.6158 0.251953L44.6459 0.284887L39.5146 4.97433L39.4845 4.9414L44.6158 0.251953Z" fill="#035EB4"/>
<path fill-rule="evenodd" clip-rule="evenodd" d="M44.6358 0.274414L44.666 0.307348L39.5347 4.99683L39.5046 4.96386L44.6358 0.274414Z" fill="#035FB5"/>
<path fill-rule="evenodd" clip-rule="evenodd" d="M44.656 0.295898L44.6861 0.328872L39.5547 5.01832L39.5246 4.98534L44.656 0.295898Z" fill="#0261B6"/>
<path fill-rule="evenodd" clip-rule="evenodd" d="M44.676 0.317383L44.7061 0.350357L39.5748 5.0398L39.5447 5.00687L44.676 0.317383Z" fill="#0263B7"/>
<path fill-rule="evenodd" clip-rule="evenodd" d="M44.6961 0.339844L44.7262 0.372778L39.5949 5.06222L39.5648 5.02929L44.6961 0.339844Z" fill="#0265B8"/>
<path fill-rule="evenodd" clip-rule="evenodd" d="M44.7162 0.362305L44.7463 0.395239L39.615 5.08468L39.5848 5.05175L44.7162 0.362305Z" fill="#0266BA"/>
<path fill-rule="evenodd" clip-rule="evenodd" d="M44.7363 0.383789L44.7664 0.416763L39.6351 5.10617L39.605 5.07323L44.7363 0.383789Z" fill="#0268BB"/>
<path fill-rule="evenodd" clip-rule="evenodd" d="M44.7563 0.40625L44.7864 0.439224L39.6551 5.12867L39.625 5.09569L44.7563 0.40625Z" fill="#026ABC"/>
<path fill-rule="evenodd" clip-rule="evenodd" d="M44.7764 0.427734L44.8065 0.460668L39.6752 5.15011L39.6451 5.11714L44.7764 0.427734Z" fill="#026CBD"/>
<path fill-rule="evenodd" clip-rule="evenodd" d="M44.7965 0.450195L44.8266 0.483129L39.6953 5.17257L39.6652 5.13964L44.7965 0.450195Z" fill="#026EBF"/>
<path fill-rule="evenodd" clip-rule="evenodd" d="M44.8166 0.47168L44.8467 0.504654L39.7153 5.19406L39.6853 5.16112L44.8166 0.47168Z" fill="#0270C0"/>
<path fill-rule="evenodd" clip-rule="evenodd" d="M44.8367 0.494141L44.8668 0.527115L39.7354 5.21656L39.7053 5.18358L44.8367 0.494141Z" fill="#0272C2"/>
<path fill-rule="evenodd" clip-rule="evenodd" d="M44.8568 0.515625L44.8868 0.548559L39.7555 5.238L39.7254 5.20503L44.8568 0.515625Z" fill="#0274C3"/>
<path fill-rule="evenodd" clip-rule="evenodd" d="M44.8768 0.538086L44.9069 0.57102L39.7755 5.26046L39.7454 5.22753L44.8768 0.538086Z" fill="#0276C4"/>
<path fill-rule="evenodd" clip-rule="evenodd" d="M44.8969 0.55957L44.9269 0.592504L39.7956 5.28195L39.7655 5.24901L44.8969 0.55957Z" fill="#0278C6"/>
<path fill-rule="evenodd" clip-rule="evenodd" d="M44.9169 0.582031L44.947 0.615005L39.8157 5.30441L39.7856 5.27147L44.9169 0.582031Z" fill="#027BC7"/>
<path fill-rule="evenodd" clip-rule="evenodd" d="M44.937 0.603516L44.9671 0.636449L39.8358 5.32589L39.8057 5.29292L44.937 0.603516Z" fill="#027DC9"/>
<path fill-rule="evenodd" clip-rule="evenodd" d="M44.9571 0.625977L44.9872 0.658911L39.8559 5.34835L39.8258 5.31542L44.9571 0.625977Z" fill="#027FCA"/>
<path fill-rule="evenodd" clip-rule="evenodd" d="M44.9771 0.647461L45.0072 0.680395L39.8759 5.36984L39.8458 5.3369L44.9771 0.647461Z" fill="#0281CC"/>
<path fill-rule="evenodd" clip-rule="evenodd" d="M44.9972 0.668945L45.0273 0.701919L39.896 5.39132L39.8659 5.35839L44.9972 0.668945Z" fill="#0283CD"/>
<path fill-rule="evenodd" clip-rule="evenodd" d="M45.0173 0.691406L45.0474 0.72434L39.9161 5.41378L39.886 5.38081L45.0173 0.691406Z" fill="#0285CF"/>
<path fill-rule="evenodd" clip-rule="evenodd" d="M45.0374 0.712891L45.0675 0.745824L39.9361 5.43527L39.9061 5.40233L45.0374 0.712891Z" fill="#0287D0"/>
<path fill-rule="evenodd" clip-rule="evenodd" d="M45.0575 0.735352L45.0876 0.768285L39.9562 5.45773L39.9261 5.42479L45.0575 0.735352Z" fill="#028AD2"/>
<path fill-rule="evenodd" clip-rule="evenodd" d="M45.0775 0.756836L45.1076 0.78977L39.9763 5.47921L39.9461 5.44628L45.0775 0.756836Z" fill="#018CD3"/>
<path fill-rule="evenodd" clip-rule="evenodd" d="M45.0976 0.779297L45.1277 0.812231L39.9963 5.50171L39.9662 5.46874L45.0976 0.779297Z" fill="#018ED5"/>
<path fill-rule="evenodd" clip-rule="evenodd" d="M45.1176 0.800781L45.1477 0.833755L40.0164 5.5232L39.9863 5.49026L45.1176 0.800781Z" fill="#0190D6"/>
<path fill-rule="evenodd" clip-rule="evenodd" d="M45.1377 0.823242L45.1679 0.856176L40.0365 5.54562L40.0064 5.51268L45.1377 0.823242Z" fill="#0192D8"/>
<path fill-rule="evenodd" clip-rule="evenodd" d="M45.1578 0.845703L45.1879 0.878637L40.0566 5.56808L40.0265 5.53515L45.1578 0.845703Z" fill="#0195D9"/>
<path fill-rule="evenodd" clip-rule="evenodd" d="M45.1779 0.867188L45.208 0.900122L40.0767 5.58956L40.0466 5.55663L45.1779 0.867188Z" fill="#0197DB"/>
<path fill-rule="evenodd" clip-rule="evenodd" d="M45.198 0.888672L45.2281 0.921647L40.0968 5.61109L40.0667 5.57811L45.198 0.888672Z" fill="#0199DC"/>
<path fill-rule="evenodd" clip-rule="evenodd" d="M45.218 0.911133L45.2481 0.944067L40.1168 5.63351L40.0867 5.60058L45.218 0.911133Z" fill="#019BDD"/>
<path fill-rule="evenodd" clip-rule="evenodd" d="M45.2381 0.933594L45.2682 0.966528L40.1368 5.65597L40.1068 5.62304L45.2381 0.933594Z" fill="#019DDF"/>
<path fill-rule="evenodd" clip-rule="evenodd" d="M45.2582 0.955078L45.2883 0.988012L40.157 5.67745L40.1268 5.64452L45.2582 0.955078Z" fill="#019FE0"/>
<path fill-rule="evenodd" clip-rule="evenodd" d="M45.2783 0.977539L45.3084 1.01051L40.177 5.69992L40.1469 5.66698L45.2783 0.977539Z" fill="#01A1E2"/>
<path fill-rule="evenodd" clip-rule="evenodd" d="M45.2983 0.999023L45.3284 1.03196L40.1972 5.7214L40.167 5.68843L45.2983 0.999023Z" fill="#01A3E3"/>
<path fill-rule="evenodd" clip-rule="evenodd" d="M45.3184 1.02148L45.3486 1.05442L40.2172 5.74386L40.1871 5.71093L45.3184 1.02148Z" fill="#01A5E5"/>
<path fill-rule="evenodd" clip-rule="evenodd" d="M45.3384 1.04297L45.3685 1.0759L40.2372 5.76535L40.2071 5.73241L45.3384 1.04297Z" fill="#01A7E6"/>
<path fill-rule="evenodd" clip-rule="evenodd" d="M45.3585 1.06543L45.3887 1.0984L40.2573 5.78781L40.2272 5.75487L45.3585 1.06543Z" fill="#01A9E7"/>
<path fill-rule="evenodd" clip-rule="evenodd" d="M45.3786 1.08691L45.4087 1.11989L40.2774 5.80933L40.2473 5.77636L45.3786 1.08691Z" fill="#01ABE9"/>
<path fill-rule="evenodd" clip-rule="evenodd" d="M45.3987 1.1084L45.4288 1.14133L40.2975 5.83078L40.2674 5.7978L45.3987 1.1084Z" fill="#01ADEA"/>
<path fill-rule="evenodd" clip-rule="evenodd" d="M45.4188 1.13086L45.4489 1.16379L40.3175 5.85324L40.2875 5.8203L45.4188 1.13086Z" fill="#01AFEB"/>
<path fill-rule="evenodd" clip-rule="evenodd" d="M45.4388 1.15234L45.4689 1.18532L40.3376 5.87472L40.3075 5.84179L45.4388 1.15234Z" fill="#01B1EC"/>
<path fill-rule="evenodd" clip-rule="evenodd" d="M45.4589 1.1748L45.489 1.20778L40.3576 5.89722L40.3276 5.86425L45.4589 1.1748Z" fill="#01B3EE"/>
<path fill-rule="evenodd" clip-rule="evenodd" d="M45.479 1.19629L45.5091 1.22922L40.3778 5.91867L40.3476 5.88569L45.479 1.19629Z" fill="#01B4EF"/>
<path fill-rule="evenodd" clip-rule="evenodd" d="M45.4991 1.21875L45.5292 1.25168L40.3979 5.94113L40.3677 5.90819L45.4991 1.21875Z" fill="#01B6F0"/>
<path fill-rule="evenodd" clip-rule="evenodd" d="M45.5191 1.24023L45.5492 1.27317L40.4179 5.96261L40.3878 5.92968L45.5191 1.24023Z" fill="#00B8F1"/>
<path fill-rule="evenodd" clip-rule="evenodd" d="M45.5392 1.2627L45.5693 1.29567L40.438 5.98511L40.4078 5.95214L45.5392 1.2627Z" fill="#00B9F2"/>
<path fill-rule="evenodd" clip-rule="evenodd" d="M45.5592 1.28418L45.5894 1.31715L40.458 6.0066L40.4279 5.97362L45.5592 1.28418Z" fill="#00BBF3"/>
<path fill-rule="evenodd" clip-rule="evenodd" d="M45.5793 1.30664L45.6095 1.33957L40.4781 6.02902L40.448 5.99608L45.5793 1.30664Z" fill="#00BCF4"/>
<path fill-rule="evenodd" clip-rule="evenodd" d="M45.5994 1.32812L45.6295 1.36106L40.4982 6.0505L40.4681 6.01757L45.5994 1.32812Z" fill="#00BEF5"/>
<path fill-rule="evenodd" clip-rule="evenodd" d="M45.6195 1.35059L45.6496 1.38352L40.5183 6.073L40.4882 6.04003L45.6195 1.35059Z" fill="#00BFF6"/>
<path fill-rule="evenodd" clip-rule="evenodd" d="M45.6396 1.37305L45.6697 1.40602L40.5384 6.09546L40.5083 6.06249L45.6396 1.37305Z" fill="#00C1F7"/>
<path fill-rule="evenodd" clip-rule="evenodd" d="M45.6597 1.39453L45.6898 1.42751L40.5585 6.11695L40.5283 6.08401L45.6597 1.39453Z" fill="#00C2F8"/>
<path fill-rule="evenodd" clip-rule="evenodd" d="M45.6797 1.41699L45.7098 1.44993L40.5785 6.13937L40.5484 6.10643L45.6797 1.41699Z" fill="#00C3F9"/>
<path fill-rule="evenodd" clip-rule="evenodd" d="M45.6998 1.43848L45.7299 1.47141L40.5986 6.16085L40.5684 6.12792L45.6998 1.43848Z" fill="#00C4FA"/>
<path fill-rule="evenodd" clip-rule="evenodd" d="M45.7199 1.45996L45.75 1.49293L40.6187 6.18234L40.5885 6.1494L45.7199 1.45996Z" fill="#00C5FA"/>
<path fill-rule="evenodd" clip-rule="evenodd" d="M45.7399 1.48242L45.7701 1.5154L40.6387 6.20484L40.6086 6.17186L45.7399 1.48242Z" fill="#00C6FB"/>
<path fill-rule="evenodd" clip-rule="evenodd" d="M45.76 1.50488L45.7902 1.53782L40.6588 6.22726L40.6287 6.19429L45.76 1.50488Z" fill="#00C7FC"/>
<path fill-rule="evenodd" clip-rule="evenodd" d="M45.7801 1.52637L45.8102 1.5593L40.6789 6.24874L40.6488 6.21581L45.7801 1.52637Z" fill="#00C8FC"/>
<path fill-rule="evenodd" clip-rule="evenodd" d="M45.8001 1.54785L45.8302 1.58079L40.6989 6.27023L40.6688 6.23729L45.8001 1.54785Z" fill="#00C9FD"/>
<path fill-rule="evenodd" clip-rule="evenodd" d="M45.8202 1.57031L45.8503 1.60329L40.719 6.29269L40.6889 6.25976L45.8202 1.57031Z" fill="#00CAFD"/>
<path fill-rule="evenodd" clip-rule="evenodd" d="M45.8402 1.5918L45.8704 1.62473L40.7391 6.31417L40.709 6.2812L45.8402 1.5918Z" fill="#00CAFE"/>
<path fill-rule="evenodd" clip-rule="evenodd" d="M45.8604 1.61426L45.8905 1.64719L40.7592 6.33663L40.729 6.3037L45.8604 1.61426Z" fill="#00CBFE"/>
<path fill-rule="evenodd" clip-rule="evenodd" d="M45.8804 1.63574L45.9105 1.66868L40.7792 6.35812L40.7491 6.32518L45.8804 1.63574Z" fill="#00CBFE"/>
<path fill-rule="evenodd" clip-rule="evenodd" d="M45.9005 1.6582L45.9306 1.69118L40.7993 6.38058L40.7691 6.34765L45.9005 1.6582Z" fill="#00CBFF"/>
<path fill-rule="evenodd" clip-rule="evenodd" d="M45.9206 1.67969L45.9507 1.71262L40.8194 6.40206L40.7892 6.36909L45.9206 1.67969Z" fill="#00CCFF"/>
<path fill-rule="evenodd" clip-rule="evenodd" d="M45.9406 1.70215L45.9708 1.73508L40.8394 6.42452L40.8093 6.39159L45.9406 1.70215Z" fill="#00CCFF"/>
<path fill-rule="evenodd" clip-rule="evenodd" d="M45.9607 1.72363L45.9909 1.75657L40.8595 6.44601L40.8294 6.41308L45.9607 1.72363Z" fill="#00CCFF"/>
<path fill-rule="evenodd" clip-rule="evenodd" d="M45.9808 1.74609L46.0109 1.77907L40.8796 6.46847L40.8495 6.43554L45.9808 1.74609Z" fill="#00CCFF"/>
<path fill-rule="evenodd" clip-rule="evenodd" d="M46.0008 1.76758L46.031 1.80051L40.8996 6.48996L40.8695 6.45698L46.0008 1.76758Z" fill="#00CCFF"/>
<path fill-rule="evenodd" clip-rule="evenodd" d="M46.021 1.79004L46.0511 1.82297L40.9198 6.51242L40.8897 6.47948L46.021 1.79004Z" fill="#01CCFE"/>
<path fill-rule="evenodd" clip-rule="evenodd" d="M46.041 1.81152L46.0711 1.84446L40.9398 6.5339L40.9097 6.50097L46.041 1.81152Z" fill="#01CCFE"/>
<path fill-rule="evenodd" clip-rule="evenodd" d="M46.0611 1.83398L46.0912 1.86692L40.9599 6.55636L40.9298 6.52343L46.0611 1.83398Z" fill="#02CCFD"/>
<path fill-rule="evenodd" clip-rule="evenodd" d="M46.0812 1.85547L46.1113 1.8884L40.98 6.57789L40.9498 6.54491L46.0812 1.85547Z" fill="#02CBFC"/>
<path fill-rule="evenodd" clip-rule="evenodd" d="M46.1012 1.87793L46.1313 1.9109L41 6.60035L40.9699 6.56741L46.1012 1.87793Z" fill="#03CBFC"/>
<path fill-rule="evenodd" clip-rule="evenodd" d="M46.1213 1.89941L46.1514 1.93235L41.0201 6.62179L40.99 6.58886L46.1213 1.89941Z" fill="#04CBFA"/>
<path fill-rule="evenodd" clip-rule="evenodd" d="M46.1414 1.92188L46.1715 1.95481L41.0402 6.64425L41.01 6.61132L46.1414 1.92188Z" fill="#06CAF9"/>
<path fill-rule="evenodd" clip-rule="evenodd" d="M46.1615 1.94336L46.1916 1.97629L41.0603 6.66574L41.0302 6.6328L46.1615 1.94336Z" fill="#07CAF8"/>
<path fill-rule="evenodd" clip-rule="evenodd" d="M46.1816 1.96582L46.2117 1.99879L41.0803 6.68824L41.0502 6.65526L46.1816 1.96582Z" fill="#08CAF7"/>
<path fill-rule="evenodd" clip-rule="evenodd" d="M46.2016 1.9873L46.2317 2.02024L41.1004 6.70968L41.0703 6.67675L46.2016 1.9873Z" fill="#0AC9F5"/>
<path fill-rule="evenodd" clip-rule="evenodd" d="M46.2217 2.00977L46.2518 2.0427L41.1205 6.73214L41.0904 6.69921L46.2217 2.00977Z" fill="#0BC9F3"/>
<path fill-rule="evenodd" clip-rule="evenodd" d="M46.2417 2.03125L46.2719 2.06418L41.1405 6.75363L41.1105 6.72069L46.2417 2.03125Z" fill="#0DC8F1"/>
<path fill-rule="evenodd" clip-rule="evenodd" d="M46.2619 2.05371L46.292 2.08668L41.1606 6.77609L41.1305 6.74315L46.2619 2.05371Z" fill="#0FC8F0"/>
<path fill-rule="evenodd" clip-rule="evenodd" d="M46.2819 2.0752L46.312 2.10817L41.1807 6.79761L41.1506 6.76464L46.2819 2.0752Z" fill="#11C7ED"/>
<path fill-rule="evenodd" clip-rule="evenodd" d="M46.302 2.09668L46.3321 2.12961L41.2007 6.81906L41.1706 6.78608L46.302 2.09668Z" fill="#13C7EB"/>
<path fill-rule="evenodd" clip-rule="evenodd" d="M46.3221 2.11914L46.3521 2.15208L41.2208 6.84152L41.1907 6.80858L46.3221 2.11914Z" fill="#15C6E9"/>
<path fill-rule="evenodd" clip-rule="evenodd" d="M46.3421 2.14062L46.3722 2.1736L41.2409 6.863L41.2108 6.83007L46.3421 2.14062Z" fill="#18C5E7"/>
<path fill-rule="evenodd" clip-rule="evenodd" d="M46.3622 2.16309L46.3923 2.19606L41.261 6.8855L41.2309 6.85253L46.3622 2.16309Z" fill="#1AC5E4"/>
<path fill-rule="evenodd" clip-rule="evenodd" d="M46.3823 2.18457L46.4124 2.2175L41.2811 6.90695L41.251 6.87397L46.3823 2.18457Z" fill="#1DC4E2"/>
<path fill-rule="evenodd" clip-rule="evenodd" d="M46.4024 2.20703L46.4325 2.23997L41.3012 6.92941L41.2711 6.89647L46.4024 2.20703Z" fill="#1FC3DF"/>
<path fill-rule="evenodd" clip-rule="evenodd" d="M46.4224 2.22949L46.4525 2.26247L41.3212 6.95187L41.2911 6.91893L46.4224 2.22949Z" fill="#22C2DC"/>
<path fill-rule="evenodd" clip-rule="evenodd" d="M46.4425 2.25098L46.4726 2.28395L41.3413 6.97339L41.3112 6.94042L46.4425 2.25098Z" fill="#24C2DA"/>
<path fill-rule="evenodd" clip-rule="evenodd" d="M46.4626 2.27344L46.4927 2.30637L41.3613 6.99581L41.3313 6.96284L46.4626 2.27344Z" fill="#27C1D7"/>
<path fill-rule="evenodd" clip-rule="evenodd" d="M46.4827 2.29492L46.5128 2.32786L41.3814 7.0173L41.3513 6.98436L46.4827 2.29492Z" fill="#2AC0D4"/>
<path fill-rule="evenodd" clip-rule="evenodd" d="M46.5028 2.31738L46.5328 2.35032L41.4015 7.03976L41.3714 7.00683L46.5028 2.31738Z" fill="#2DBFD1"/>
<path fill-rule="evenodd" clip-rule="evenodd" d="M46.5228 2.33887L46.5529 2.37184L41.4216 7.06128L41.3915 7.02831L46.5228 2.33887Z" fill="#30BECE"/>
<path fill-rule="evenodd" clip-rule="evenodd" d="M46.5428 2.36133L46.5729 2.3943L41.4416 7.08375L41.4115 7.05077L46.5428 2.36133Z" fill="#33BDCA"/>
<path fill-rule="evenodd" clip-rule="evenodd" d="M46.5629 2.38281L46.593 2.41575L41.4617 7.10519L41.4316 7.07226L46.5629 2.38281Z" fill="#36BCC7"/>
<path fill-rule="evenodd" clip-rule="evenodd" d="M46.583 2.40527L46.6131 2.43821L41.4818 7.12765L41.4517 7.09472L46.583 2.40527Z" fill="#3ABBC4"/>
<path fill-rule="evenodd" clip-rule="evenodd" d="M46.6031 2.42676L46.6332 2.45969L41.5019 7.14917L41.4718 7.1162L46.6031 2.42676Z" fill="#3DBAC1"/>
<path fill-rule="evenodd" clip-rule="evenodd" d="M46.6232 2.44922L46.6533 2.48219L41.522 7.17164L41.4919 7.13866L46.6232 2.44922Z" fill="#40B9BD"/>
<path fill-rule="evenodd" clip-rule="evenodd" d="M46.6433 2.4707L46.6734 2.50368L41.542 7.19312L41.512 7.16019L46.6433 2.4707Z" fill="#44B8BA"/>
<path fill-rule="evenodd" clip-rule="evenodd" d="M46.6633 2.49219L46.6934 2.52512L41.562 7.21456L41.532 7.18163L46.6633 2.49219Z" fill="#47B7B6"/>
<path fill-rule="evenodd" clip-rule="evenodd" d="M46.6834 2.51465L46.7135 2.54758L41.5822 7.23702L41.552 7.20409L46.6834 2.51465Z" fill="#4BB6B3"/>
<path fill-rule="evenodd" clip-rule="evenodd" d="M46.7035 2.53613L46.7336 2.56907L41.6022 7.25851L41.5721 7.22558L46.7035 2.53613Z" fill="#4EB5AF"/>
<path fill-rule="evenodd" clip-rule="evenodd" d="M46.7235 2.55859L46.7536 2.59157L41.6223 7.28097L41.5922 7.24804L46.7235 2.55859Z" fill="#52B4AB"/>
<path fill-rule="evenodd" clip-rule="evenodd" d="M46.7436 2.58008L46.7738 2.61301L41.6424 7.30245L41.6123 7.26948L46.7436 2.58008Z" fill="#55B3A8"/>
<path fill-rule="evenodd" clip-rule="evenodd" d="M46.7636 2.60254L46.7937 2.63547L41.6624 7.32492L41.6323 7.29198L46.7636 2.60254Z" fill="#59B2A4"/>
<path fill-rule="evenodd" clip-rule="evenodd" d="M46.7837 2.62402L46.8139 2.65696L41.6825 7.3464L41.6524 7.31347L46.7837 2.62402Z" fill="#5CB1A0"/>
<path fill-rule="evenodd" clip-rule="evenodd" d="M46.8038 2.64648L46.8339 2.67946L41.7026 7.36886L41.6725 7.33593L46.8038 2.64648Z" fill="#60B09C"/>
<path fill-rule="evenodd" clip-rule="evenodd" d="M46.8239 2.66797L46.854 2.7009L41.7227 7.39035L41.6926 7.35737L46.8239 2.66797Z" fill="#64AE99"/>
<path fill-rule="evenodd" clip-rule="evenodd" d="M46.844 2.69043L46.8741 2.72336L41.7428 7.41281L41.7127 7.37987L46.844 2.69043Z" fill="#67AD95"/>
<path fill-rule="evenodd" clip-rule="evenodd" d="M46.8641 2.71191L46.8942 2.74485L41.7629 7.43429L41.7327 7.40136L46.8641 2.71191Z" fill="#6BAC91"/>
<path fill-rule="evenodd" clip-rule="evenodd" d="M46.8841 2.73438L46.9142 2.76735L41.7828 7.45675L41.7528 7.42382L46.8841 2.73438Z" fill="#6FAB8D"/>
<path fill-rule="evenodd" clip-rule="evenodd" d="M46.9042 2.75586L46.9343 2.78879L41.803 7.47824L41.7728 7.44526L46.9042 2.75586Z" fill="#73AA89"/>
<path fill-rule="evenodd" clip-rule="evenodd" d="M46.9243 2.77832L46.9544 2.81125L41.823 7.5007L41.7929 7.46776L46.9243 2.77832Z" fill="#76A985"/>
<path fill-rule="evenodd" clip-rule="evenodd" d="M46.9443 2.80078L46.9744 2.83372L41.8431 7.52316L41.813 7.49022L46.9443 2.80078Z" fill="#7AA782"/>
<path fill-rule="evenodd" clip-rule="evenodd" d="M46.9644 2.82227L46.9946 2.85524L41.8632 7.54464L41.8331 7.51171L46.9644 2.82227Z" fill="#7EA67E"/>
<path fill-rule="evenodd" clip-rule="evenodd" d="M46.9845 2.84473L47.0146 2.87766L41.8833 7.5671L41.8532 7.53413L46.9845 2.84473Z" fill="#82A57A"/>
<path fill-rule="evenodd" clip-rule="evenodd" d="M47.0045 2.86621L47.0347 2.89914L41.9033 7.58859L41.8732 7.55565L47.0045 2.86621Z" fill="#85A476"/>
<path fill-rule="evenodd" clip-rule="evenodd" d="M47.0246 2.88867L47.0547 2.92161L41.9234 7.61105L41.8933 7.57811L47.0246 2.88867Z" fill="#89A272"/>
<path fill-rule="evenodd" clip-rule="evenodd" d="M47.0447 2.91016L47.0748 2.94309L41.9435 7.63253L41.9134 7.5996L47.0447 2.91016Z" fill="#8DA16E"/>
<path fill-rule="evenodd" clip-rule="evenodd" d="M47.0648 2.93164L47.0949 2.96457L41.9636 7.65406L41.9335 7.62108L47.0648 2.93164Z" fill="#90A06B"/>
<path fill-rule="evenodd" clip-rule="evenodd" d="M47.0849 2.9541L47.115 2.98708L41.9837 7.67652L41.9535 7.64358L47.0849 2.9541Z" fill="#949F67"/>
<path fill-rule="evenodd" clip-rule="evenodd" d="M47.105 2.97559L47.1351 3.00852L42.0038 7.69796L41.9736 7.66503L47.105 2.97559Z" fill="#989E63"/>
<path fill-rule="evenodd" clip-rule="evenodd" d="M47.125 2.99805L47.1551 3.03098L42.0238 7.72042L41.9936 7.68749L47.125 2.99805Z" fill="#9B9C5F"/>
<path fill-rule="evenodd" clip-rule="evenodd" d="M47.145 3.01953L47.1752 3.05247L42.0438 7.74191L42.0137 7.70897L47.145 3.01953Z" fill="#9F9B5C"/>
<path fill-rule="evenodd" clip-rule="evenodd" d="M47.1651 3.04102L47.1953 3.07399L42.0639 7.76343L42.0338 7.73046L47.1651 3.04102Z" fill="#A39A58"/>
<path fill-rule="evenodd" clip-rule="evenodd" d="M47.1852 3.06348L47.2154 3.09645L42.084 7.78589L42.0539 7.75292L47.1852 3.06348Z" fill="#A69954"/>
<path fill-rule="evenodd" clip-rule="evenodd" d="M47.2053 3.08594L47.2354 3.11887L42.1041 7.80831L42.074 7.77538L47.2053 3.08594Z" fill="#AA9751"/>
<path fill-rule="evenodd" clip-rule="evenodd" d="M47.2253 3.10742L47.2554 3.14036L42.1241 7.8298L42.094 7.79686L47.2253 3.10742Z" fill="#AD964D"/>
<path fill-rule="evenodd" clip-rule="evenodd" d="M47.2454 3.12988L47.2755 3.16286L42.1442 7.85226L42.1141 7.81933L47.2454 3.12988Z" fill="#B0954A"/>
<path fill-rule="evenodd" clip-rule="evenodd" d="M47.2655 3.15137L47.2956 3.18434L42.1643 7.87378L42.1342 7.84081L47.2655 3.15137Z" fill="#B49446"/>
<path fill-rule="evenodd" clip-rule="evenodd" d="M47.2856 3.17383L47.3157 3.20676L42.1844 7.8962L42.1542 7.86323L47.2856 3.17383Z" fill="#B79343"/>
<path fill-rule="evenodd" clip-rule="evenodd" d="M47.3057 3.19531L47.3358 3.22825L42.2045 7.91769L42.1743 7.88476L47.3057 3.19531Z" fill="#BA913F"/>
<path fill-rule="evenodd" clip-rule="evenodd" d="M47.3257 3.21777L47.3559 3.25075L42.2245 7.94015L42.1944 7.90722L47.3257 3.21777Z" fill="#BD903C"/>
<path fill-rule="evenodd" clip-rule="evenodd" d="M47.3458 3.23926L47.3759 3.27223L42.2446 7.96167L42.2145 7.9287L47.3458 3.23926Z" fill="#C18F39"/>
<path fill-rule="evenodd" clip-rule="evenodd" d="M47.3658 3.26172L47.396 3.29465L42.2646 7.9841L42.2345 7.95112L47.3658 3.26172Z" fill="#C48E36"/>
<path fill-rule="evenodd" clip-rule="evenodd" d="M47.3859 3.2832L47.4161 3.31614L42.2847 8.00558L42.2546 7.97265L47.3859 3.2832Z" fill="#C78D33"/>
<path fill-rule="evenodd" clip-rule="evenodd" d="M47.4061 3.30566L47.4361 3.33864L42.3048 8.02804L42.2747 7.99511L47.4061 3.30566Z" fill="#CA8B30"/>
<path fill-rule="evenodd" clip-rule="evenodd" d="M47.4261 3.32715L47.4562 3.36012L42.3249 8.04957L42.2948 8.01659L47.4261 3.32715Z" fill="#CC8A2D"/>
<path fill-rule="evenodd" clip-rule="evenodd" d="M47.4462 3.34961L47.4763 3.38254L42.345 8.07199L42.3149 8.03901L47.4462 3.34961Z" fill="#CF892A"/>
<path fill-rule="evenodd" clip-rule="evenodd" d="M47.4663 3.37109L47.4964 3.40403L42.3651 8.09347L42.3349 8.06054L47.4663 3.37109Z" fill="#D28827"/>
<path fill-rule="evenodd" clip-rule="evenodd" d="M47.4863 3.39355L47.5165 3.42649L42.3851 8.11593L42.355 8.083L47.4863 3.39355Z" fill="#D48724"/>
<path fill-rule="evenodd" clip-rule="evenodd" d="M47.5064 3.41504L47.5365 3.44797L42.4052 8.13746L42.375 8.10448L47.5064 3.41504Z" fill="#D78622"/>
<path fill-rule="evenodd" clip-rule="evenodd" d="M47.5264 3.4375L47.5565 3.47047L42.4252 8.15992L42.3951 8.12694L47.5264 3.4375Z" fill="#D9851F"/>
<path fill-rule="evenodd" clip-rule="evenodd" d="M47.5466 3.45898L47.5767 3.49192L42.4453 8.18136L42.4152 8.14843L47.5466 3.45898Z" fill="#DC841D"/>
<path fill-rule="evenodd" clip-rule="evenodd" d="M47.5666 3.48047L47.5967 3.5134L42.4654 8.20285L42.4353 8.16991L47.5666 3.48047Z" fill="#DE831A"/>
<path fill-rule="evenodd" clip-rule="evenodd" d="M47.5867 3.50293L47.6168 3.53586L42.4854 8.22531L42.4553 8.19237L47.5867 3.50293Z" fill="#E08218"/>
<path fill-rule="evenodd" clip-rule="evenodd" d="M47.6068 3.52441L47.6369 3.55735L42.5056 8.24683L42.4755 8.21386L47.6068 3.52441Z" fill="#E28116"/>
<path fill-rule="evenodd" clip-rule="evenodd" d="M47.6268 3.54688L47.6569 3.57985L42.5256 8.26929L42.4955 8.23636L47.6268 3.54688Z" fill="#E48014"/>
<path fill-rule="evenodd" clip-rule="evenodd" d="M47.6469 3.56836L47.677 3.60129L42.5457 8.29074L42.5156 8.2578L47.6469 3.56836Z" fill="#E67F12"/>
<path fill-rule="evenodd" clip-rule="evenodd" d="M47.6669 3.59082L47.6971 3.62375L42.5657 8.3132L42.5357 8.28026L47.6669 3.59082Z" fill="#E87E10"/>
<path fill-rule="evenodd" clip-rule="evenodd" d="M47.687 3.6123L47.7171 3.64524L42.5858 8.33468L42.5557 8.30175L47.687 3.6123Z" fill="#E97D0F"/>
<path fill-rule="evenodd" clip-rule="evenodd" d="M47.7071 3.63477L47.7372 3.66774L42.6059 8.35714L42.5758 8.32421L47.7071 3.63477Z" fill="#EB7C0D"/>
<path fill-rule="evenodd" clip-rule="evenodd" d="M47.7272 3.65723L47.7573 3.69016L42.626 8.3796L42.5959 8.34663L47.7272 3.65723Z" fill="#EC7B0C"/>
<path fill-rule="evenodd" clip-rule="evenodd" d="M47.7473 3.67871L47.7774 3.71165L42.6461 8.40109L42.616 8.36815L47.7473 3.67871Z" fill="#ED7A0A"/>
<path fill-rule="evenodd" clip-rule="evenodd" d="M47.7673 3.70117L47.7974 3.73411L42.6661 8.42355L42.636 8.39061L47.7673 3.70117Z" fill="#EE7909"/>
<path fill-rule="evenodd" clip-rule="evenodd" d="M47.7874 3.72266L47.8175 3.75563L42.6862 8.44503L42.6561 8.4121L47.7874 3.72266Z" fill="#EF7808"/>
<path fill-rule="evenodd" clip-rule="evenodd" d="M47.8075 3.74512L47.8376 3.77805L42.7063 8.46749L42.6762 8.43452L47.8075 3.74512Z" fill="#F07807"/>
<path fill-rule="evenodd" clip-rule="evenodd" d="M47.8276 3.7666L47.8577 3.79954L42.7264 8.48898L42.6963 8.45604L47.8276 3.7666Z" fill="#F17707"/>
<path fill-rule="evenodd" clip-rule="evenodd" d="M47.8477 3.78906L47.8778 3.822L42.7464 8.51144L42.7164 8.47851L47.8477 3.78906Z" fill="#F17606"/>
<path fill-rule="evenodd" clip-rule="evenodd" d="M47.8678 3.81055L47.8979 3.84352L42.7665 8.53292L42.7364 8.49999L47.8678 3.81055Z" fill="#F27505"/>
<path fill-rule="evenodd" clip-rule="evenodd" d="M47.8878 3.83301L47.9179 3.86594L42.7865 8.55538L42.7565 8.52241L47.8878 3.83301Z" fill="#F27505"/>
<path fill-rule="evenodd" clip-rule="evenodd" d="M47.9079 3.85449L47.938 3.88743L42.8066 8.57687L42.7765 8.54393L47.9079 3.85449Z" fill="#F27405"/>
<path fill-rule="evenodd" clip-rule="evenodd" d="M47.928 3.87598L47.958 3.90891L42.8267 8.59835L42.7966 8.56542L47.928 3.87598Z" fill="#F27305"/>
<path fill-rule="evenodd" clip-rule="evenodd" d="M47.948 3.89844L47.9781 3.93141L42.8468 8.62081L42.8167 8.58788L47.948 3.89844Z" fill="#F27205"/>
<path fill-rule="evenodd" clip-rule="evenodd" d="M47.9681 3.91992L47.9982 3.95286L42.8669 8.6423L42.8368 8.60933L47.9681 3.91992Z" fill="#F27105"/>
<path fill-rule="evenodd" clip-rule="evenodd" d="M47.9881 3.94238L48.0182 3.97532L42.8869 8.66476L42.8568 8.63183L47.9881 3.94238Z" fill="#F27105"/>
<path fill-rule="evenodd" clip-rule="evenodd" d="M48.0082 3.96387L48.0383 3.9968L42.907 8.68624L42.8769 8.65331L48.0082 3.96387Z" fill="#F27005"/>
<path fill-rule="evenodd" clip-rule="evenodd" d="M48.0283 3.98633L48.0584 4.01926L42.9271 8.70871L42.897 8.67577L48.0283 3.98633Z" fill="#F16F05"/>
<path fill-rule="evenodd" clip-rule="evenodd" d="M48.0484 4.00781L48.0785 4.04075L42.9472 8.73023L42.9171 8.69726L48.0484 4.00781Z" fill="#F16E04"/>
<path fill-rule="evenodd" clip-rule="evenodd" d="M48.0685 4.03027L48.0986 4.06325L42.9672 8.75269L42.9372 8.71972L48.0685 4.03027Z" fill="#F16D04"/>
<path fill-rule="evenodd" clip-rule="evenodd" d="M48.0885 4.05176L48.1186 4.08473L42.9872 8.77417L42.9572 8.74124L48.0885 4.05176Z" fill="#F16C04"/>
<path fill-rule="evenodd" clip-rule="evenodd" d="M48.1086 4.07422L48.1387 4.10715L43.0073 8.7966L42.9772 8.76366L48.1086 4.07422Z" fill="#F16C04"/>
<path fill-rule="evenodd" clip-rule="evenodd" d="M48.1287 4.0957L48.1587 4.12864L43.0274 8.81808L42.9973 8.78515L48.1287 4.0957Z" fill="#F06B04"/>
<path fill-rule="evenodd" clip-rule="evenodd" d="M48.1487 4.11816L48.1788 4.15114L43.0475 8.84058L43.0174 8.80761L48.1487 4.11816Z" fill="#F06A04"/>
<path fill-rule="evenodd" clip-rule="evenodd" d="M48.1688 4.13965L48.1989 4.17262L43.0676 8.86207L43.0375 8.82909L48.1688 4.13965Z" fill="#F06904"/>
<path fill-rule="evenodd" clip-rule="evenodd" d="M48.1889 4.16211L48.219 4.19504L43.0877 8.88449L43.0576 8.85155L48.1889 4.16211Z" fill="#EF6804"/>
<path fill-rule="evenodd" clip-rule="evenodd" d="M48.209 4.18457L48.2391 4.2175L43.1078 8.90695L43.0777 8.87401L48.209 4.18457Z" fill="#EF6804"/>
<path fill-rule="evenodd" clip-rule="evenodd" d="M48.229 4.20605L48.2591 4.23903L43.1278 8.92843L43.0977 8.8955L48.229 4.20605Z" fill="#EF6704"/>
<path fill-rule="evenodd" clip-rule="evenodd" d="M48.2491 4.22852L48.2792 4.26149L43.1479 8.95093L43.1178 8.91796L48.2491 4.22852Z" fill="#EE6604"/>
<path fill-rule="evenodd" clip-rule="evenodd" d="M48.2692 4.25L48.2993 4.28293L43.168 8.97238L43.1379 8.9394L48.2692 4.25Z" fill="#EE6504"/>
<path fill-rule="evenodd" clip-rule="evenodd" d="M48.2893 4.27246L48.3194 4.3054L43.188 8.99484L43.1579 8.9619L48.2893 4.27246Z" fill="#ED6504"/>
<path fill-rule="evenodd" clip-rule="evenodd" d="M48.3094 4.29395L48.3394 4.32692L43.2082 9.01632L43.178 8.98339L48.3094 4.29395Z" fill="#ED6404"/>
<path fill-rule="evenodd" clip-rule="evenodd" d="M48.3294 4.31543L48.3596 4.3484L43.2282 9.03785L43.1981 9.00487L48.3294 4.31543Z" fill="#ED6304"/>
<path fill-rule="evenodd" clip-rule="evenodd" d="M48.3495 4.33789L48.3795 4.37082L43.2482 9.06027L43.2181 9.02729L48.3495 4.33789Z" fill="#EC6304"/>
<path fill-rule="evenodd" clip-rule="evenodd" d="M48.3695 4.35938L48.3997 4.39231L43.2683 9.08175L43.2382 9.04882L48.3695 4.35938Z" fill="#EC6204"/>
<path fill-rule="evenodd" clip-rule="evenodd" d="M48.3896 4.38184L48.4198 4.41481L43.2884 9.10421L43.2583 9.07128L48.3896 4.38184Z" fill="#EB6104"/>
<path fill-rule="evenodd" clip-rule="evenodd" d="M48.4097 4.40332L48.4398 4.43629L43.3085 9.12574L43.2784 9.09276L48.4097 4.40332Z" fill="#EB6104"/>
<path fill-rule="evenodd" clip-rule="evenodd" d="M48.4298 4.4248L48.4599 4.45774L43.3286 9.14718L43.2985 9.11421L48.4298 4.4248Z" fill="#EA6003"/>
<path fill-rule="evenodd" clip-rule="evenodd" d="M48.4498 4.44727L48.4799 4.4802L43.3486 9.16964L43.3185 9.13671L48.4498 4.44727Z" fill="#EA5F03"/>
<path fill-rule="evenodd" clip-rule="evenodd" d="M48.4699 4.46973L48.5 4.50266L43.3687 9.1921L43.3386 9.15917L48.4699 4.46973Z" fill="#E95F03"/>
<path fill-rule="evenodd" clip-rule="evenodd" d="M48.49 4.49121L48.5201 4.52414L43.3888 9.21359L43.3587 9.18065L48.49 4.49121Z" fill="#E95E03"/>
<path fill-rule="evenodd" clip-rule="evenodd" d="M48.5101 4.51367L48.5402 4.54665L43.4089 9.23609L43.3787 9.20311L48.5101 4.51367Z" fill="#E85D03"/>
<path fill-rule="evenodd" clip-rule="evenodd" d="M48.5302 4.53516L48.5603 4.56809L43.429 9.25753L43.3988 9.2246L48.5302 4.53516Z" fill="#E75D03"/>
<path fill-rule="evenodd" clip-rule="evenodd" d="M48.5502 4.55762L48.5803 4.59055L43.449 9.27999L43.4188 9.24706L48.5502 4.55762Z" fill="#E75C03"/>
<path fill-rule="evenodd" clip-rule="evenodd" d="M48.5702 4.5791L48.6004 4.61204L43.469 9.30148L43.4389 9.26854L48.5702 4.5791Z" fill="#E65C03"/>
<path fill-rule="evenodd" clip-rule="evenodd" d="M48.5903 4.60156L48.6205 4.6345L43.4891 9.32398L43.459 9.29101L48.5903 4.60156Z" fill="#E65B03"/>
<path fill-rule="evenodd" clip-rule="evenodd" d="M48.6104 4.62305L48.6406 4.65602L43.5092 9.34546L43.4791 9.31253L48.6104 4.62305Z" fill="#E55B03"/>
<path fill-rule="evenodd" clip-rule="evenodd" d="M48.6305 4.64551L48.6606 4.67844L43.5293 9.36788L43.4992 9.33495L48.6305 4.64551Z" fill="#E55A03"/>
<path fill-rule="evenodd" clip-rule="evenodd" d="M48.6506 4.66699L48.6807 4.69993L43.5494 9.38937L43.5193 9.35643L48.6506 4.66699Z" fill="#E45A03"/>
<path fill-rule="evenodd" clip-rule="evenodd" d="M48.6707 4.68945L48.7008 4.72239L43.5695 9.41183L43.5394 9.3789L48.6707 4.68945Z" fill="#E45903"/>
<path fill-rule="evenodd" clip-rule="evenodd" d="M48.6907 4.71094L48.7208 4.74391L43.5895 9.43331L43.5594 9.40038L48.6907 4.71094Z" fill="#E35903"/>
<path fill-rule="evenodd" clip-rule="evenodd" d="M48.7108 4.7334L48.7409 4.76633L43.6096 9.45577L43.5794 9.4228L48.7108 4.7334Z" fill="#E35803"/>
<path fill-rule="evenodd" clip-rule="evenodd" d="M48.7309 4.75488L48.761 4.78782L43.6297 9.47726L43.5995 9.44433L48.7309 4.75488Z" fill="#E25803"/>
<path fill-rule="evenodd" clip-rule="evenodd" d="M48.7509 4.77734L48.7811 4.81028L43.6498 9.49972L43.6196 9.46679L48.7509 4.77734Z" fill="#E25703"/>
<path fill-rule="evenodd" clip-rule="evenodd" d="M48.771 4.79883L48.8012 4.8318L43.6698 9.5212L43.6397 9.48827L48.771 4.79883Z" fill="#E15703"/>
<path fill-rule="evenodd" clip-rule="evenodd" d="M48.7911 4.82129L48.8212 4.85422L43.6899 9.54367L43.6598 9.51069L48.7911 4.82129Z" fill="#E05603"/>
<path fill-rule="evenodd" clip-rule="evenodd" d="M48.8112 4.84277L48.8413 4.87571L43.71 9.56515L43.6799 9.53222L48.8112 4.84277Z" fill="#E05603"/>
<path fill-rule="evenodd" clip-rule="evenodd" d="M48.8312 4.86426L48.8613 4.89719L43.73 9.58664L43.6999 9.5537L48.8312 4.86426Z" fill="#E05603"/>
<path fill-rule="evenodd" clip-rule="evenodd" d="M48.8513 4.88672L48.8814 4.91969L43.7501 9.6091L43.72 9.57616L48.8513 4.88672Z" fill="#DF5503"/>
<path fill-rule="evenodd" clip-rule="evenodd" d="M48.8714 4.9082L48.9015 4.94114L43.7702 9.63058L43.7401 9.59761L48.8714 4.9082Z" fill="#DF5503"/>
<path fill-rule="evenodd" clip-rule="evenodd" d="M48.8915 4.93066L48.9216 4.9636L43.7903 9.65304L43.7601 9.62011L48.8915 4.93066Z" fill="#DE5403"/>
<path fill-rule="evenodd" clip-rule="evenodd" d="M48.9115 4.95215L48.9416 4.98508L43.8103 9.67452L43.7802 9.64159L48.9115 4.95215Z" fill="#DE5403"/>
<path fill-rule="evenodd" clip-rule="evenodd" d="M48.9316 4.97461L48.9617 5.00758L43.8304 9.69699L43.8002 9.66405L48.9316 4.97461Z" fill="#DD5403"/>
<path fill-rule="evenodd" clip-rule="evenodd" d="M48.9517 4.99609L48.9818 5.02907L43.8505 9.71851L43.8204 9.68554L48.9517 4.99609Z" fill="#DD5403"/>
<path fill-rule="evenodd" clip-rule="evenodd" d="M48.9717 5.01855L49.0019 5.05149L43.8705 9.74093L43.8404 9.70796L48.9717 5.01855Z" fill="#DC5303"/>
<path fill-rule="evenodd" clip-rule="evenodd" d="M48.9918 5.04102L49.0219 5.07395L43.8906 9.76339L43.8605 9.73046L48.9918 5.04102Z" fill="#DC5303"/>
<path fill-rule="evenodd" clip-rule="evenodd" d="M49.0119 5.0625L49.042 5.09543L43.9106 9.78488L43.8805 9.75194L49.0119 5.0625Z" fill="#DC5303"/>
<path fill-rule="evenodd" clip-rule="evenodd" d="M49.032 5.08496L49.0621 5.11789L43.9308 9.80738L43.9007 9.7744L49.032 5.08496Z" fill="#DB5203"/>
<path fill-rule="evenodd" clip-rule="evenodd" d="M49.052 5.10645L49.0821 5.13942L43.9508 9.82886L43.9207 9.79589L49.052 5.10645Z" fill="#DB5203"/>
<path fill-rule="evenodd" clip-rule="evenodd" d="M49.0721 5.12891L49.1023 5.16188L43.9709 9.85132L43.9408 9.81839L49.0721 5.12891Z" fill="#DB5203"/>
<path fill-rule="evenodd" clip-rule="evenodd" d="M49.0922 5.15039L49.1223 5.18332L43.9909 9.87277L43.9609 9.83983L49.0922 5.15039Z" fill="#DA5203"/>
<path fill-rule="evenodd" clip-rule="evenodd" d="M49.1123 5.17285L49.1424 5.20579L44.0111 9.89523L43.9809 9.86229L49.1123 5.17285Z" fill="#DA5203"/>
<path fill-rule="evenodd" clip-rule="evenodd" d="M49.1323 5.194L49.1219 5.18262L43.9906 9.87206L44.001 9.88344L49.1323 5.194Z" fill="#DA5203"/>
</g>
<mask id="mask1_2347_8376" style="mask-type:luminance" maskUnits="userSpaceOnUse" x="0" y="0" width="48" height="48">
<path d="M33.6311 38.6564L42.252 47.3161C43.1089 44.9855 44.8671 43.0909 47.1039 42.0527L38.6883 33.5988C44.7474 24.467 43.8096 13.4156 35.7275 5.63479C34.8048 4.74646 33.1284 3.58179 32.0123 2.90736C29.4011 1.32994 25.4406 0 21.8945 0C16.6668 0 13.0768 1.2202 9.27728 3.73632L6.2141 6.21414L3.78753 9.19939C1.23138 13.0498 0 16.6083 0 21.8911C0 26.3397 1.80596 30.5585 4.06943 33.8136C6.19431 36.8699 9.619 39.4678 13.0687 40.9212C20.058 43.8665 27.2999 42.8951 33.6311 38.6565L33.6311 38.6564ZM35.4349 20.7148C35.4349 23.1917 35.0866 24.835 34.3687 26.6375C33.9741 27.6261 33.6866 28.0733 33.1709 28.9187C30.9311 32.5887 26.1679 35.4349 21.8841 35.4349C17.7531 35.4349 14.0542 34.068 11.2541 31.2678C10.3769 30.3906 9.20019 28.7112 8.63162 27.5763C7.8965 26.1082 7.21602 24.0577 7.21602 21.8515C7.21602 17.4657 8.37124 14.2429 11.307 11.3071C14.2488 8.3649 17.4708 7.21618 21.8626 7.21618C24.81 7.21618 28.4236 8.64252 30.3772 10.4696L31.349 11.302C33.5553 13.5082 35.4349 17.5359 35.4349 20.7149V20.7148Z" fill="white"/>
</mask>
<g mask="url(#mask1_2347_8376)">
<path d="M22.7126 -2.88184H-1.9554V23.1492H22.7126V-2.88184Z" fill="#F27405"/>
<path d="M47.3783 -2.88184H22.7103V23.1492H47.3783V-2.88184Z" fill="#D95103"/>
<path d="M22.7127 23.0996H-1.95536V49.1306H22.7127V23.0996Z" fill="#03BFC0"/>
<path d="M47.3917 23.0996H22.7237V49.1306H47.3917V23.0996Z" fill="#034AA6"/>
</g>
<mask id="mask2_2347_8376" style="mask-type:luminance" maskUnits="userSpaceOnUse" x="42" y="42" width="7" height="8">
<path d="M43.9304 49.0006C44.5849 46.5534 46.3904 44.577 48.7313 43.6858L47.5948 42.5439C45.3577 43.582 43.5998 45.4769 42.7425 47.8074L43.9304 49.0006Z" fill="white"/>
</mask>
<g mask="url(#mask2_2347_8376)">
<path d="M42.085 44.8063L40.7849 46.1289L44.3999 49.6824L45.7 48.3598L42.085 44.8063Z" fill="#034AA6"/>
<path d="M43.3808 43.487L42.0807 44.8096L45.6957 48.3631L46.9958 47.0405L43.3808 43.487Z" fill="#03BFC0"/>
<path d="M44.6769 42.1647L43.3768 43.4873L46.9918 47.0408L48.2919 45.7182L44.6769 42.1647Z" fill="#F27405"/>
<path d="M45.9738 40.8493L44.6737 42.1719L48.2888 45.7254L49.5889 44.4028L45.9738 40.8493Z" fill="#D95103"/>
</g>
</svg>
