<svg width="40" height="40" viewBox="0 0 40 40" fill="none" xmlns="http://www.w3.org/2000/svg">
<path d="M8.23529 0C6.6752 0 5.179 0.619746 4.07584 1.7229C2.97269 2.82606 2.35294 4.32226 2.35294 5.88235V19.4282C3.07875 18.829 3.86772 18.3106 4.70588 17.8824V5.88235C4.70588 4.9463 5.07773 4.04858 5.73962 3.38668C6.40152 2.72479 7.29924 2.35294 8.23529 2.35294H11.7647V5.88235C11.7647 6.81841 12.1366 7.71613 12.7984 8.37803C13.4603 9.03992 14.3581 9.41177 15.2941 9.41177H30.5882V24.7059C30.5882 25.6419 30.2164 26.5397 29.5545 27.2016C28.8926 27.8634 27.9949 28.2353 27.0588 28.2353H23.4776C23.548 29.018 23.548 29.8055 23.4776 30.5882H27.0588C28.6189 30.5882 30.1151 29.9685 31.2183 28.8653C32.3214 27.7622 32.9412 26.266 32.9412 24.7059V5.88235C32.9412 4.32226 32.3214 2.82606 31.2183 1.7229C30.1151 0.619746 28.6189 0 27.0588 0H8.23529ZM30.5882 37.6471H20.5718C21.1671 36.9247 21.6871 36.1365 22.1176 35.2941H30.5882C32.4604 35.2941 34.2558 34.5504 35.5796 33.2266C36.9034 31.9029 37.6471 30.1074 37.6471 28.2353V12.9412C37.6474 12.211 37.4213 11.4987 36.9999 10.9024C36.5785 10.3061 35.9825 9.85516 35.2941 9.61176V7.17647C36.6228 7.44768 37.8169 8.16963 38.6745 9.22011C39.532 10.2706 40.0003 11.5851 40 12.9412V28.2353C40 30.7314 39.0084 33.1254 37.2434 34.8904C35.4783 36.6555 33.0844 37.6471 30.5882 37.6471ZM30.5882 5.88235V7.05882H15.2941C14.9821 7.05882 14.6829 6.93487 14.4622 6.71424C14.2416 6.49361 14.1176 6.19437 14.1176 5.88235V2.35294H27.0588C27.9949 2.35294 28.8926 2.72479 29.5545 3.38668C30.2164 4.04858 30.5882 4.9463 30.5882 5.88235ZM21.1765 29.4118C21.1765 32.2199 20.0609 34.9131 18.0752 36.8988C16.0896 38.8845 13.3964 40 10.5882 40C7.78006 40 5.0869 38.8845 3.10122 36.8988C1.11554 34.9131 0 32.2199 0 29.4118C0 26.6036 1.11554 23.9104 3.10122 21.9248C5.0869 19.9391 7.78006 18.8235 10.5882 18.8235C13.3964 18.8235 16.0896 19.9391 18.0752 21.9248C20.0609 23.9104 21.1765 26.6036 21.1765 29.4118ZM11.7647 24.7059C11.7647 24.3939 11.6408 24.0946 11.4201 23.874C11.1995 23.6534 10.9003 23.5294 10.5882 23.5294C10.2762 23.5294 9.97698 23.6534 9.75635 23.874C9.53572 24.0946 9.41177 24.3939 9.41177 24.7059V28.2353H5.88235C5.57033 28.2353 5.27109 28.3592 5.05046 28.5799C4.82983 28.8005 4.70588 29.0997 4.70588 29.4118C4.70588 29.7238 4.82983 30.023 5.05046 30.2437C5.27109 30.4643 5.57033 30.5882 5.88235 30.5882H9.41177V34.1176C9.41177 34.4297 9.53572 34.7289 9.75635 34.9495C9.97698 35.1702 10.2762 35.2941 10.5882 35.2941C10.9003 35.2941 11.1995 35.1702 11.4201 34.9495C11.6408 34.7289 11.7647 34.4297 11.7647 34.1176V30.5882H15.2941C15.6061 30.5882 15.9054 30.4643 16.126 30.2437C16.3466 30.023 16.4706 29.7238 16.4706 29.4118C16.4706 29.0997 16.3466 28.8005 16.126 28.5799C15.9054 28.3592 15.6061 28.2353 15.2941 28.2353H11.7647V24.7059Z" fill="url(#paint0_linear_2400_11715)"/>
<defs>
<linearGradient id="paint0_linear_2400_11715" x1="20" y1="0" x2="20" y2="40" gradientUnits="userSpaceOnUse">
<stop stop-color="#00CCFF"/>
<stop offset="1" stop-color="#034AA6"/>
</linearGradient>
</defs>
</svg>
