<svg width="20" height="18" viewBox="0 0 20 18" fill="none" xmlns="http://www.w3.org/2000/svg">
<path d="M4.11765 0C3.3376 0 2.5895 0.278886 2.03792 0.775306C1.48634 1.27173 1.17647 1.94502 1.17647 2.64706V8.74271C1.53937 8.47304 1.93386 8.23978 2.35294 8.04706V2.64706C2.35294 2.22583 2.53887 1.82186 2.86981 1.52401C3.20076 1.22616 3.64962 1.05882 4.11765 1.05882H5.88235V2.64706C5.88235 3.06829 6.06828 3.47226 6.39922 3.77011C6.73017 4.06796 7.17903 4.23529 7.64706 4.23529H15.2941V11.1176C15.2941 11.5389 15.1082 11.9428 14.7772 12.2407C14.4463 12.5386 13.9974 12.7059 13.5294 12.7059H11.7388C11.774 13.0581 11.774 13.4125 11.7388 13.7647H13.5294C14.3095 13.7647 15.0576 13.4858 15.6091 12.9894C16.1607 12.493 16.4706 11.8197 16.4706 11.1176V2.64706C16.4706 1.94502 16.1607 1.27173 15.6091 0.775306C15.0576 0.278886 14.3095 0 13.5294 0H4.11765ZM15.2941 16.9412H10.2859C10.5835 16.6161 10.8435 16.2614 11.0588 15.8824H15.2941C16.2302 15.8824 17.1279 15.5477 17.7898 14.952C18.4517 14.3563 18.8235 13.5483 18.8235 12.7059V5.82353C18.8237 5.49495 18.7107 5.1744 18.5 4.90607C18.2893 4.63773 17.9913 4.43482 17.6471 4.32529V3.22941C18.3114 3.35146 18.9085 3.67633 19.3372 4.14905C19.766 4.62177 20.0001 5.2133 20 5.82353V12.7059C20 13.8292 19.5042 14.9064 18.6217 15.7007C17.7392 16.495 16.5422 16.9412 15.2941 16.9412ZM15.2941 2.64706V3.17647H7.64706C7.49105 3.17647 7.34143 3.12069 7.23111 3.02141C7.1208 2.92213 7.05882 2.78747 7.05882 2.64706V1.05882H13.5294C13.9974 1.05882 14.4463 1.22616 14.7772 1.52401C15.1082 1.82186 15.2941 2.22583 15.2941 2.64706ZM10.5882 13.2353C10.5882 14.499 10.0305 15.7109 9.03762 16.6045C8.04478 17.498 6.6982 18 5.29412 18C3.89003 18 2.54345 17.498 1.55061 16.6045C0.557771 15.7109 0 14.499 0 13.2353C0 11.9716 0.557771 10.7597 1.55061 9.86614C2.54345 8.97258 3.89003 8.47059 5.29412 8.47059C6.6982 8.47059 8.04478 8.97258 9.03762 9.86614C10.0305 10.7597 10.5882 11.9716 10.5882 13.2353ZM5.88235 11.1176C5.88235 10.9772 5.82038 10.8426 5.71006 10.7433C5.59975 10.644 5.45013 10.5882 5.29412 10.5882C5.13811 10.5882 4.98849 10.644 4.87817 10.7433C4.76786 10.8426 4.70588 10.9772 4.70588 11.1176V12.7059H2.94118C2.78517 12.7059 2.63555 12.7617 2.52523 12.8609C2.41492 12.9602 2.35294 13.0949 2.35294 13.2353C2.35294 13.3757 2.41492 13.5104 2.52523 13.6096C2.63555 13.7089 2.78517 13.7647 2.94118 13.7647H4.70588V15.3529C4.70588 15.4934 4.76786 15.628 4.87817 15.7273C4.98849 15.8266 5.13811 15.8824 5.29412 15.8824C5.45013 15.8824 5.59975 15.8266 5.71006 15.7273C5.82038 15.628 5.88235 15.4934 5.88235 15.3529V13.7647H7.64706C7.80307 13.7647 7.95269 13.7089 8.063 13.6096C8.17332 13.5104 8.23529 13.3757 8.23529 13.2353C8.23529 13.0949 8.17332 12.9602 8.063 12.8609C7.95269 12.7617 7.80307 12.7059 7.64706 12.7059H5.88235V11.1176Z" fill="url(#paint0_linear_2400_10340)"/>
<defs>
<linearGradient id="paint0_linear_2400_10340" x1="10" y1="0" x2="10" y2="18" gradientUnits="userSpaceOnUse">
<stop stop-color="#034AA6"/>
<stop offset="1" stop-color="#3F88DD"/>
</linearGradient>
</defs>
</svg>
