<svg width="17" height="17" viewBox="0 0 17 17" fill="none" xmlns="http://www.w3.org/2000/svg">
<path d="M14.8191 13.685L12.4557 11.3408C13.3731 10.1969 13.8174 8.74509 13.6972 7.28375C13.577 5.82241 12.9015 4.46267 11.8095 3.48411C10.7175 2.50554 9.29215 1.98255 7.82642 2.02266C6.3607 2.06276 4.96604 2.66293 3.92923 3.69974C2.89242 4.73655 2.29225 6.1312 2.25215 7.59693C2.21204 9.06265 2.73504 10.488 3.7136 11.58C4.69216 12.672 6.0519 13.3475 7.51324 13.4677C8.97458 13.5879 10.4264 13.1436 11.5703 12.2263L13.9145 14.5705C13.9738 14.6302 14.0442 14.6776 14.1218 14.71C14.1995 14.7423 14.2827 14.7589 14.3668 14.7589C14.4509 14.7589 14.5342 14.7423 14.6118 14.71C14.6894 14.6776 14.7599 14.6302 14.8191 14.5705C14.9339 14.4517 14.9981 14.293 14.9981 14.1278C14.9981 13.9626 14.9339 13.8038 14.8191 13.685ZM7.99656 12.2263C7.11461 12.2263 6.25247 11.9647 5.51916 11.4747C4.78585 10.9848 4.21431 10.2883 3.8768 9.47352C3.5393 8.65871 3.45099 7.76212 3.62305 6.89712C3.79511 6.03212 4.21981 5.23757 4.84343 4.61394C5.46706 3.99031 6.26161 3.56562 7.12661 3.39356C7.99161 3.2215 8.8882 3.30981 9.70301 3.64731C10.5178 3.98482 11.2143 4.55636 11.7042 5.28967C12.1942 6.02298 12.4557 6.88512 12.4557 7.76706C12.4557 8.94971 11.9859 10.0839 11.1497 10.9202C10.3134 11.7564 9.17921 12.2263 7.99656 12.2263Z" fill="white"/>
</svg>
