<svg width="40" height="43" viewBox="0 0 40 43" fill="none" xmlns="http://www.w3.org/2000/svg">
<ellipse cx="19.5" cy="21.5" rx="5.56839" ry="5.25" stroke="#77797E" stroke-width="2"/>
<path d="M22.7768 4.26642C22.0945 4 21.2297 4 19.5 4C17.7703 4 16.9055 4 16.2232 4.26642C15.3136 4.62165 14.591 5.30301 14.2142 6.16061C14.0422 6.5521 13.9749 7.00738 13.9485 7.67148C13.9098 8.64744 13.379 9.55081 12.4819 10.0391C11.5848 10.5274 10.4896 10.5092 9.57379 10.0528C8.9506 9.74228 8.49874 9.56959 8.05314 9.51428C7.07701 9.39312 6.08981 9.64251 5.30871 10.2076C4.72288 10.6314 4.29046 11.3376 3.42561 12.7499C2.56076 14.1622 2.12834 14.8683 2.03196 15.5586C1.90345 16.4789 2.16797 17.4097 2.76732 18.1461C3.04089 18.4822 3.42537 18.7648 4.02209 19.1183C4.89932 19.638 5.46375 20.5233 5.46369 21.5C5.46364 22.4767 4.89922 23.3619 4.02208 23.8815C3.42527 24.235 3.04074 24.5176 2.76714 24.8538C2.16778 25.5902 1.90326 26.521 2.03177 27.4413C2.12816 28.1315 2.56058 28.8377 3.42543 30.25C4.29028 31.6623 4.7227 32.3685 5.30853 32.7923C6.08963 33.3574 7.07683 33.6068 8.05296 33.4856C8.49853 33.4303 8.95036 33.2576 9.5735 32.9471C10.4894 32.4907 11.5847 32.4725 12.4818 32.9608C13.3789 33.4492 13.9098 34.3526 13.9485 35.3286C13.9749 35.9927 14.0422 36.4479 14.2142 36.8394C14.591 37.697 15.3136 38.3784 16.2232 38.7336C16.9055 39 17.7703 39 19.5 39C21.2297 39 22.0945 39 22.7768 38.7336C23.6864 38.3784 24.409 37.697 24.7858 36.8394C24.9578 36.4479 25.0251 35.9926 25.0515 35.3285C25.0902 34.3525 25.621 33.4492 26.518 32.9608C27.4151 32.4724 28.5105 32.4906 29.4264 32.947C30.0495 33.2575 30.5013 33.4302 30.9469 33.4855C31.923 33.6066 32.9102 33.3572 33.6913 32.7922C34.2771 32.3683 34.7095 31.6622 35.5744 30.2499C36.4392 28.8376 36.8717 28.1314 36.968 27.4412C37.0966 26.5209 36.832 25.5901 36.2327 24.8537C35.9591 24.5175 35.5746 24.2349 34.9778 23.8814C34.1006 23.3618 33.5363 22.4766 33.5363 21.4998C33.5364 20.5232 34.1007 19.6381 34.9778 19.1186C35.5747 18.765 35.9592 18.4824 36.2329 18.1462C36.8322 17.4098 37.0967 16.479 36.9682 15.5587C36.8718 14.8685 36.4394 14.1623 35.5746 12.75C34.7097 11.3377 34.2773 10.6315 33.6915 10.2077C32.9104 9.64263 31.9232 9.39324 30.947 9.5144C30.5015 9.56971 30.0496 9.74238 29.4265 10.0529C28.5106 10.5093 27.4153 10.5275 26.5182 10.0392C25.6211 9.55083 25.0902 8.64741 25.0515 7.67139C25.0251 7.00734 24.9578 6.55208 24.7858 6.16061C24.409 5.30301 23.6864 4.62165 22.7768 4.26642Z" stroke="#77797E" stroke-width="2"/>
</svg>
