<svg width="13" height="14" viewBox="0 0 13 14" fill="none" xmlns="http://www.w3.org/2000/svg">
<g clip-path="url(#clip0_3027_10807)">
<path d="M3.69281 5.95513L3.33938 7H2.4375L3.95037 2.9375H4.99362L6.5 7H5.55181L5.19837 5.95513H3.69281ZM5.02044 5.35713L4.46875 3.71425H4.42894L3.87725 5.35713H5.02044Z" fill="url(#paint0_linear_3027_10807)"/>
<path d="M0 2.125C0 1.69402 0.171205 1.2807 0.475951 0.975951C0.780698 0.671205 1.19402 0.5 1.625 0.5L7.3125 0.5C7.74348 0.5 8.1568 0.671205 8.46155 0.975951C8.76629 1.2807 8.9375 1.69402 8.9375 2.125V4.5625H11.375C11.806 4.5625 12.2193 4.7337 12.524 5.03845C12.8288 5.3432 13 5.75652 13 6.1875V11.875C13 12.306 12.8288 12.7193 12.524 13.024C12.2193 13.3288 11.806 13.5 11.375 13.5H5.6875C5.25652 13.5 4.8432 13.3288 4.53845 13.024C4.2337 12.7193 4.0625 12.306 4.0625 11.875V9.4375H1.625C1.19402 9.4375 0.780698 9.26629 0.475951 8.96155C0.171205 8.6568 0 8.24348 0 7.8125V2.125ZM1.625 1.3125C1.40951 1.3125 1.20285 1.3981 1.05048 1.55048C0.898102 1.70285 0.8125 1.90951 0.8125 2.125V7.8125C0.8125 8.02799 0.898102 8.23465 1.05048 8.38702C1.20285 8.5394 1.40951 8.625 1.625 8.625H7.3125C7.52799 8.625 7.73465 8.5394 7.88702 8.38702C8.0394 8.23465 8.125 8.02799 8.125 7.8125V2.125C8.125 1.90951 8.0394 1.70285 7.88702 1.55048C7.73465 1.3981 7.52799 1.3125 7.3125 1.3125H1.625ZM7.42462 9.43344C7.58117 9.67773 7.75179 9.90685 7.9365 10.1208C7.32875 10.588 6.57719 10.9341 5.6875 11.1706C5.83213 11.3469 6.05394 11.6865 6.13844 11.875C7.0525 11.5833 7.82844 11.1892 8.48331 10.6611C9.11462 11.2014 9.89625 11.6077 10.8639 11.8571C10.972 11.6508 11.2003 11.3103 11.375 11.134C10.4609 10.9284 9.70369 10.5701 9.08375 10.0907C9.63706 9.48381 10.0766 8.74931 10.4008 7.85069H11.375V7H8.9375V7.85069H9.55906C9.30069 8.53644 8.95781 9.10681 8.52556 9.58131C8.4061 9.45419 8.29354 9.32075 8.18838 9.18156C7.95892 9.32819 7.69629 9.4148 7.42462 9.43344Z" fill="white"/>
</g>
<defs>
<linearGradient id="paint0_linear_3027_10807" x1="4.46875" y1="2.9375" x2="4.46875" y2="7" gradientUnits="userSpaceOnUse">
<stop stop-color="#00CCFF"/>
<stop offset="1" stop-color="#034AA6"/>
</linearGradient>
<clipPath id="clip0_3027_10807">
<rect width="13" height="13" fill="white" transform="translate(0 0.5)"/>
</clipPath>
</defs>
</svg>
