<svg width="69" height="70" viewBox="0 0 69 70" fill="none" xmlns="http://www.w3.org/2000/svg">
<circle cx="34.3772" cy="35.0999" r="34.3577" fill="url(#paint0_linear_2819_10729)"/>
<circle cx="34.3772" cy="35.0999" r="34.3577" fill="black" fill-opacity="0.2"/>
<g opacity="0.7">
<path d="M40.4034 33.4135L31.5586 28.9897C31.3086 28.8646 31.0307 28.8055 30.7514 28.8181C30.4721 28.8306 30.2006 28.9144 29.9628 29.0614C29.725 29.2085 29.5287 29.4139 29.3927 29.6582C29.2567 29.9024 29.1853 30.1774 29.1855 30.457V38.8127C29.1853 39.0923 29.2567 39.3673 29.3927 39.6115C29.5287 39.8558 29.725 40.0612 29.9628 40.2083C30.2006 40.3553 30.4721 40.4391 30.7514 40.4516C31.0307 40.4642 31.3086 40.4051 31.5586 40.28L40.4034 35.8562C40.63 35.7426 40.8206 35.5682 40.9537 35.3525C41.0869 35.1368 41.1574 34.8883 41.1574 34.6348C41.1574 34.3814 41.0869 34.1329 40.9537 33.9172C40.8206 33.7014 40.63 33.5271 40.4034 33.4135Z" stroke="white" stroke-width="1.3662" stroke-linecap="round" stroke-linejoin="round"/>
<path d="M34.6512 46.9304C41.442 46.9304 46.947 41.4254 46.947 34.6346C46.947 27.8439 41.442 22.3389 34.6512 22.3389C27.8605 22.3389 22.3555 27.8439 22.3555 34.6346C22.3555 41.4254 27.8605 46.9304 34.6512 46.9304Z" stroke="white" stroke-width="1.3662"/>
</g>
<defs>
<linearGradient id="paint0_linear_2819_10729" x1="34.3772" y1="0.742187" x2="34.3772" y2="69.4576" gradientUnits="userSpaceOnUse">
<stop stop-color="#0A58D0"/>
<stop offset="1" stop-color="#052D6A"/>
</linearGradient>
</defs>
</svg>
