<svg width="13" height="13" viewBox="0 0 13 13" fill="none" xmlns="http://www.w3.org/2000/svg">
<path fill-rule="evenodd" clip-rule="evenodd" d="M5.95898 4.3335C5.95898 4.0345 6.20165 3.79183 6.50065 3.79183C6.79965 3.79183 7.04232 4.0345 7.04232 4.3335V7.04183C7.04232 7.34083 6.79965 7.5835 6.50065 7.5835C6.20165 7.5835 5.95898 7.34083 5.95898 7.04183V4.3335ZM5.95898 8.66683C5.95898 8.36783 6.20165 8.12516 6.50065 8.12516C6.79965 8.12516 7.04232 8.36783 7.04232 8.66683C7.04232 8.96583 6.79965 9.2085 6.50065 9.2085C6.20165 9.2085 5.95898 8.96583 5.95898 8.66683ZM6.50065 10.8335C4.11136 10.8335 2.16732 8.88945 2.16732 6.50016C2.16732 4.11087 4.11136 2.16683 6.50065 2.16683C8.88994 2.16683 10.834 4.11087 10.834 6.50016C10.834 8.88945 8.88994 10.8335 6.50065 10.8335ZM6.50065 1.0835C3.50903 1.0835 1.08398 3.50854 1.08398 6.50016C1.08398 9.49179 3.50903 11.9168 6.50065 11.9168C9.49228 11.9168 11.9173 9.49179 11.9173 6.50016C11.9173 3.50854 9.49228 1.0835 6.50065 1.0835Z" fill="#231F20"/>
<mask id="mask0_2168_6401" style="mask-type:luminance" maskUnits="userSpaceOnUse" x="1" y="1" width="11" height="11">
<path fill-rule="evenodd" clip-rule="evenodd" d="M5.95898 4.3335C5.95898 4.0345 6.20165 3.79183 6.50065 3.79183C6.79965 3.79183 7.04232 4.0345 7.04232 4.3335V7.04183C7.04232 7.34083 6.79965 7.5835 6.50065 7.5835C6.20165 7.5835 5.95898 7.34083 5.95898 7.04183V4.3335ZM5.95898 8.66683C5.95898 8.36783 6.20165 8.12516 6.50065 8.12516C6.79965 8.12516 7.04232 8.36783 7.04232 8.66683C7.04232 8.96583 6.79965 9.2085 6.50065 9.2085C6.20165 9.2085 5.95898 8.96583 5.95898 8.66683ZM6.50065 10.8335C4.11136 10.8335 2.16732 8.88945 2.16732 6.50016C2.16732 4.11087 4.11136 2.16683 6.50065 2.16683C8.88994 2.16683 10.834 4.11087 10.834 6.50016C10.834 8.88945 8.88994 10.8335 6.50065 10.8335ZM6.50065 1.0835C3.50903 1.0835 1.08398 3.50854 1.08398 6.50016C1.08398 9.49179 3.50903 11.9168 6.50065 11.9168C9.49228 11.9168 11.9173 9.49179 11.9173 6.50016C11.9173 3.50854 9.49228 1.0835 6.50065 1.0835Z" fill="white"/>
</mask>
<g mask="url(#mask0_2168_6401)">
<rect width="13" height="13" fill="#FF0000"/>
</g>
</svg>
