<svg width="45" height="46" viewBox="0 0 45 46" fill="none" xmlns="http://www.w3.org/2000/svg">
<g filter="url(#filter0_d_2400_12659)">
<rect x="8.66992" y="5.53613" width="27.4894" height="27.4894" rx="3.43617" fill="#F5F5F5" shape-rendering="crispEdges"/>
<path fill-rule="evenodd" clip-rule="evenodd" d="M18.4393 11.9434C17.7961 11.9433 17.2598 11.9433 16.834 12.0006C16.3846 12.061 15.9788 12.1939 15.6528 12.52C15.3267 12.846 15.1938 13.2518 15.1334 13.7012C15.0761 14.127 15.0762 14.6633 15.0762 15.3065V15.381C15.0762 16.0241 15.0761 16.5605 15.1334 16.9863C15.1938 17.4357 15.3267 17.8415 15.6528 18.1675C15.9788 18.4936 16.3846 18.6265 16.834 18.6869C17.2598 18.7442 17.7961 18.7441 18.4393 18.7441H18.5138C19.157 18.7441 19.6933 18.7442 20.1191 18.6869C20.5685 18.6265 20.9743 18.4936 21.3003 18.1675C21.6264 17.8415 21.7593 17.4357 21.8197 16.9863C21.877 16.5605 21.8769 16.0242 21.8769 15.381V15.3065C21.8769 14.6633 21.877 14.127 21.8197 13.7012C21.7593 13.2518 21.6264 12.846 21.3003 12.52C20.9743 12.1939 20.5685 12.061 20.1191 12.0006C19.6933 11.9433 19.157 11.9433 18.5138 11.9434H18.4393ZM16.4121 13.2793C16.5054 13.186 16.6467 13.1092 16.9771 13.0648C17.3229 13.0183 17.7864 13.0172 18.4766 13.0172C19.1667 13.0172 19.6302 13.0183 19.976 13.0648C20.3064 13.1092 20.4477 13.186 20.541 13.2793C20.6343 13.3725 20.7111 13.5139 20.7555 13.8443C20.802 14.1901 20.8031 14.6536 20.8031 15.3437C20.8031 16.0338 20.802 16.4974 20.7555 16.8432C20.7111 17.1735 20.6343 17.3149 20.541 17.4082C20.4477 17.5015 20.3064 17.5783 19.976 17.6227C19.6302 17.6692 19.1667 17.6703 18.4766 17.6703C17.7864 17.6703 17.3229 17.6692 16.9771 17.6227C16.6467 17.5783 16.5054 17.5015 16.4121 17.4082C16.3188 17.3149 16.242 17.1735 16.1976 16.8432C16.1511 16.4974 16.15 16.0338 16.15 15.3437C16.15 14.6536 16.1511 14.1901 16.1976 13.8443C16.242 13.5139 16.3188 13.3725 16.4121 13.2793Z" fill="#ABACB0"/>
<path fill-rule="evenodd" clip-rule="evenodd" d="M26.3139 19.8179C25.6707 19.8179 25.1343 19.8179 24.7086 19.8751C24.2591 19.9355 23.8534 20.0685 23.5273 20.3945C23.2013 20.7206 23.0684 21.1263 23.0079 21.5757C22.9507 22.0015 22.9507 22.5379 22.9507 23.1811V23.2555C22.9507 23.8987 22.9507 24.4351 23.0079 24.8608C23.0684 25.3103 23.2013 25.716 23.5273 26.0421C23.8534 26.3681 24.2591 26.501 24.7086 26.5615C25.1343 26.6187 25.6707 26.6187 26.3138 26.6187H26.3883C27.0315 26.6187 27.5679 26.6187 27.9937 26.5615C28.4431 26.501 28.8488 26.3681 29.1749 26.0421C29.5009 25.716 29.6339 25.3103 29.6943 24.8608C29.7515 24.4351 29.7515 23.8988 29.7515 23.2556V23.1811C29.7515 22.5379 29.7515 22.0015 29.6943 21.5757C29.6339 21.1263 29.5009 20.7206 29.1749 20.3945C28.8488 20.0685 28.4431 19.9355 27.9937 19.8751C27.5679 19.8179 27.0315 19.8179 26.3883 19.8179H26.3139ZM24.2866 21.1538C24.3799 21.0605 24.5213 20.9838 24.8516 20.9394C25.1974 20.8929 25.661 20.8917 26.3511 20.8917C27.0412 20.8917 27.5048 20.8929 27.8506 20.9394C28.1809 20.9838 28.3223 21.0605 28.4156 21.1538C28.5089 21.2471 28.5856 21.3885 28.6301 21.7188C28.6765 22.0646 28.6777 22.5282 28.6777 23.2183C28.6777 23.9084 28.6765 24.372 28.6301 24.7178C28.5856 25.0481 28.5089 25.1895 28.4156 25.2828C28.3223 25.3761 28.1809 25.4528 27.8506 25.4972C27.5048 25.5437 27.0412 25.5449 26.3511 25.5449C25.661 25.5449 25.1974 25.5437 24.8516 25.4972C24.5213 25.4528 24.3799 25.3761 24.2866 25.2828C24.1933 25.1895 24.1166 25.0481 24.0722 24.7178C24.0257 24.372 24.0245 23.9084 24.0245 23.2183C24.0245 22.5282 24.0257 22.0646 24.0722 21.7188C24.1166 21.3885 24.1933 21.2471 24.2866 21.1538Z" fill="#ABACB0"/>
<path fill-rule="evenodd" clip-rule="evenodd" d="M18.4393 19.8179H18.5138C19.157 19.8179 19.6933 19.8179 20.1191 19.8751C20.5685 19.9355 20.9743 20.0685 21.3003 20.3945C21.6264 20.7206 21.7593 21.1263 21.8197 21.5757C21.877 22.0015 21.8769 22.5379 21.8769 23.1811V23.2555C21.8769 23.8987 21.877 24.4351 21.8197 24.8608C21.7593 25.3103 21.6264 25.716 21.3003 26.0421C20.9743 26.3681 20.5685 26.501 20.1191 26.5615C19.6933 26.6187 19.157 26.6187 18.5138 26.6187H18.4393C17.7962 26.6187 17.2598 26.6187 16.834 26.5615C16.3846 26.501 15.9788 26.3681 15.6528 26.0421C15.3267 25.716 15.1938 25.3103 15.1334 24.8608C15.0761 24.4351 15.0762 23.8987 15.0762 23.2555V23.1811C15.0762 22.5379 15.0761 22.0015 15.1334 21.5757C15.1938 21.1263 15.3267 20.7206 15.6528 20.3945C15.9788 20.0685 16.3846 19.9355 16.834 19.8751C17.2598 19.8179 17.7961 19.8179 18.4393 19.8179ZM16.9771 20.9394C16.6467 20.9838 16.5054 21.0605 16.4121 21.1538C16.3188 21.2471 16.242 21.3885 16.1976 21.7188C16.1511 22.0646 16.15 22.5282 16.15 23.2183C16.15 23.9084 16.1511 24.372 16.1976 24.7178C16.242 25.0481 16.3188 25.1895 16.4121 25.2828C16.5054 25.3761 16.6467 25.4528 16.9771 25.4972C17.3229 25.5437 17.7864 25.5449 18.4766 25.5449C19.1667 25.5449 19.6302 25.5437 19.976 25.4972C20.3064 25.4528 20.4477 25.3761 20.541 25.2828C20.6343 25.1895 20.7111 25.0481 20.7555 24.7178C20.802 24.372 20.8031 23.9084 20.8031 23.2183C20.8031 22.5282 20.802 22.0646 20.7555 21.7188C20.7111 21.3885 20.6343 21.2471 20.541 21.1538C20.4477 21.0605 20.3064 20.9838 19.976 20.9394C19.6302 20.8929 19.1667 20.8917 18.4766 20.8917C17.7864 20.8917 17.3229 20.8929 16.9771 20.9394Z" fill="#ABACB0"/>
<path fill-rule="evenodd" clip-rule="evenodd" d="M26.3139 11.9434C25.6707 11.9433 25.1343 11.9433 24.7086 12.0006C24.2591 12.061 23.8534 12.1939 23.5273 12.52C23.2013 12.846 23.0684 13.2518 23.0079 13.7012C22.9507 14.127 22.9507 14.6633 22.9507 15.3065V15.381C22.9507 16.0242 22.9507 16.5605 23.0079 16.9863C23.0684 17.4357 23.2013 17.8415 23.5273 18.1675C23.8534 18.4936 24.2591 18.6265 24.7086 18.6869C25.1343 18.7442 25.6707 18.7441 26.3139 18.7441H26.3883C27.0315 18.7441 27.5679 18.7442 27.9937 18.6869C28.4431 18.6265 28.8488 18.4936 29.1749 18.1675C29.5009 17.8415 29.6339 17.4357 29.6943 16.9863C29.7515 16.5605 29.7515 16.0242 29.7515 15.381V15.3065C29.7515 14.6633 29.7515 14.127 29.6943 13.7012C29.6339 13.2518 29.5009 12.846 29.1749 12.52C28.8488 12.1939 28.4431 12.061 27.9937 12.0006C27.5679 11.9433 27.0315 11.9433 26.3884 11.9434H26.3139ZM24.2866 13.2793C24.3799 13.186 24.5213 13.1092 24.8516 13.0648C25.1974 13.0183 25.661 13.0172 26.3511 13.0172C27.0412 13.0172 27.5048 13.0183 27.8506 13.0648C28.1809 13.1092 28.3223 13.186 28.4156 13.2793C28.5089 13.3725 28.5856 13.5139 28.6301 13.8443C28.6765 14.1901 28.6777 14.6536 28.6777 15.3437C28.6777 16.0338 28.6765 16.4974 28.6301 16.8432C28.5856 17.1735 28.5089 17.3149 28.4156 17.4082C28.3223 17.5015 28.1809 17.5783 27.8506 17.6227C27.5048 17.6692 27.0412 17.6703 26.3511 17.6703C25.661 17.6703 25.1974 17.6692 24.8516 17.6227C24.5213 17.5783 24.3799 17.5015 24.2866 17.4082C24.1933 17.3149 24.1166 17.1735 24.0722 16.8432C24.0257 16.4974 24.0245 16.0338 24.0245 15.3437C24.0245 14.6536 24.0257 14.1901 24.0722 13.8443C24.1166 13.5139 24.1933 13.3725 24.2866 13.2793Z" fill="#ABACB0"/>
</g>
<defs>
<filter id="filter0_d_2400_12659" x="0.0794973" y="0.381878" width="44.6711" height="44.6701" filterUnits="userSpaceOnUse" color-interpolation-filters="sRGB">
<feFlood flood-opacity="0" result="BackgroundImageFix"/>
<feColorMatrix in="SourceAlpha" type="matrix" values="0 0 0 0 0 0 0 0 0 0 0 0 0 0 0 0 0 0 127 0" result="hardAlpha"/>
<feOffset dy="3.43617"/>
<feGaussianBlur stdDeviation="4.29521"/>
<feComposite in2="hardAlpha" operator="out"/>
<feColorMatrix type="matrix" values="0 0 0 0 0.843137 0 0 0 0 0.843137 0 0 0 0 0.843137 0 0 0 0.25 0"/>
<feBlend mode="normal" in2="BackgroundImageFix" result="effect1_dropShadow_2400_12659"/>
<feBlend mode="normal" in="SourceGraphic" in2="effect1_dropShadow_2400_12659" result="shape"/>
</filter>
</defs>
</svg>
