<svg width="23" height="23" viewBox="0 0 23 23" fill="none" xmlns="http://www.w3.org/2000/svg">
<path d="M7.9223 11.7914C8.70591 11.7914 9.47192 11.559 10.1235 11.1236C10.775 10.6883 11.2828 10.0695 11.5826 9.3455C11.8825 8.62153 11.9609 7.8249 11.808 7.05636C11.6551 6.28781 11.2777 5.58188 10.7235 5.02783C10.1694 4.47378 9.46336 4.09651 8.6948 3.94372C7.92623 3.79093 7.12961 3.86948 6.40569 4.16945C5.68176 4.46942 5.06305 4.97733 4.6278 5.62895C4.19255 6.28056 3.96031 7.04661 3.96045 7.83022C3.96155 8.88057 4.37933 9.88757 5.12211 10.6302C5.86488 11.3729 6.87195 11.7905 7.9223 11.7914Z" fill="#034AA6"/>
<path d="M13.1053 15.0633C12.1014 14.0335 10.8133 13.3264 9.40551 13.0323C7.99777 12.7382 6.53431 12.8703 5.20205 13.4119C3.86979 13.9536 2.72922 14.88 1.92604 16.073C1.12286 17.2659 0.693521 18.6712 0.692871 20.1094C0.692871 20.2932 0.765908 20.4695 0.895916 20.5995C1.02592 20.7296 1.20225 20.8026 1.38611 20.8026H14.4606C14.6444 20.8026 14.8208 20.7296 14.9508 20.5995C15.0808 20.4695 15.1538 20.2932 15.1538 20.1094C15.1565 19.3743 15.043 18.6434 14.8176 17.9437C14.4819 16.862 13.8952 15.875 13.1053 15.0633Z" fill="#034AA6"/>
<path d="M16.291 12.1376C17.9182 12.1376 19.2372 10.8186 19.2372 9.19138C19.2372 7.5642 17.9182 6.24512 16.291 6.24512C14.6638 6.24512 13.3447 7.5642 13.3447 9.19138C13.3447 10.8186 14.6638 12.1376 16.291 12.1376Z" fill="#034AA6"/>
<path d="M16.2893 12.9482C15.3601 12.9517 14.4488 13.2048 13.6509 13.681C13.8013 13.8155 13.9531 13.9479 14.0952 14.0935C15.0392 15.0637 15.7404 16.2433 16.1417 17.5361C16.2791 17.9617 16.3805 18.3981 16.4446 18.8408H20.7954C20.9792 18.8408 21.1556 18.7677 21.2856 18.6377C21.4156 18.5077 21.4886 18.3314 21.4886 18.1475C21.4872 16.769 20.9389 15.4474 19.9642 14.4727C18.9894 13.498 17.6678 12.9497 16.2893 12.9482Z" fill="#034AA6"/>
</svg>
