<svg width="15" height="15" viewBox="0 0 15 15" fill="none" xmlns="http://www.w3.org/2000/svg">
<path fill-rule="evenodd" clip-rule="evenodd" d="M10 8.125H7.5C7.155 8.125 6.875 7.84562 6.875 7.5V5C6.875 4.65438 7.155 4.375 7.5 4.375C7.845 4.375 8.125 4.65438 8.125 5V6.875H10C10.3456 6.875 10.625 7.15438 10.625 7.5C10.625 7.84562 10.3456 8.125 10 8.125ZM7.5 1.25C4.05375 1.25 1.25 4.05375 1.25 7.5C1.25 10.9462 4.05375 13.75 7.5 13.75C10.9462 13.75 13.75 10.9462 13.75 7.5C13.75 4.05375 10.9462 1.25 7.5 1.25Z" fill="#231F20"/>
<mask id="mask0_1782_6144" style="mask-type:luminance" maskUnits="userSpaceOnUse" x="1" y="1" width="13" height="13">
<path fill-rule="evenodd" clip-rule="evenodd" d="M10 8.125H7.5C7.155 8.125 6.875 7.84562 6.875 7.5V5C6.875 4.65438 7.155 4.375 7.5 4.375C7.845 4.375 8.125 4.65438 8.125 5V6.875H10C10.3456 6.875 10.625 7.15438 10.625 7.5C10.625 7.84562 10.3456 8.125 10 8.125ZM7.5 1.25C4.05375 1.25 1.25 4.05375 1.25 7.5C1.25 10.9462 4.05375 13.75 7.5 13.75C10.9462 13.75 13.75 10.9462 13.75 7.5C13.75 4.05375 10.9462 1.25 7.5 1.25Z" fill="white"/>
</mask>
<g mask="url(#mask0_1782_6144)">
<rect width="15" height="15" fill="#034AA6"/>
</g>
</svg>
