<svg width="18" height="19" viewBox="0 0 18 19" fill="none" xmlns="http://www.w3.org/2000/svg">
<path d="M3.32617 5.88477H14.8784" stroke="#333333" stroke-width="1.29962" stroke-linecap="round" stroke-linejoin="round"/>
<path d="M7.66016 8.77246V13.1045" stroke="#333333" stroke-width="1.29962" stroke-linecap="round" stroke-linejoin="round"/>
<path d="M10.5449 8.77246V13.1045" stroke="#333333" stroke-width="1.29962" stroke-linecap="round" stroke-linejoin="round"/>
<path d="M4.04883 5.88477L4.77084 14.5489C4.77084 14.9319 4.92298 15.2992 5.19379 15.57C5.4646 15.8408 5.83189 15.993 6.21487 15.993H11.991C12.374 15.993 12.7413 15.8408 13.0121 15.57C13.2829 15.2992 13.435 14.9319 13.435 14.5489L14.157 5.88477" stroke="#333333" stroke-width="1.29962" stroke-linecap="round" stroke-linejoin="round"/>
<path d="M6.93555 5.88512V3.71908C6.93555 3.52759 7.01162 3.34395 7.14702 3.20854C7.28242 3.07314 7.46607 2.99707 7.65756 2.99707H10.5456C10.7371 2.99707 10.9208 3.07314 11.0562 3.20854C11.1916 3.34395 11.2676 3.52759 11.2676 3.71908V5.88512" stroke="#333333" stroke-width="1.29962" stroke-linecap="round" stroke-linejoin="round"/>
</svg>
