<svg width="13" height="13" viewBox="0 0 13 13" fill="none" xmlns="http://www.w3.org/2000/svg">
<path fill-rule="evenodd" clip-rule="evenodd" d="M6.49984 3.79167C7.09784 3.79167 7.58317 3.30633 7.58317 2.70833C7.58317 2.11033 7.09784 1.625 6.49984 1.625C5.90184 1.625 5.4165 2.11033 5.4165 2.70833C5.4165 3.30633 5.90184 3.79167 6.49984 3.79167ZM6.49984 5.41667C5.90184 5.41667 5.4165 5.902 5.4165 6.5C5.4165 7.098 5.90184 7.58333 6.49984 7.58333C7.09784 7.58333 7.58317 7.098 7.58317 6.5C7.58317 5.902 7.09784 5.41667 6.49984 5.41667ZM5.4165 10.2917C5.4165 9.69367 5.90184 9.20833 6.49984 9.20833C7.09784 9.20833 7.58317 9.69367 7.58317 10.2917C7.58317 10.8897 7.09784 11.375 6.49984 11.375C5.90184 11.375 5.4165 10.8897 5.4165 10.2917Z" fill="#034AA6"/>
<mask id="mask0_1702_5669" style="mask-type:luminance" maskUnits="userSpaceOnUse" x="5" y="1" width="3" height="11">
<path fill-rule="evenodd" clip-rule="evenodd" d="M6.49984 3.79167C7.09784 3.79167 7.58317 3.30633 7.58317 2.70833C7.58317 2.11033 7.09784 1.625 6.49984 1.625C5.90184 1.625 5.4165 2.11033 5.4165 2.70833C5.4165 3.30633 5.90184 3.79167 6.49984 3.79167ZM6.49984 5.41667C5.90184 5.41667 5.4165 5.902 5.4165 6.5C5.4165 7.098 5.90184 7.58333 6.49984 7.58333C7.09784 7.58333 7.58317 7.098 7.58317 6.5C7.58317 5.902 7.09784 5.41667 6.49984 5.41667ZM5.4165 10.2917C5.4165 9.69367 5.90184 9.20833 6.49984 9.20833C7.09784 9.20833 7.58317 9.69367 7.58317 10.2917C7.58317 10.8897 7.09784 11.375 6.49984 11.375C5.90184 11.375 5.4165 10.8897 5.4165 10.2917Z" fill="white"/>
</mask>
<g mask="url(#mask0_1702_5669)">
<rect width="13" height="8.50977" fill="#034AA6"/>
</g>
</svg>
