<svg width="40" height="39" viewBox="0 0 40 39" fill="none" xmlns="http://www.w3.org/2000/svg">
<circle cx="20.0387" cy="19.5255" r="19.1305" fill="#E7EEFA"/>
<path d="M20.0374 19.4191L27.5035 15.3467C27.266 14.5654 26.7844 13.8809 26.1292 13.3935C25.4741 12.9061 24.68 12.6415 23.8635 12.6387H16.2113C15.3947 12.6415 14.6006 12.9061 13.9455 13.3935C13.2904 13.8809 12.8087 14.5654 12.5713 15.3467L20.0374 19.4191Z" fill="#034AA6"/>
<path d="M20.4045 20.9628C20.292 21.0241 20.166 21.0562 20.0379 21.0562C19.9099 21.0562 19.7838 21.0241 19.6714 20.9628L12.3857 16.9888V22.5866C12.3869 23.601 12.7904 24.5735 13.5077 25.2908C14.225 26.0081 15.1975 26.4115 16.2118 26.4127H23.864C24.8784 26.4115 25.8509 26.0081 26.5682 25.2908C27.2854 24.5735 27.6889 23.601 27.6901 22.5866V16.9888L20.4045 20.9628Z" fill="#034AA6"/>
</svg>
