<svg width="26" height="26" viewBox="0 0 26 26" fill="none" xmlns="http://www.w3.org/2000/svg">
<circle cx="12.6435" cy="13.1547" r="12.4111" fill="#0A58D0"/>
<g clip-path="url(#clip0_2133_5461)">
<g clip-path="url(#clip1_2133_5461)">
<path fill-rule="evenodd" clip-rule="evenodd" d="M9.98568 7.59571C10.0011 7.59571 10.0167 7.59571 10.0325 7.59571L10.0516 7.59571C10.2333 7.5957 10.3503 7.59569 10.4646 7.60638C10.9565 7.65238 11.4232 7.84567 11.8035 8.16099C11.892 8.23428 11.9746 8.31698 12.1031 8.4455L12.4012 8.74357C12.8386 9.18091 13.0067 9.34416 13.2009 9.45222C13.3137 9.51494 13.4332 9.56448 13.5573 9.59984C13.771 9.66077 14.0054 9.66422 14.6239 9.66422L14.8434 9.66422C15.5017 9.66421 16.0324 9.66421 16.4522 9.71699C16.8873 9.7717 17.2571 9.88843 17.5608 10.1616C17.6117 10.2074 17.6601 10.2558 17.7058 10.3066C17.979 10.6104 18.0957 10.9801 18.1504 11.4152C18.2032 11.8351 18.2032 12.3657 18.2032 13.024V14.2183C18.2032 15.1686 18.2032 15.9214 18.124 16.5105C18.0425 17.1168 17.8708 17.6075 17.4838 17.9945C17.0968 18.3815 16.606 18.5533 15.9997 18.6348C15.4106 18.714 14.6579 18.714 13.7075 18.714H11.5807C10.6303 18.714 9.87756 18.714 9.28844 18.6348C8.68215 18.5533 8.19142 18.3815 7.80442 17.9945C7.41742 17.6075 7.24567 17.1168 7.16416 16.5105C7.08495 15.9214 7.08496 15.1686 7.08497 14.2183L7.08497 10.5432C7.08497 10.5274 7.08497 10.5118 7.08497 10.4964C7.08491 10.0848 7.08487 9.8229 7.12756 9.59665C7.31503 8.60301 8.09227 7.82577 9.08591 7.6383C9.31215 7.59561 9.57409 7.59565 9.98568 7.59571ZM10.0325 8.3714C9.55845 8.3714 9.37518 8.3731 9.22973 8.40054C8.54986 8.52881 8.01807 9.06061 7.8898 9.74047C7.86236 9.88592 7.86066 10.0692 7.86066 10.5432V14.1891C7.86066 15.1752 7.86148 15.8757 7.93293 16.4071C8.00288 16.9274 8.13406 17.2272 8.35292 17.446C8.57177 17.6649 8.87152 17.796 9.3918 17.866C9.92323 17.9374 10.6238 17.9383 11.6098 17.9383H13.6783C14.6644 17.9383 15.365 17.9374 15.8964 17.866C16.4167 17.796 16.7164 17.6649 16.9353 17.446C17.1541 17.2272 17.2853 16.9274 17.3553 16.4071C17.4267 15.8757 17.4275 15.1752 17.4275 14.1891V13.0503C17.4275 12.3595 17.4268 11.8778 17.3808 11.512C17.336 11.1559 17.2538 10.964 17.1291 10.8254C17.1016 10.7948 17.0726 10.7658 17.0421 10.7383C16.9034 10.6136 16.7116 10.5314 16.3555 10.4866C15.9897 10.4406 15.5079 10.4399 14.8171 10.4399H14.6239C14.6046 10.4399 14.5856 10.4399 14.5669 10.4399C14.0249 10.44 13.6754 10.4401 13.3447 10.3458C13.1633 10.2941 12.9886 10.2217 12.8238 10.1301C12.5232 9.96284 12.2762 9.71567 11.893 9.33239C11.8798 9.31911 11.8663 9.30567 11.8527 9.29206L11.5682 9.00751C11.4217 8.86102 11.3656 8.80553 11.3085 8.75817C11.0482 8.54243 10.729 8.41018 10.3924 8.3787C10.3185 8.3718 10.2396 8.3714 10.0325 8.3714ZM12.7734 12.1206C12.7734 11.9064 12.947 11.7327 13.1612 11.7327H15.7469C15.9611 11.7327 16.1347 11.9064 16.1347 12.1206C16.1347 12.3348 15.9611 12.5084 15.7469 12.5084H13.1612C12.947 12.5084 12.7734 12.3348 12.7734 12.1206Z" fill="white"/>
</g>
</g>
<defs>
<clipPath id="clip0_2133_5461">
<rect width="12.4111" height="12.4111" fill="white" transform="translate(6.4375 6.94922)"/>
</clipPath>
<clipPath id="clip1_2133_5461">
<rect width="12.4111" height="12.4111" fill="white" transform="translate(6.4375 6.94922)"/>
</clipPath>
</defs>
</svg>
