<svg width="18" height="19" viewBox="0 0 18 19" fill="none" xmlns="http://www.w3.org/2000/svg">
<path fill-rule="evenodd" clip-rule="evenodd" d="M12.3141 5.09115C11.7388 5.09115 11.2725 5.55752 11.2725 6.13281C11.2725 6.70811 11.7388 7.17448 12.3141 7.17448C12.8894 7.17448 13.3558 6.70811 13.3558 6.13281C13.3558 5.55752 12.8894 5.09115 12.3141 5.09115ZM10.0225 6.13281C10.0225 4.86716 11.0485 3.84115 12.3141 3.84115C13.5798 3.84115 14.6058 4.86716 14.6058 6.13281C14.6058 7.39847 13.5798 8.42448 12.3141 8.42448C11.0485 8.42448 10.0225 7.39847 10.0225 6.13281Z" fill="#77797E"/>
<path fill-rule="evenodd" clip-rule="evenodd" d="M8.93298 0.507813H9.02861C10.9523 0.507802 12.4598 0.507793 13.636 0.665935C14.84 0.827801 15.79 1.16558 16.5357 1.91126C17.2814 2.65693 17.6191 3.60695 17.781 4.8109C17.9391 5.98714 17.9391 7.49467 17.9391 9.41834V9.51396C17.9391 11.4376 17.9391 12.9452 17.781 14.1214C17.6191 15.3253 17.2814 16.2754 16.5357 17.021C15.79 17.7667 14.84 18.1045 13.636 18.2664C12.4598 18.4245 10.9523 18.4245 9.0286 18.4245H8.93298C7.00932 18.4245 5.50179 18.4245 4.32555 18.2664C3.1216 18.1045 2.17158 17.7667 1.42591 17.021C0.680233 16.2754 0.34245 15.3253 0.180583 14.1214C0.0224419 12.9452 0.0224504 11.4376 0.0224611 9.51396V9.41833C0.0224504 7.49467 0.0224419 5.98714 0.180583 4.8109C0.34245 3.60695 0.680233 2.65693 1.42591 1.91126C2.17158 1.16558 3.1216 0.827801 4.32555 0.665935C5.50179 0.507793 7.00932 0.507802 8.93298 0.507813ZM2.30979 16.1371C1.83508 15.6624 1.56267 15.0202 1.41944 13.9548C1.29154 13.0035 1.27493 11.7899 1.27278 10.1663L2.51868 9.0761C3.03044 8.62831 3.80175 8.65399 4.28259 9.13484L7.85736 12.7096C8.64481 13.4971 9.88438 13.6044 10.7955 12.9641L11.044 12.7895C11.7591 12.2869 12.7267 12.3451 13.3764 12.9298L16.0627 15.3475C16.0919 15.3738 16.123 15.3968 16.1553 15.4166C16.0207 15.7007 15.8547 15.9342 15.6518 16.1371C15.1771 16.6119 14.5348 16.8843 13.4695 17.0275C12.3862 17.1732 10.9626 17.1745 8.98079 17.1745C6.99894 17.1745 5.57542 17.1732 4.49211 17.0275C3.42677 16.8843 2.7845 16.6119 2.30979 16.1371ZM4.49211 1.90479C3.42677 2.04802 2.7845 2.32043 2.30979 2.79514C1.83508 3.26986 1.56267 3.91212 1.41944 4.97746C1.29849 5.87704 1.27706 7.01121 1.27327 8.50487L1.69555 8.13538C2.70257 7.25424 4.2203 7.30478 5.16647 8.25095L8.74124 11.8257C9.09918 12.1837 9.66261 12.2325 10.0768 11.9414L10.3253 11.7668C11.5172 10.9291 13.1298 11.0262 14.2126 12.0007L16.5243 14.0812C16.5304 14.0397 16.5364 13.9976 16.5422 13.9548C16.6878 12.8715 16.6891 11.448 16.6891 9.46615C16.6891 7.48429 16.6878 6.06078 16.5422 4.97746C16.3989 3.91212 16.1265 3.26986 15.6518 2.79514C15.1771 2.32043 14.5348 2.04802 13.4695 1.90479C12.3862 1.75914 10.9626 1.75781 8.98079 1.75781C6.99894 1.75781 5.57542 1.75914 4.49211 1.90479Z" fill="#77797E"/>
</svg>
