<svg width="32" height="32" viewBox="0 0 32 32" fill="none" xmlns="http://www.w3.org/2000/svg">
<g clip-path="url(#clip0_1790_6468)">
<path d="M24.6456 8.7334C28.4695 8.7334 31.5748 11.7874 31.5748 15.6369C31.5748 19.4352 28.4695 22.5276 24.6456 22.5276C22.785 22.5276 21.0527 21.8091 19.7438 20.513L16.1765 17.3564L12.5451 20.5772C11.3004 21.8219 9.55531 22.5405 7.70752 22.5405C3.88363 22.5405 0.77832 19.4352 0.77832 15.6369C0.77832 11.8387 3.88363 8.7334 7.70752 8.7334C9.55531 8.7334 11.3004 9.45198 12.6093 10.7608L16.1765 13.9175L19.808 10.6967C21.0527 9.45198 22.7978 8.7334 24.6456 8.7334ZM10.7872 18.7038L14.2518 15.6369L10.8385 12.6215C9.96593 11.7489 8.87522 11.2998 7.70752 11.2998C5.30797 11.2998 3.34469 13.2374 3.34469 15.6369C3.34469 18.0365 5.30797 19.9741 7.70752 19.9741C8.87522 19.9741 9.96593 19.525 10.7872 18.7038ZM21.5659 12.5701L18.1013 15.6369L21.5146 18.6524C22.3872 19.525 23.4907 19.9741 24.6456 19.9741C27.0451 19.9741 29.0084 18.0365 29.0084 15.6369C29.0084 13.2374 27.0451 11.2998 24.6456 11.2998C23.4779 11.2998 22.3872 11.7489 21.5659 12.5701Z" fill="#9A9696"/>
</g>
<defs>
<clipPath id="clip0_1790_6468">
<rect width="30.7965" height="30.7965" fill="white" transform="translate(0.77832 0.23877)"/>
</clipPath>
</defs>
</svg>
