<svg width="19" height="18" viewBox="0 0 19 18" fill="none" xmlns="http://www.w3.org/2000/svg">
<path d="M15.1758 1.24463H3.82683C3.45059 1.24463 3.08975 1.39409 2.82371 1.66013C2.55767 1.92618 2.4082 2.28701 2.4082 2.66326V5.50051C2.4082 5.87675 2.55767 6.23758 2.82371 6.50363C3.08975 6.76967 3.45059 6.91913 3.82683 6.91913C4.20307 6.91913 4.56391 6.76967 4.82995 6.50363C5.09599 6.23758 5.24546 5.87675 5.24546 5.50051V4.08188H8.08271V14.0123H6.66408C6.28784 14.0123 5.92701 14.1617 5.66096 14.4278C5.39492 14.6938 5.24546 15.0546 5.24546 15.4309C5.24546 15.8071 5.39492 16.168 5.66096 16.434C5.92701 16.7001 6.28784 16.8495 6.66408 16.8495H12.3386C12.7148 16.8495 13.0757 16.7001 13.3417 16.434C13.6078 16.168 13.7572 15.8071 13.7572 15.4309C13.7572 15.0546 13.6078 14.6938 13.3417 14.4278C13.0757 14.1617 12.7148 14.0123 12.3386 14.0123H10.92V4.08188H13.7572V5.50051C13.7572 5.87675 13.9067 6.23758 14.1727 6.50363C14.4388 6.76967 14.7996 6.91913 15.1758 6.91913C15.5521 6.91913 15.9129 6.76967 16.179 6.50363C16.445 6.23758 16.5945 5.87675 16.5945 5.50051V2.66326C16.5945 2.28701 16.445 1.92618 16.179 1.66013C15.9129 1.39409 15.5521 1.24463 15.1758 1.24463Z" fill="#A5A5A5"/>
</svg>
