<svg width="15" height="16" viewBox="0 0 15 16" fill="none" xmlns="http://www.w3.org/2000/svg">
<path d="M4.82751 7.27654L7.22234 1.88818C7.6987 1.88818 8.15555 2.07742 8.49238 2.41425C8.82922 2.75109 9.01846 3.20794 9.01846 3.6843V6.07912H12.4071C12.5807 6.07716 12.7526 6.11295 12.911 6.18403C13.0693 6.2551 13.2104 6.35976 13.3243 6.49074C13.4382 6.62173 13.5222 6.77591 13.5706 6.94261C13.619 7.10931 13.6306 7.28453 13.6045 7.45615L12.7783 12.8445C12.735 13.13 12.59 13.3903 12.37 13.5773C12.1499 13.7644 11.8697 13.8656 11.5809 13.8623H4.82751M4.82751 7.27654V13.8623M4.82751 7.27654H3.0314C2.71382 7.27654 2.40926 7.40269 2.1847 7.62725C1.96014 7.85181 1.83398 8.15637 1.83398 8.47395V12.6649C1.83398 12.9825 1.96014 13.287 2.1847 13.5116C2.40926 13.7361 2.71382 13.8623 3.0314 13.8623H4.82751" stroke="#034AA6" stroke-width="1.19741" stroke-linecap="round" stroke-linejoin="round"/>
</svg>
