<svg width="12" height="13" viewBox="0 0 12 13" fill="none" xmlns="http://www.w3.org/2000/svg">
<path d="M5.98451 12.4304C5.11949 12.4304 4.35251 12.2703 3.68356 11.9502C3.02615 11.6301 2.50714 11.1262 2.12653 10.4385C1.75746 9.73891 1.57292 8.82001 1.57292 7.68176V5.76097C1.57292 5.09699 1.57292 4.42708 1.57292 3.75125C1.57292 3.07541 1.56716 2.39365 1.55562 1.70596C1.55562 1.24354 1.34225 0.953052 0.915511 0.834483L0.534904 0.745558V0.37207H5.20599V0.745558L4.72158 0.852269C4.28331 0.95898 4.06417 1.2554 4.06417 1.74153C4.05264 2.4055 4.04687 3.07541 4.04687 3.75125C4.04687 4.41523 4.04687 5.08513 4.04687 5.76097V8.01968C4.04687 9.16979 4.27177 9.99976 4.72158 10.5096C5.18293 11.0194 5.83457 11.2744 6.67652 11.2744C7.5646 11.2744 8.25662 11.0017 8.75256 10.4562C9.26004 9.89898 9.51377 9.07493 9.51377 7.98411V1.79488C9.51377 1.55775 9.46764 1.35025 9.37537 1.1724C9.2831 0.99455 9.12163 0.88191 8.89096 0.834483L8.47575 0.745558V0.37207H11.14V0.745558L10.6556 0.852269C10.4365 0.899696 10.2865 1.00641 10.2058 1.1724C10.1251 1.3384 10.0847 1.53996 10.0847 1.7771V7.8774C10.0847 9.34764 9.70984 10.474 8.96016 11.2566C8.21048 12.0391 7.2186 12.4304 5.98451 12.4304Z" fill="#A5A5A5"/>
<path d="M0.154297 7.00593H11.5033V7.89518H0.154297V7.00593Z" fill="#A5A5A5"/>
</svg>
