<svg width="18" height="19" viewBox="0 0 18 19" fill="none" xmlns="http://www.w3.org/2000/svg">
<path fill-rule="evenodd" clip-rule="evenodd" d="M8.93298 0.894043H9.02861C10.9523 0.894032 12.4598 0.894024 13.636 1.05217C14.84 1.21403 15.79 1.55182 16.5357 2.29749C17.2814 3.04316 17.6191 3.99318 17.781 5.19713C17.9391 6.37337 17.9391 7.8809 17.9391 9.80457V9.90019C17.9391 11.8238 17.9391 13.3314 17.781 14.5076C17.6191 15.7116 17.2814 16.6616 16.5357 17.4073C15.79 18.1529 14.84 18.4907 13.636 18.6526C12.4598 18.8107 10.9523 18.8107 9.0286 18.8107H8.93298C7.00932 18.8107 5.50179 18.8107 4.32555 18.6526C3.1216 18.4907 2.17158 18.1529 1.42591 17.4073C0.680233 16.6616 0.34245 15.7116 0.180583 14.5076C0.0224419 13.3314 0.0224504 11.8239 0.0224611 9.90019V9.80456C0.0224504 7.8809 0.0224419 6.37337 0.180583 5.19713C0.34245 3.99318 0.680233 3.04316 1.42591 2.29749C2.17158 1.55182 3.1216 1.21403 4.32555 1.05217C5.50179 0.894024 7.00932 0.894032 8.93298 0.894043ZM4.49211 2.29102C3.42677 2.43425 2.7845 2.70666 2.30979 3.18137C1.83508 3.65609 1.56267 4.29835 1.41944 5.36369C1.39681 5.53199 1.37766 5.7085 1.36147 5.89404H4.47104L6.85112 2.15392C5.91156 2.16833 5.14083 2.2038 4.49211 2.29102ZM8.3201 2.14431C8.30461 2.18795 8.284 2.23053 8.25808 2.27126L5.95267 5.89404H9.8877L12.2465 2.1873C11.3605 2.14463 10.2931 2.14404 8.98079 2.14404C8.75332 2.14404 8.53319 2.14406 8.3201 2.14431ZM13.6459 2.31653L11.3693 5.89404H16.6001C16.5839 5.7085 16.5648 5.53199 16.5422 5.36369C16.3989 4.29835 16.1265 3.65609 15.6518 3.18137C15.2039 2.73346 14.6068 2.46566 13.6459 2.31653ZM16.6669 7.14404H10.2401C10.2335 7.14415 10.2269 7.14415 10.2203 7.14404H4.82348C4.81686 7.14415 4.81023 7.14415 4.8036 7.14404H1.29473C1.27283 7.91215 1.27246 8.80417 1.27246 9.85238C1.27246 11.8342 1.27379 13.2577 1.41944 14.3411C1.56267 15.4064 1.83508 16.0487 2.30979 16.5234C2.7845 16.9981 3.42677 17.2705 4.49211 17.4137C5.57542 17.5594 6.99894 17.5607 8.98079 17.5607C10.9626 17.5607 12.3862 17.5594 13.4695 17.4137C14.5348 17.2705 15.1771 16.9981 15.6518 16.5234C16.1265 16.0487 16.3989 15.4064 16.5422 14.3411C16.6878 13.2577 16.6891 11.8342 16.6891 9.85238C16.6891 8.80417 16.6888 7.91215 16.6669 7.14404ZM10.121 9.78674L10.2057 9.84138C10.7222 10.1746 11.1694 10.4631 11.4811 10.7387C11.8127 11.032 12.1058 11.4096 12.1058 11.9357C12.1058 12.4618 11.8127 12.8394 11.4811 13.1327C11.1694 13.4083 10.7222 13.6968 10.2057 14.03L10.121 14.0847C9.59921 14.4214 9.14573 14.7141 8.76904 14.8813C8.37711 15.0553 7.87493 15.1807 7.39598 14.8764C6.9421 14.5881 6.80447 14.0959 6.74673 13.6626C6.68907 13.2299 6.6891 12.6585 6.68913 11.9815V11.8899C6.6891 11.2129 6.68907 10.6415 6.74673 10.2088C6.80447 9.77551 6.9421 9.28334 7.39598 8.99499C7.87493 8.69071 8.37711 8.81609 8.76904 8.99011C9.14573 9.15736 9.59921 9.45001 10.121 9.78674ZM8.02906 10.0621C8.02855 10.0615 8.03245 10.0604 8.04225 10.061C8.03447 10.0631 8.02956 10.0628 8.02906 10.0621ZM8.06172 10.0634C8.09518 10.0691 8.15736 10.0862 8.26178 10.1326C8.5381 10.2552 8.90866 10.4921 9.48691 10.8652C10.0564 11.2327 10.4212 11.4701 10.653 11.6751C10.8664 11.8638 10.8566 11.93 10.8558 11.9354C10.8566 11.9408 10.8664 12.0076 10.653 12.1963C10.4212 12.4013 10.0564 12.6387 9.48691 13.0062C8.90866 13.3793 8.5381 13.6162 8.26178 13.7389C8.15736 13.7852 8.09518 13.8023 8.06171 13.808C8.0432 13.7724 8.01093 13.6862 7.98578 13.4975C7.94048 13.1575 7.93913 12.6708 7.93913 11.9357C7.93913 11.2006 7.94048 10.7139 7.98578 10.374C8.01093 10.1852 8.04321 10.0991 8.06172 10.0634ZM8.02906 13.8093C8.02957 13.8086 8.03447 13.8083 8.04225 13.8104C8.03244 13.811 8.02855 13.81 8.02906 13.8093ZM8.07252 13.8259C8.07538 13.8283 8.07663 13.8299 8.07654 13.8302C8.07644 13.8304 8.07501 13.8292 8.07252 13.8259ZM8.07252 10.0456C8.07501 10.0422 8.07644 10.041 8.07654 10.0413C8.07663 10.0415 8.07538 10.0432 8.07252 10.0456Z" fill="#77797E"/>
</svg>
