<svg width="71" height="71" viewBox="0 0 71 71" fill="none" xmlns="http://www.w3.org/2000/svg">
<circle cx="35.4958" cy="35.0807" r="35.0661" fill="url(#paint0_linear_2819_12050)"/>
<circle cx="35.4958" cy="35.0807" r="35.0661" fill="black" fill-opacity="0.2"/>
<g opacity="0.8">
<path d="M25.5469 24.3796C25.5469 23.7016 25.8162 23.0514 26.2956 22.572C26.775 22.0926 27.4252 21.8232 28.1032 21.8232H38.3286C38.6675 21.8233 38.9926 21.958 39.2322 22.1977L45.6231 28.5886C45.8628 28.8282 45.9975 29.1533 45.9976 29.4923V44.8303C45.9976 45.5083 45.7283 46.1585 45.2488 46.6379C44.7694 47.1173 44.1192 47.3866 43.4412 47.3866H28.1032C27.4252 47.3866 26.775 47.1173 26.2956 46.6379C25.8162 46.1585 25.5469 45.5083 25.5469 44.8303V24.3796ZM42.9121 29.4923L38.3286 24.9087V29.4923H42.9121ZM35.7722 24.3796H28.1032V44.8303H43.4412V32.0486H37.0504C36.7114 32.0486 36.3863 31.9139 36.1466 31.6742C35.9069 31.4345 35.7722 31.1094 35.7722 30.7704V24.3796ZM30.6596 35.8831C30.6596 35.5441 30.7942 35.219 31.0339 34.9793C31.2736 34.7396 31.5987 34.6049 31.9377 34.6049H39.6067C39.9457 34.6049 40.2708 34.7396 40.5105 34.9793C40.7502 35.219 40.8849 35.5441 40.8849 35.8831C40.8849 36.2221 40.7502 36.5472 40.5105 36.7869C40.2708 37.0266 39.9457 37.1613 39.6067 37.1613H31.9377C31.5987 37.1613 31.2736 37.0266 31.0339 36.7869C30.7942 36.5472 30.6596 36.2221 30.6596 35.8831ZM30.6596 40.9958C30.6596 40.6568 30.7942 40.3317 31.0339 40.092C31.2736 39.8523 31.5987 39.7176 31.9377 39.7176H39.6067C39.9457 39.7176 40.2708 39.8523 40.5105 40.092C40.7502 40.3317 40.8849 40.6568 40.8849 40.9958C40.8849 41.3348 40.7502 41.6599 40.5105 41.8996C40.2708 42.1393 39.9457 42.2739 39.6067 42.2739H31.9377C31.5987 42.2739 31.2736 42.1393 31.0339 41.8996C30.7942 41.6599 30.6596 41.3348 30.6596 40.9958Z" fill="white"/>
</g>
<defs>
<linearGradient id="paint0_linear_2819_12050" x1="35.4958" y1="0.0146484" x2="35.4958" y2="70.1468" gradientUnits="userSpaceOnUse">
<stop stop-color="#0A58D0"/>
<stop offset="1" stop-color="#052D6A"/>
</linearGradient>
</defs>
</svg>
