<svg width="32" height="32" viewBox="0 0 32 32" fill="none" xmlns="http://www.w3.org/2000/svg">
<path d="M31.8333 14.35V24.3409C31.8333 28.4742 28.4683 31.8337 24.3333 31.8337H20.1667V24.3389C20.1667 22.0446 18.2967 20.1791 16 20.1791C13.7033 20.1791 11.8333 22.0446 11.8333 24.3389V31.8337H7.66667C3.53167 31.8337 0.166666 28.4725 0.166666 24.3409V14.35C0.166666 12.0708 1.18666 9.94171 2.96332 8.51116L11.2967 1.81013C14.02 -0.380722 17.975 -0.380722 20.7017 1.81013L29.035 8.51116C30.8133 9.94171 31.8333 12.0691 31.8333 14.35Z" fill="url(#paint0_linear_2476_6089)"/>
<defs>
<linearGradient id="paint0_linear_2476_6089" x1="16" y1="0.166992" x2="16" y2="31.8337" gradientUnits="userSpaceOnUse">
<stop stop-color="#00CCFF"/>
<stop offset="1" stop-color="#034AA6"/>
</linearGradient>
</defs>
</svg>
