<svg width="40" height="40" viewBox="0 0 40 40" fill="none" xmlns="http://www.w3.org/2000/svg">
<path d="M0 6.25C0 4.5924 0.65848 3.00269 1.83058 1.83058C3.00269 0.65848 4.5924 0 6.25 0H28.75C30.4076 0 31.9973 0.65848 33.1694 1.83058C34.3415 3.00269 35 4.5924 35 6.25V16.5C33.8186 15.8949 32.5553 15.4654 31.25 15.225V6.25C31.25 5.58696 30.9866 4.95107 30.5178 4.48223C30.0489 4.01339 29.413 3.75 28.75 3.75H6.25C5.58696 3.75 4.95107 4.01339 4.48223 4.48223C4.01339 4.95107 3.75 5.58696 3.75 6.25V28.75C3.75 29.413 4.01339 30.0489 4.48223 30.5178C4.95107 30.9866 5.58696 31.25 6.25 31.25H15.225C15.4654 32.5553 15.8949 33.8186 16.5 35H6.25C4.5924 35 3.00269 34.3415 1.83058 33.1694C0.65848 31.9973 0 30.4076 0 28.75V6.25ZM40 28.75C40 31.7337 38.8147 34.5952 36.7049 36.7049C34.5952 38.8147 31.7337 40 28.75 40C25.7663 40 22.9048 38.8147 20.795 36.7049C18.6853 34.5952 17.5 31.7337 17.5 28.75C17.5 25.7663 18.6853 22.9048 20.795 20.795C22.9048 18.6853 25.7663 17.5 28.75 17.5C31.7337 17.5 34.5952 18.6853 36.7049 20.795C38.8147 22.9048 40 25.7663 40 28.75ZM30 23.75C30 23.4185 29.8683 23.1005 29.6339 22.8661C29.3995 22.6317 29.0815 22.5 28.75 22.5C28.4185 22.5 28.1005 22.6317 27.8661 22.8661C27.6317 23.1005 27.5 23.4185 27.5 23.75V27.5H23.75C23.4185 27.5 23.1005 27.6317 22.8661 27.8661C22.6317 28.1005 22.5 28.4185 22.5 28.75C22.5 29.0815 22.6317 29.3995 22.8661 29.6339C23.1005 29.8683 23.4185 30 23.75 30H27.5V33.75C27.5 34.0815 27.6317 34.3995 27.8661 34.6339C28.1005 34.8683 28.4185 35 28.75 35C29.0815 35 29.3995 34.8683 29.6339 34.6339C29.8683 34.3995 30 34.0815 30 33.75V30H33.75C34.0815 30 34.3995 29.8683 34.6339 29.6339C34.8683 29.3995 35 29.0815 35 28.75C35 28.4185 34.8683 28.1005 34.6339 27.8661C34.3995 27.6317 34.0815 27.5 33.75 27.5H30V23.75Z" fill="url(#paint0_linear_2400_11140)"/>
<defs>
<linearGradient id="paint0_linear_2400_11140" x1="20" y1="0" x2="20" y2="40" gradientUnits="userSpaceOnUse">
<stop stop-color="#00CCFF"/>
<stop offset="1" stop-color="#034AA6"/>
</linearGradient>
</defs>
</svg>
