<svg width="30" height="30" viewBox="0 0 30 30" fill="none" xmlns="http://www.w3.org/2000/svg">
<path fill-rule="evenodd" clip-rule="evenodd" d="M14.9199 2.95171e-07H15.0801C18.3011 -1.76694e-05 20.8253 -3.18954e-05 22.7948 0.264763C24.8107 0.535795 26.4015 1.10139 27.65 2.34996C28.8986 3.59853 29.4642 5.18926 29.7352 7.20517C30 9.17469 30 11.6989 30 14.9199V15.0801C30 18.3011 30 20.8253 29.7352 22.7948C29.4642 24.8107 28.8986 26.4015 27.65 27.65C26.4015 28.8986 24.8107 29.4642 22.7948 29.7352C20.8253 30 18.3011 30 15.0801 30H14.9199C11.6989 30 9.17469 30 7.20517 29.7352C5.18926 29.4642 3.59853 28.8986 2.34996 27.65C1.10139 26.4015 0.535795 24.8107 0.264763 22.7948C-3.18954e-05 20.8253 -1.76694e-05 18.3011 2.95171e-07 15.0801V14.9199C-1.76694e-05 11.6989 -3.18954e-05 9.17469 0.264763 7.20517C0.535795 5.18926 1.10139 3.59853 2.34996 2.34996C3.59853 1.10139 5.18926 0.535795 7.20517 0.264763C9.17469 -3.18954e-05 11.6989 -1.76694e-05 14.9199 2.95171e-07ZM7.48406 2.33912C5.70024 2.57895 4.62482 3.03508 3.82995 3.82995C3.03508 4.62482 2.57895 5.70024 2.33912 7.48406C2.30123 7.76587 2.26918 8.06142 2.24206 8.37209H7.44878L11.434 2.10956C9.86081 2.1337 8.5703 2.19308 7.48406 2.33912ZM13.8937 2.09347C13.8678 2.16654 13.8333 2.23784 13.7899 2.30603L9.92966 8.37209H16.5185L20.4682 2.16545C18.9847 2.094 17.1973 2.09302 15 2.09302C14.6191 2.09302 14.2505 2.09305 13.8937 2.09347ZM22.8114 2.38184L18.9994 8.37209H27.7579C27.7308 8.06142 27.6988 7.76587 27.6609 7.48406C27.421 5.70024 26.9649 4.62482 26.17 3.82995C25.4201 3.07996 24.4203 2.63154 22.8114 2.38184ZM27.8697 10.4651H17.1087C17.0976 10.4653 17.0865 10.4653 17.0754 10.4651H8.03891C8.02782 10.4653 8.01673 10.4653 8.00563 10.4651H2.13031C2.09365 11.7512 2.09302 13.2449 2.09302 15C2.09302 18.3185 2.09525 20.702 2.33912 22.5159C2.57895 24.2998 3.03508 25.3752 3.82995 26.17C4.62482 26.9649 5.70024 27.421 7.48406 27.6609C9.29798 27.9048 11.6815 27.907 15 27.907C18.3185 27.907 20.702 27.9048 22.5159 27.6609C24.2998 27.421 25.3752 26.9649 26.17 26.17C26.9649 25.3752 27.421 24.2998 27.6609 22.5159C27.9048 20.702 27.907 18.3185 27.907 15C27.907 13.2449 27.9064 11.7512 27.8697 10.4651ZM16.9092 14.8901L17.051 14.9816C17.9158 15.5395 18.6646 16.0226 19.1865 16.4842C19.7418 16.9752 20.2326 17.6074 20.2326 18.4884C20.2326 19.3693 19.7418 20.0015 19.1865 20.4926C18.6646 20.9542 17.9158 21.4372 17.051 21.9951L16.9092 22.0867C16.0355 22.6505 15.2762 23.1405 14.6454 23.4205C13.9892 23.7119 13.1483 23.9219 12.3464 23.4124C11.5864 22.9295 11.3559 22.1054 11.2592 21.3799C11.1627 20.6554 11.1627 19.6986 11.1628 18.565V18.4117C11.1627 17.2781 11.1627 16.3213 11.2592 15.5969C11.3559 14.8713 11.5864 14.0472 12.3464 13.5644C13.1483 13.0549 13.9892 13.2648 14.6454 13.5562C15.2762 13.8363 16.0355 14.3263 16.9092 14.8901ZM13.4064 15.3512C13.4056 15.3501 13.4121 15.3483 13.4285 15.3493C13.4154 15.3528 13.4072 15.3523 13.4064 15.3512ZM13.4611 15.3534C13.5171 15.3629 13.6212 15.3915 13.7961 15.4691C14.2587 15.6746 14.8792 16.0712 15.8475 16.6959C16.801 17.3112 17.4119 17.7088 17.7999 18.052C18.1572 18.368 18.1409 18.4788 18.1396 18.4878C18.1409 18.4968 18.1572 18.6088 17.7999 18.9248C17.4119 19.2679 16.801 19.6655 15.8475 20.2808C14.8792 20.9055 14.2587 21.3022 13.7961 21.5076C13.6212 21.5852 13.5171 21.6138 13.4611 21.6234C13.4301 21.5637 13.376 21.4194 13.3339 21.1034C13.2581 20.5342 13.2558 19.7193 13.2558 18.4884C13.2558 17.2575 13.2581 16.4425 13.3339 15.8733C13.376 15.5573 13.4301 15.413 13.4611 15.3534ZM13.4064 21.6255C13.4073 21.6244 13.4155 21.6239 13.4285 21.6274C13.4121 21.6284 13.4055 21.6267 13.4064 21.6255ZM13.4792 21.6533C13.484 21.6573 13.486 21.6601 13.4859 21.6605C13.4857 21.6609 13.4833 21.6588 13.4792 21.6533ZM13.4792 15.3235C13.4833 15.3179 13.4857 15.3159 13.4859 15.3163C13.486 15.3167 13.484 15.3194 13.4792 15.3235Z" fill="url(#paint0_linear_2819_9129)"/>
<defs>
<linearGradient id="paint0_linear_2819_9129" x1="15" y1="0" x2="15" y2="30" gradientUnits="userSpaceOnUse">
<stop stop-color="#00CCFF"/>
<stop offset="1" stop-color="#034AA6"/>
</linearGradient>
</defs>
</svg>
